<svg xmlns="http://www.w3.org/2000/svg" xmlns:xlink="http://www.w3.org/1999/xlink" width="146" height="146" viewBox="0 0 146 146">
  <defs>
    <filter id="bg" x="0" y="0" width="146" height="146" filterUnits="userSpaceOnUse">
      <feOffset dy="3" input="SourceAlpha"/>
      <feGaussianBlur stdDeviation="3" result="blur"/>
      <feFlood flood-opacity="0.161"/>
      <feComposite operator="in" in2="blur"/>
      <feComposite in="SourceGraphic"/>
    </filter>
  </defs>
  <g id="antivirus-dark" transform="translate(-1643 -44)">
    <g transform="matrix(1, 0, 0, 1, 1643, 44)" filter="url(#bg)">
      <rect id="bg-2" data-name="bg" width="128" height="128" rx="6" transform="translate(9 6)" fill="#d5d6d7"/>
    </g>
    <path id="Pfad_103" data-name="Pfad 103" d="M6990.009,100a3.352,3.352,0,0,1-1.367-.289,89.807,89.807,0,0,1-13.2-8.494,69.073,69.073,0,0,1-9.83-9.339,59.887,59.887,0,0,1-11.5-20.286c-4.684-13.926-4.273-28.052-3.912-40.516v-.008l0-.035v-.079l0-.058.014-.5.012-.423,0-.044q.01-.28.018-.559l0-.154.02-.681.01-.355c.026-.91.049-1.7.068-2.5h.02a3.418,3.418,0,0,1,3.4-3.418c19.146-.755,30.278-6.947,34.176-9.574h.012a3.4,3.4,0,0,1,4.081,0h.009c3.895,2.626,15.021,8.815,34.186,9.574a3.352,3.352,0,0,1,2.4,1,3.412,3.412,0,0,1,1,2.416h.018c.034,1.741.085,3.554.136,5.254V21.1c.365,12.459.779,26.581-3.9,40.5A59.862,59.862,0,0,1,7014.4,81.879a69,69,0,0,1-9.826,9.336,89.566,89.566,0,0,1-13.191,8.492A3.367,3.367,0,0,1,6990.009,100Zm-33.7-79.028c-.022.917-.049,1.873-.085,3.007,0,.191-.01.4-.018.605v.039l-.011.358-.012.429,0,.049v.067l0,.03v.008c-.307,10.6-.654,22.6,3.326,34.44a50.891,50.891,0,0,0,9.775,17.242,58.6,58.6,0,0,0,8.356,7.938,76.023,76.023,0,0,0,11.216,7.22,2.842,2.842,0,0,0,1.163.247,2.888,2.888,0,0,0,1.168-.249,76.173,76.173,0,0,0,11.211-7.22,58.618,58.618,0,0,0,8.353-7.935,50.9,50.9,0,0,0,9.77-17.24c3.977-11.836,3.625-23.843,3.314-34.437V25.5l0-.06c-.042-1.454-.086-3-.116-4.468h-.014a2.9,2.9,0,0,0-.847-2.054,2.849,2.849,0,0,0-2.04-.85c-16.3-.646-25.749-5.906-29.057-8.138h-.009a2.881,2.881,0,0,0-3.469,0h-.011c-3.314,2.233-12.781,7.5-29.048,8.138a2.909,2.909,0,0,0-2.892,2.9h-.016Z" transform="translate(-5274 63)" fill="#4daf30"/>
  </g>
</svg>
