<svg xmlns="http://www.w3.org/2000/svg" width="128" height="82.001"><defs/><path d="M54.162 80.354A5.814 5.814 0 0056 76.066V57.5a1.5 1.5 0 011.5-1.5H122a6.007 6.007 0 006-6V32a6.008 6.008 0 00-6-6H57.4a1.5 1.5 0 01-1.4-1.5V5.935a5.82 5.82 0 00-1.838-4.288A6.129 6.129 0 0050.014 0a5.871 5.871 0 00-3.692 1.31L2.237 36.375a5.9 5.9 0 000 9.25l44.085 35.067A5.887 5.887 0 0050.014 82a6.126 6.126 0 004.148-1.646zM56 50h-3a3.007 3.007 0 00-3 3v18.46a2.235 2.235 0 01-2.28 2.172 2.3 2.3 0 01-1.407-.478L7.851 42.986a2.11 2.11 0 010-3.386L46.313 9.43a2.323 2.323 0 011.407-.478A2.236 2.236 0 0150 11.124V29a2.988 2.988 0 002.9 3H119a3 3 0 013 3v12a3 3 0 01-3 3H62.9z"/></svg>