<svg xmlns="http://www.w3.org/2000/svg" width="128" height="82.001"><defs/><path d="M73.838 80.353A5.814 5.814 0 0172 76.066V57.5a1.5 1.5 0 00-1.5-1.5H6a6.007 6.007 0 01-6-6V32a6.008 6.008 0 016-6h64.6a1.5 1.5 0 001.4-1.5V5.935a5.82 5.82 0 011.838-4.288A6.129 6.129 0 0177.986 0a5.871 5.871 0 013.692 1.31l44.085 35.065a5.9 5.9 0 010 9.25L81.678 80.692A5.887 5.887 0 0177.986 82a6.126 6.126 0 01-4.148-1.647zM72 50h3a3.007 3.007 0 013 3v18.46a2.235 2.235 0 002.28 2.172 2.3 2.3 0 001.407-.478l38.462-30.168a2.11 2.11 0 000-3.386L81.687 9.43a2.323 2.323 0 00-1.407-.478A2.236 2.236 0 0078 11.124V29a2.988 2.988 0 01-2.9 3H9a3 3 0 00-3 3v12a3 3 0 003 3h56.1z"/></svg>