<svg xmlns="http://www.w3.org/2000/svg" width="82.001" height="128"><defs/><path d="M80.354 73.838A5.814 5.814 0 0076.066 72H57.5a1.5 1.5 0 01-1.5-1.5V6a6.007 6.007 0 00-6-6H32a6.008 6.008 0 00-6 6v64.6a1.5 1.5 0 01-1.5 1.4H5.935a5.82 5.82 0 00-4.288 1.838A6.129 6.129 0 000 77.987a5.871 5.871 0 001.31 3.692l35.066 44.085a5.9 5.9 0 009.25 0l35.067-44.085A5.887 5.887 0 0082 77.987a6.126 6.126 0 00-1.646-4.149zM50 72v3a3.007 3.007 0 003 3h18.46a2.235 2.235 0 012.172 2.28 2.3 2.3 0 01-.478 1.407l-30.165 38.461a2.11 2.11 0 01-3.386 0L9.433 81.687a2.323 2.323 0 01-.478-1.407A2.236 2.236 0 0111.127 78H29a2.988 2.988 0 003-2.9V9a3 3 0 013-3h12a3 3 0 013 3v56.1z"/></svg>