<svg xmlns="http://www.w3.org/2000/svg" width="70" height="127.999"><defs/><path d="M6 127.999a6.007 6.007 0 01-6-6v-116a6.006 6.006 0 016-6h58a6.007 6.007 0 016 6v116a6.008 6.008 0 01-6 6zm0-119v110a3.006 3.006 0 003 3h52a3.006 3.006 0 003-3v-110a3 3 0 00-3-3H9a3 3 0 00-3 3zm20 98a9 9 0 119 9 9.01 9.01 0 01-9-9zm6 0a3 3 0 103-3 3.005 3.005 0 00-3 3zm20-18v-26a3 3 0 116 0v26a3 3 0 11-6 0zm-20 0v-26a3 3 0 116 0v26a3 3 0 11-6 0zm-20 0v-26a3 3 0 116 0v26a3 3 0 11-6 0zm6-35a6.008 6.008 0 01-6-6v-6a6.008 6.008 0 016-6h34a6.008 6.008 0 016 6v6a6.008 6.008 0 01-6 6zm0-9a3 3 0 003 3h28a3 3 0 000-6H21a3 3 0 00-3 3zm0-15a6.007 6.007 0 01-6-6v-6a6.007 6.007 0 016-6h34a6.007 6.007 0 016 6v6a6.007 6.007 0 01-6 6zm0-9a3 3 0 003 3h28a3 3 0 000-6H21a3 3 0 00-3 3z"/></svg>