<svg xmlns="http://www.w3.org/2000/svg" width="128.001" height="116.001"><defs/><path d="M55.001 116a6.007 6.007 0 01-6-6h-10a6.007 6.007 0 01-6-6V90h-8a6.007 6.007 0 01-6-6v-4h-16.5a2.5 2.5 0 110-5h16.5v-6h-16.5a2.5 2.5 0 110-5h16.5v-6h-16.5a2.5 2.5 0 110-5h16.5v-6h-16.5a2.5 2.5 0 110-5h16.5v-6h-16.5a2.5 2.5 0 110-5h16.5v-6h-16.5a2.5 2.5 0 110-5h16.5v-6h-16.5a2.5 2.5 0 110-5h16.5V6a6.008 6.008 0 016-6h78a6.008 6.008 0 016 6v78a6.008 6.008 0 01-6 6h-8v14a6.007 6.007 0 01-6 6h-10v-6h7a3 3 0 003-3V90h-50v11a3 3 0 003 3h7a6.008 6.008 0 016-6h18a6.008 6.008 0 016 6v6a6.007 6.007 0 01-6 6zm0-9a3 3 0 003 3h12a3 3 0 000-6h-12a3 3 0 00-3 3zm-30-98v72a3 3 0 003 3h72a3 3 0 003-3V9a3 3 0 00-3-3h-72a3 3 0 00-3 3zm84 72v-5h16.5a2.5 2.5 0 010 5zm-58.625-3.751A35.11 35.11 0 1164.001 80a34.857 34.857 0 01-13.624-2.751zM68.306 52.9a20.054 20.054 0 01-1.023 20.915 28.871 28.871 0 0014.832-6.183A13.982 13.982 0 0068.85 52.577a7.394 7.394 0 01-.543.323zM56.242 64.54a19.877 19.877 0 01-8.241 4.64 28.848 28.848 0 0011.284 4.438 13.975 13.975 0 002.826-19.285 19.867 19.867 0 01-5.868 10.208zm-14.224-.645A13.974 13.974 0 0056.59 50.3a20.044 20.044 0 01-20.793 1.462A28.934 28.934 0 0042.019 63.9zm30.883-17.584q-.056.393-.15.776A20.048 20.048 0 0187.603 61.83a28.831 28.831 0 005.372-15.641 13.974 13.974 0 00-20.073.123zM61.001 45a3 3 0 103-3 3 3 0 00-3 3zm-25.978-1.189a13.976 13.976 0 0020.071-.119 8.96 8.96 0 01.15-.777 20.039 20.039 0 01-14.852-14.743 28.83 28.83 0 00-5.367 15.64zm40.824-13.962a14.039 14.039 0 00-4.439 9.847 20.043 20.043 0 0120.8-1.464 28.946 28.946 0 00-6.221-12.125 12.326 12.326 0 00-.576-.012 14.049 14.049 0 00-9.562 3.755zM45.884 22.37a13.973 13.973 0 0013.27 15.049c.175-.112.355-.219.539-.319a20.055 20.055 0 011.023-20.915 28.876 28.876 0 00-14.83 6.186zm17.453 3.407a14.03 14.03 0 002.548 9.891 20.061 20.061 0 0114.108-14.85 28.822 28.822 0 00-11.28-4.436 14.039 14.039 0 00-5.375 9.396zM91.001 75a3 3 0 113 3 3 3 0 01-3-3zm-60 0a3 3 0 113 3 3 3 0 01-3-3zm78-5v-5h16.5a2.5 2.5 0 010 5zm0-11v-5h16.5a2.5 2.5 0 010 5zm0-11v-5h16.5a2.5 2.5 0 010 5zm0-11v-5h16.5a2.5 2.5 0 010 5zm0-11v-5h16.5a2.5 2.5 0 010 5zm-18-12a3 3 0 113 3 3 3 0 01-3-3zm-60 0a3 3 0 113 3 3 3 0 01-3-3zm78 1v-5h16.5a2.5 2.5 0 010 5z"/></svg>