<svg xmlns="http://www.w3.org/2000/svg" width="128.001" height="128.001"><defs/><path d="M88.001 125v-14a3 3 0 016 0v14a3 3 0 11-6 0zm-18 0v-14a3 3 0 016 0v14a3 3 0 11-6 0zm-18 0v-14a3 3 0 016 0v14a3 3 0 11-6 0zm-18 0v-14a3 3 0 016 0v14a3 3 0 11-6 0zm-2-23a6.007 6.007 0 01-6-6V32a6.007 6.007 0 016-6h64a6.008 6.008 0 016 6v64a6.008 6.008 0 01-6 6zm0-67v58a3 3 0 003 3h58a3 3 0 003-3V35a3 3 0 00-3-3h-58a3 3 0 00-3 3zm79 59a3 3 0 110-6h14a3 3 0 110 6zm-108 0a3 3 0 110-6h14a3 3 0 010 6zm108-18a3 3 0 110-6h14a3 3 0 110 6zm-108 0a3 3 0 110-6h14a3 3 0 010 6zm108-18a3 3 0 110-6h14a3 3 0 110 6zm-108 0a3 3 0 110-6h14a3 3 0 010 6zm108-18a3 3 0 110-6h14a3 3 0 110 6zm-108 0a3 3 0 110-6h14a3 3 0 010 6zm85-23V3a3 3 0 116 0v14a3 3 0 11-6 0zm-18 0V3a3 3 0 116 0v14a3 3 0 11-6 0zm-18 0V3a3 3 0 116 0v14a3 3 0 11-6 0zm-18 0V3a3 3 0 116 0v14a3 3 0 11-6 0z"/></svg>