<svg xmlns="http://www.w3.org/2000/svg" width="128.001" height="99.999"><defs/><path d="M10.229 98.717a64 64 0 11107.674-.2l-.007-.005a2.99 2.99 0 01-2.46 1.471l-102.85.016a3.016 3.016 0 01-2.357-1.282zM111.96 94a55 55 0 005.481-53.6 56.08 56.08 0 00-12.43-17.9 57.92 57.92 0 00-18.435-12.07 59.8 59.8 0 00-45.151 0A58.024 58.024 0 0022.988 22.5a56.11 56.11 0 00-12.43 17.9 55 55 0 005.48 53.6H50a13.905 13.905 0 014.1-9.9 14.134 14.134 0 012.05-1.7 14.2 14.2 0 00-1.58 1.246L34.406 48.72a3 3 0 011.1-4.1 2.367 2.367 0 011.2-.319 3.53 3.53 0 012.894 1.813l20.112 34.548A14.055 14.055 0 0164 80a14 14 0 0114 14zM72 94a8 8 0 00-16 0zM54.571 83.65z"/></svg>