<svg xmlns="http://www.w3.org/2000/svg" width="128.001" height="99.999"><defs/><path d="M10.229 98.717a64 64 0 11107.674-.2l-.007-.005a2.99 2.99 0 01-2.46 1.471l-102.85.016a3.016 3.016 0 01-2.357-1.282zM73.9 84.1A13.9 13.9 0 0178 94h33.958a54.87 54.87 0 009.882-27.5h-9.34a3 3 0 010-6h9.474a54.51 54.51 0 00-4.529-20.1 55.864 55.864 0 00-10.336-15.76l-6.691 6.691a3 3 0 01-4.243-4.243l6.629-6.629A57.946 57.946 0 0086.58 10.428 58.95 58.95 0 0067 6.074V15a3 3 0 01-6 0V6.074a58.924 58.924 0 00-19.572 4.352A58.051 58.051 0 0025.2 20.459l6.626 6.626a3 3 0 01-4.242 4.243l-6.689-6.69A55.9 55.9 0 0010.558 40.4a54.5 54.5 0 00-4.529 20.1h8.469a3 3 0 010 6H6.157A54.909 54.909 0 0016.039 94H50a13.9 13.9 0 014.1-9.9 14.106 14.106 0 012.05-1.7 13.992 13.992 0 00-1.58 1.244L34.406 48.718a3 3 0 011.1-4.1 2.367 2.367 0 011.2-.319 3.53 3.53 0 012.894 1.813L59.712 80.66A14.055 14.055 0 0164 80a13.9 13.9 0 019.9 4.1zM56 94h16a8 8 0 00-16 0zm-1.432-10.35z"/></svg>