<svg xmlns="http://www.w3.org/2000/svg" width="128" height="127.997"><defs/><path d="M.89 127.118a3 3 0 010-4.244l30.494-30.5a130.417 130.417 0 01-11.594-8.368A170.455 170.455 0 01.778 66.043a3.056 3.056 0 010-4.073A170.39 170.39 0 0119.79 44.004a113.622 113.622 0 0121.149-13.747c8.523-4.148 16.6-6.252 24-6.252s15.375 2.1 23.688 6.252q1.586.791 3.188 1.682L122.879.878a3 3 0 014.242 4.242l-30 30a119.828 119.828 0 0111.96 8.885 160.4 160.4 0 0118.363 18.278 2.96 2.96 0 01-.03 3.486 156.858 156.858 0 01-18.333 18.236A106.156 106.156 0 0188.63 97.757c-8.315 4.146-16.286 6.25-23.687 6.25s-15.476-2.1-24-6.25q-2.1-1.023-4.24-2.211L5.136 127.115a3 3 0 01-4.242 0zm42.419-34.422c7.664 3.527 14.927 5.314 21.582 5.314s13.821-1.787 21.292-5.314a95.55 95.55 0 0018.384-11.686 139.348 139.348 0 0012.714-11.486c2-2.045 3.454-3.652 4.319-4.638a1.433 1.433 0 000-1.749 137.84 137.84 0 00-17.033-16.124 106.183 106.183 0 00-11.393-7.943L81.53 50.714a22 22 0 01-30.827 30.829l-9.931 9.931q1.276.642 2.537 1.222zm0-57.376a103.1 103.1 0 00-19.014 11.693A149.914 149.914 0 006.51 63.019a1.4 1.4 0 00-.416.991 1.377 1.377 0 00.416.988v.007a148.44 148.44 0 0017.785 16 116.016 116.016 0 0011 7.456L46.459 77.3a22 22 0 0130.826-30.828l10.416-10.415q-.761-.381-1.518-.738c-7.471-3.524-14.636-5.311-21.292-5.311s-13.916 1.788-21.58 5.312zm20.688 44.69a15.993 15.993 0 0013.227-24.991l-22.218 22.22a15.908 15.908 0 008.993 2.771zm-16-16a15.912 15.912 0 002.766 8.983l22.216-22.217A15.991 15.991 0 0047.997 64.01z"/></svg>