<svg xmlns="http://www.w3.org/2000/svg" width="128.001" height="80.003"><defs/><path d="M40.94 73.753A113.725 113.725 0 0119.79 60 170.571 170.571 0 01.777 42.038a3.057 3.057 0 010-4.074A170.463 170.463 0 0119.79 20 113.707 113.707 0 0140.94 6.251C49.464 2.104 57.54 0 64.94 0s15.375 2.1 23.689 6.251A106.031 106.031 0 01109.085 20a160.409 160.409 0 0118.364 18.278 2.961 2.961 0 01-.03 3.487A156.877 156.877 0 01109.085 60a106.2 106.2 0 01-20.451 13.751C80.318 77.9 72.347 80 64.945 80s-15.476-2.1-24.005-6.247zm2.373-62.441A103.071 103.071 0 0024.301 23 150.122 150.122 0 006.513 39.007a1.4 1.4 0 00-.416.991 1.38 1.38 0 00.416.989V41a148.358 148.358 0 0017.788 16 102.745 102.745 0 0019.013 11.687c7.665 3.527 14.926 5.315 21.582 5.315s13.823-1.788 21.294-5.315A95.5 95.5 0 00104.573 57a139.175 139.175 0 0012.715-11.485c2-2.045 3.454-3.651 4.318-4.637a1.435 1.435 0 000-1.751A137.833 137.833 0 00104.573 23a95.773 95.773 0 00-18.385-11.692c-7.472-3.523-14.637-5.311-21.294-5.311s-13.916 1.792-21.581 5.315zm5.131 44.245A22 22 0 1164.001 62a21.853 21.853 0 01-15.557-6.443zM48.001 40a16 16 0 1016-16 16.018 16.018 0 00-16 16z"/></svg>