<svg xmlns="http://www.w3.org/2000/svg" width="128" height="86"><defs/><path d="M104.458 65.311c-1.305 3.559-7.306 6.961-8.895 6.412 3.033-4.579 6.456-14.829 2.45-21.021-1.316 4.44-4.417 7.869-7.129 7.863 3.321-5.611 3.926-22.236-13.526-25.5 7.7 11.438-11.676 25.2 3.364 39.109-4.108-.047-8.215-3.474-10.312-7.374-3.642 9.508 3.428 18.662 6.841 21.2-16.613-1.8-26.031-22.483-22.523-38.737a13.212 13.212 0 0012 11.287C46.685 34.179 80.519 20.715 70.046 0 86.091 1.011 100.8 17.356 95.3 33.825c3.835-1.053 7.445-4.907 8.248-10.728a34.864 34.864 0 013.615 33.556c3.6-.032 9.071-4.939 10.237-9.927C121.38 70.622 104.592 86 94.376 86c4.434-1.118 11.232-10.981 10.082-20.689zM6 62a6.007 6.007 0 01-6-6V28a6.007 6.007 0 016-6h54.8c-1.038 1.88-2.133 3.907-3.107 6H9a3 3 0 00-3 3v22a3 3 0 003 3h38.057a41.79 41.79 0 00.765 6H6zm41.822 0zm74.294 0a44.47 44.47 0 00.172-16.752c-.08.328-.177.658-.288.978V31a3 3 0 00-3-3h-7.926a37.493 37.493 0 00-2.807-6H122a6.007 6.007 0 016 6v28a6.006 6.006 0 01-5.882 6zM42 42.07V42c0-.124 0-.248.012-.372a6 6 0 0111.978.02v.011c.006.112.01.227.01.341v.071a6 6 0 01-5.631 5.915C48.246 48 48.123 48 48 48a6 6 0 01-6-5.93zM20 42a6 6 0 116 6 6.007 6.007 0 01-6-6z"/></svg>