<svg xmlns="http://www.w3.org/2000/svg" width="128" height="128"><defs/><path d="M59.322 127.83a6.315 6.315 0 01-5.684-4.776l-2.088-10.029a1.42 1.42 0 00-.773-.793 5.017 5.017 0 00-.514-.16 50.142 50.142 0 01-5.8-2.057 51.148 51.148 0 01-6.155-3.123 1.469 1.469 0 00-1.432.4l-8.143 5.163a6.326 6.326 0 01-5.647.368 6.218 6.218 0 01-1.811-1.168 64.729 64.729 0 01-5.91-6.055 6.3 6.3 0 01-.853-6.365 6.506 6.506 0 01.422-.822l5.229-7.938a5.576 5.576 0 00.394-.625 1.428 1.428 0 00-.007-1.131c-.047-.083-.2-.335-.221-.393a50.211 50.211 0 01-4.748-11.9h-.01a1.428 1.428 0 00-.789-.838 2.88 2.88 0 00-.635-.14L4.801 73.33a6.309 6.309 0 01-4.682-5.5 63.916 63.916 0 01.034-8.189l.017.005a6.31 6.31 0 015.017-6.038v-.009l9.241-1.9a2.962 2.962 0 01.475-.1 1.411 1.411 0 00.866-.8 3.083 3.083 0 00.135-.427 50.336 50.336 0 012.086-5.9 51.013 51.013 0 012.78-5.566 3.823 3.823 0 00.231-.427 1.436 1.436 0 00-.041-1.2l-.15-.235a.566.566 0 01-.109-.174l-5.115-8.066a6.311 6.311 0 01-.41-5.721 6.422 6.422 0 01.8-1.371 64.275 64.275 0 016.407-6.314 6.322 6.322 0 017.251-.434l7.848 5.19a3.314 3.314 0 00.671.4 1.427 1.427 0 001.047.027l.009.022a50.173 50.173 0 0111.937-4.9 2.5 2.5 0 01.322-.085 1.422 1.422 0 00.945-.821 2.76 2.76 0 00.131-.434l2.167-9.678a6.394 6.394 0 01.267-.758 6.268 6.268 0 015.092-3.8 63.508 63.508 0 018.5.037v.007a6.2 6.2 0 012.146.494 6.319 6.319 0 013.66 4.32l1.941 9.432a1.35 1.35 0 00.748 1.326 49.944 49.944 0 016.479 2.246c1.838.78 5.018 2.479 5.4 2.684s.469.272.576.335a1.413 1.413 0 001.223-.054l8.525-5.406a6.291 6.291 0 017.505.846l.005-.007a64.346 64.346 0 015.817 5.963 6.28 6.28 0 01.9 6.416 6.708 6.708 0 01-.445.858l-5.545 8.413a1.992 1.992 0 00-.054.114 1.432 1.432 0 00-.034 1.027l-.012.007a50.224 50.224 0 014.925 12.018 1.614 1.614 0 00.85 1.223l9.994 2.236a6.237 6.237 0 01.9.306 6.324 6.324 0 013.829 5.512h.005a63.479 63.479 0 01-.058 7.972c-.019.279-.026.359-.032.441a6.3 6.3 0 01-5.227 5.551v.005l-9.52 1.958a1.516 1.516 0 00-.839.807 1.347 1.347 0 00-.048.129 50.661 50.661 0 01-2.166 6.186 51.342 51.342 0 01-2.919 5.8 1.543 1.543 0 00-.088.174 1.423 1.423 0 00-.017 1.074l5.457 8.662a6.337 6.337 0 01.38 5.677 6.246 6.246 0 01-.793 1.367 63.2 63.2 0 01-6.252 6.181l-.006-.007a6.264 6.264 0 01-6.557 1.015 6.362 6.362 0 01-.76-.385l-8.6-5.639a1.5 1.5 0 00-1.5.2 50.128 50.128 0 01-12.067 4.8 1.608 1.608 0 00-.693.758 1.487 1.487 0 00-.065.189l-2.153 9.569a6.592 6.592 0 01-.352 1.1 6.3 6.3 0 01-5.232 3.811 63.016 63.016 0 01-3.819.115 58.617 58.617 0 01-4.66-.16zm1-5.748a2.557 2.557 0 00.429.128 47.51 47.51 0 003.365 0 24.2 24.2 0 002.774-.295v-.007a1.412 1.412 0 001.112-1.056c2.47-11 2.514-11.131 2.566-11.257a2.857 2.857 0 012.071-1.684 45.6 45.6 0 0015.442-6.191l.007.01a2.844 2.844 0 012.8-.318 2.808 2.808 0 01.467.254v-.005l9.747 5.9a1.393 1.393 0 00.242.131 1.434 1.434 0 001.516-.255c.008.012 1.407-1.275 2.26-2.166a34.428 34.428 0 001.9-2.164 3.389 3.389 0 00.174-.332 1.477 1.477 0 00-.068-1.289l-6.094-9.542a2.852 2.852 0 01.23-3.133h-.007a45.327 45.327 0 003.59-6.523c.307-.7.39-.9.687-1.618a45.2 45.2 0 002.267-7.443 2.7 2.7 0 01.107-.3 2.853 2.853 0 012.107-1.693v-.005l10.911-2.277a1.438 1.438 0 001.141-.86 1.407 1.407 0 00.109-.455c0-.009.121-1.505.092-3.063-.025-1.357-.162-2.806-.2-3.218a1.439 1.439 0 00-.87-1.262 1.472 1.472 0 00-.346-.1l-10.675-2.4a3.231 3.231 0 01-.579-.18 2.866 2.866 0 01-1.666-1.977 45.486 45.486 0 00-6.426-15.858 2.836 2.836 0 01-.114-2.469 3.141 3.141 0 01.2-.385l6.012-9.626a1.39 1.39 0 00.2-.339 1.417 1.417 0 00-.213-1.464l.012-.009c-.159-.18-.978-1.1-2-2.076-1.119-1.074-2.481-2.227-2.492-2.237-.109-.061-.216-.124-.329-.174a1.427 1.427 0 00-1.388.152l-9.285 5.857a2.857 2.857 0 01-2.721.264 2.934 2.934 0 01-.506-.276v.005a45.126 45.126 0 00-6.579-3.632c-.351-.153-.586-.255-.817-.352s-.459-.194-.8-.335a45.3 45.3 0 00-7.387-2.256 2.479 2.479 0 01-.3-.109 2.834 2.834 0 01-1.64-1.882L68.441 6.967a1.425 1.425 0 00-.85-1.068 2.872 2.872 0 00-.492-.128 62.192 62.192 0 00-2.872-.056c-1.31.01-2.59.089-2.834.1h-.006a1.441 1.441 0 00-1.259.872 1.536 1.536 0 00-.081.255l-2.511 11.175a2.745 2.745 0 01-.1.286 2.846 2.846 0 01-2.129 1.7v.009a45.537 45.537 0 00-15.511 6.258 2.867 2.867 0 01-2.7.247 5.025 5.025 0 01-.45-.225l-9.648-6.1a2.207 2.207 0 00-.2-.1 1.427 1.427 0 00-1.534.272 22.179 22.179 0 00-2.012 1.875c-1.023 1.074-2.2 2.523-2.232 2.6a1.477 1.477 0 00-.186.317 1.433 1.433 0 00.1 1.308l-.01.005 5.944 9.341a2.855 2.855 0 01.245 2.69q-.046.11-.1.215a45.085 45.085 0 00-3.84 6.884c-.32.734-.4.93-.743 1.754a45.15 45.15 0 00-2.147 6.991 3.033 3.033 0 01-.182.6 2.818 2.818 0 01-1.713 1.589L6.897 59.499a1.433 1.433 0 00-.946.826 1.412 1.412 0 00-.115.535c0 .01-.073 1.934-.054 3.4s.126 2.469.128 2.478a1.425 1.425 0 00.86 1.16 1.573 1.573 0 00.255.082v.009l11.042 2.479a3.062 3.062 0 01.332.118 2.871 2.871 0 011.672 2 45.479 45.479 0 006.361 15.742 2.864 2.864 0 01.187 2.6 4.742 4.742 0 01-.1.216l-6.25 9.837a1.569 1.569 0 00-.111.211 1.432 1.432 0 00.272 1.534c.007.012 1.008 1.141 2.077 2.225s2.186 2.12 2.207 2.117a1.393 1.393 0 00.356.218 1.437 1.437 0 001.29-.089l9.476-6.024a2.852 2.852 0 012.739-.279 3.041 3.041 0 01.353.18 45.1 45.1 0 006.768 3.755l.017.007c.337.148 1.249.535 1.608.683a45.256 45.256 0 007.143 2.2 2.923 2.923 0 01.567.174 2.858 2.858 0 011.621 1.813l2.848 11.492a1.431 1.431 0 00.818.883zm3.631-29.515a28.527 28.527 0 11.04 0zM42.967 55.074a22.854 22.854 0 1021.066-13.919 22.873 22.873 0 00-21.069 13.918z"/></svg>