<svg xmlns="http://www.w3.org/2000/svg" width="128" height="110.001"><defs/><path d="M12 107V20h110a6.006 6.006 0 016 6v58a6.006 6.006 0 01-6 6H18v17a3 3 0 11-6 0zm6.327-23h100.347a3 3 0 003-3V29a3 3 0 00-3-3H18.326zM102 102a6.006 6.006 0 01-6-6v-6h6v3a3 3 0 003 3h2a3 3 0 110 6zm-46 0a6.008 6.008 0 01-6-6v-6h6v3a3 3 0 003 3h22a3 3 0 003-3v-3h6v6a6.008 6.008 0 01-6 6zm-22 0a6.007 6.007 0 01-6-6v-6h6v4a2 2 0 004 0v-4h6v6a6.008 6.008 0 01-6 6zm45.151-32.15A21 21 0 1194 76a20.864 20.864 0 01-14.849-6.149zM79 55a15 15 0 1015-15 15.017 15.017 0 00-15 15zM27 76a3 3 0 010-6h34a3 3 0 010 6zm0-18a3 3 0 010-6h34a3 3 0 010 6zm64-3a3 3 0 113 3 3 3 0 01-3-3zM27 40a3 3 0 010-6h34a3 3 0 010 6zM12 20V9a3 3 0 00-3-3H3a3 3 0 010-6h9a6.008 6.008 0 016 6v14z"/></svg>