<svg xmlns="http://www.w3.org/2000/svg" width="90" height="128.001"><defs/><path d="M6 128.001a6.006 6.006 0 01-6-6v-116a6.006 6.006 0 016-6h78a6.008 6.008 0 016 6v116a6.008 6.008 0 01-6 6zm0-119v110a3 3 0 003 3h72a3 3 0 003-3v-110a3 3 0 00-3-3H9a3 3 0 00-3 3zm54 98a9 9 0 119 9 9.011 9.011 0 01-9-9zm6 0a3 3 0 103-3 3 3 0 00-3 3zm-43.626-6.368a12.873 12.873 0 01-6.731-7.425 12.539 12.539 0 01-.7-5.07 14.04 14.04 0 011.311-4.994 103.464 103.464 0 017.888-12.564q-1.293-1.056-2.48-2.241A33.032 33.032 0 1145 78.001h-.181a106.275 106.275 0 01-5 16.13 13.282 13.282 0 01-7.432 6.884 13.108 13.108 0 01-4.568.83 12.863 12.863 0 01-5.445-1.213zm14.579-37.54a62.376 62.376 0 00-5.68 6.939 116.7 116.7 0 00-8.384 13.1 12.556 12.556 0 00-1.213 7.3 5.669 5.669 0 009.021 4.2 12.544 12.544 0 004.88-5.59 116.2 116.2 0 004.611-14.861 61.793 61.793 0 001.638-8.819c.241-2.681-.039-4.228-.828-4.595a.983.983 0 00-.425-.09c-.817.001-2.031.812-3.62 2.415zm6.553-7.778c3.937 1.837 3.678 9.617 2.518 16.669a27.03 27.03 0 10-18.233-6.194c4.208-5.2 9.746-10.849 13.968-10.849a4.089 4.089 0 011.746.373zM42 45.001a3 3 0 113 3 3 3 0 01-3-3z"/></svg>