<svg xmlns="http://www.w3.org/2000/svg" width="128" height="128"><defs/><path d="M39.089 122.971A64.213 64.213 0 1164 128a63.792 63.792 0 01-24.911-5.029zM6 64A58 58 0 1064 6 58.066 58.066 0 006 64zm47.656 36a6 6 0 116 6 6 6 0 01-6-6zm3-21V65.927a2.973 2.973 0 01.491-1.573l.005-.008.012-.017a3.023 3.023 0 011.1-.985 2.987 2.987 0 011.4-.344h3.5A17.5 17.5 0 1047.14 38.45h-.007a3 3 0 01-5.791-1.1 3.582 3.582 0 01.138-.954A23.507 23.507 0 1163.9 68.988a1.5 1.5 0 00-1.245 1.267V79a3 3 0 11-6 0z"/></svg>