<svg xmlns="http://www.w3.org/2000/svg" width="128" height="128.001"><defs/><path d="M6 128a6.007 6.007 0 01-6-6V6a6.007 6.007 0 016-6h58a3 3 0 010 6H9a3 3 0 00-3 3v110a3 3 0 003 3h55a3 3 0 010 6zm70.321-24.308L32.236 68.625a5.9 5.9 0 010-9.249L76.321 24.31A5.873 5.873 0 0180.014 23a6.126 6.126 0 014.148 1.648A5.818 5.818 0 0186 28.935V47.5a1.5 1.5 0 001.4 1.5H122a6.008 6.008 0 016 6v18a6.006 6.006 0 01-6 6H87.5a1.5 1.5 0 00-1.5 1.5v18.566a5.81 5.81 0 01-1.839 4.288A6.124 6.124 0 0180.014 105a5.889 5.889 0 01-3.693-1.307zm-.007-71.259L37.852 62.6a2.11 2.11 0 000 3.386l38.462 30.17a2.3 2.3 0 001.407.478A2.235 2.235 0 0080 94.462V76a3.008 3.008 0 013-3h36a3 3 0 003-3V58a3 3 0 00-3-3H82.9a2.989 2.989 0 01-2.9-3V34.127a2.236 2.236 0 00-2.281-2.172 2.323 2.323 0 00-1.405.478z"/></svg>