<svg xmlns="http://www.w3.org/2000/svg" width="128" height="128.001"><defs/><path d="M6 128a6.007 6.007 0 01-6-6V6a6.007 6.007 0 016-6h58a3 3 0 010 6H9a3 3 0 00-3 3v110a3 3 0 003 3h55a3 3 0 010 6zm67.837-24.647A5.815 5.815 0 0172 99.066V80.5a1.5 1.5 0 00-1.5-1.5H36a6.007 6.007 0 01-6-6V55a6.009 6.009 0 016-6h34.6a1.5 1.5 0 001.4-1.5V28.935a5.823 5.823 0 011.839-4.288A6.133 6.133 0 0177.986 23a5.871 5.871 0 013.693 1.31l44.085 35.066a5.9 5.9 0 010 9.249l-44.085 35.068A5.89 5.89 0 0177.986 105a6.126 6.126 0 01-4.148-1.647zM72 73h3a3.008 3.008 0 013 3v18.46a2.235 2.235 0 002.28 2.172 2.292 2.292 0 001.407-.478l38.462-30.168a2.11 2.11 0 000-3.386L81.686 32.432a2.325 2.325 0 00-1.407-.478A2.236 2.236 0 0078 34.126V52a2.988 2.988 0 01-2.9 3H39a3 3 0 00-3 3v12a3 3 0 003 3h26.1z"/></svg>