<svg xmlns="http://www.w3.org/2000/svg" width="128" height="128.001"><defs/><path d="M24 128a6.008 6.008 0 01-6-6V65H6a6.008 6.008 0 01-6-6V21a6.005 6.005 0 016-6h12V6a6.008 6.008 0 016-6h98a6.007 6.007 0 016 6v116a6.007 6.007 0 01-6 6zm0-9a3 3 0 003 3h92a3 3 0 003-3V9a3 3 0 00-3-3H27a3 3 0 00-3 3v110zM6 56.341a3.005 3.005 0 003 3h9V51H6zM6 45h12V35H6zm0-21.339V29h12v-8.337H9a3 3 0 00-3 2.999zM99 116a6.008 6.008 0 01-6-6V98a6.006 6.006 0 016-6h11a6.007 6.007 0 016 6v12a6.008 6.008 0 01-6 6zm0-15v6a3 3 0 003 3h5a3 3 0 003-3v-6a3 3 0 00-3-3h-5a3 3 0 00-3 3zm-65 15a3 3 0 110-6h44a3 3 0 110 6zm0-18a3 3 0 110-6h44a3 3 0 110 6zm-1-18a3 3 0 110-6h80a3 3 0 010 6zm77-21V15a3 3 0 116 0v44a3 3 0 11-6 0zm-18 0V15a3 3 0 116 0v44a3 3 0 11-6 0zm-56 3a6.006 6.006 0 01-6-6V18a6.006 6.006 0 016-6h38a6.008 6.008 0 016 6v38a6.008 6.008 0 01-6 6zm0-41v32a3 3 0 003 3h32a3 3 0 003-3V21a3 3 0 00-3-3H39a3.005 3.005 0 00-3 3zm24 25a3 3 0 113 3 3 3 0 01-3-3zm-16 0a3 3 0 113 3 3 3 0 01-3-3zm16-18a3 3 0 113 3 3 3 0 01-3-3zm-16 0a3 3 0 113 3 3 3 0 01-3-3z"/></svg>