<svg xmlns="http://www.w3.org/2000/svg" width="128" height="128"><defs/><path data-name="Vereinigungsmenge 19" d="M88 128H12a12 12 0 01-12-12V60a12 12 0 0112-12h18V12A12 12 0 0142 0h56a12 12 0 0112 12v44h.006a18.923 18.923 0 0015.759 18.1 3 3 0 01-.659 5.9H80v24h.006a18.922 18.922 0 0015.759 18.1 3 3 0 01-.659 5.9zM6 60v56a6.006 6.006 0 006 6h56a6.006 6.006 0 006-6V60a6.006 6.006 0 00-6-6H12a6.006 6.006 0 00-6 6zm92 14a6.006 6.006 0 006-6V12a6.006 6.006 0 00-6-6H42a6.006 6.006 0 00-6 6v36h19.178l11.314-27.175a3.993 3.993 0 011.495-1.891 3.226 3.226 0 011.812-.568 3.364 3.364 0 01.354.019 3.594 3.594 0 012.044.64 3.637 3.637 0 011.372 1.8l15.005 35.746a4.115 4.115 0 01.305 1.463 3.49 3.49 0 01-3.416 3.6 3.212 3.212 0 01-1.982-.67 4.38 4.38 0 01-1.372-1.831l-3.167-7.381h-2.225A11.919 11.919 0 0180 60v14zM63.734 44.737h12.2L69.8 30.461z"/><g data-name="Gruppe 206" fill="none" stroke="#000" stroke-linecap="round" stroke-width="6"><path data-name="Pfad 428" d="M34.502 63.038a122.867 122.867 0 001.392 40.842"/><path data-name="Pfad 429" d="M22.014 72.429a238.634 238.634 0 0033.237-1.667"/><path data-name="Pfad 430" d="M48.127 78.419c-10.559 35.07-22.852 32.355-26.17 29.64s-1.037-14.2 6.486-20.137 18.458-5.666 23.606-3.62c11.388 4.525 10.936 26.548-9.5 28.659"/></g></svg>