<svg xmlns="http://www.w3.org/2000/svg" width="128.001" height="128.001"><defs/><path d="M64 128H63.527A64.018 64.018 0 0139.082 5.03a64.017 64.017 0 0149.824 117.942A63.55 63.55 0 0164.172 128zM6 64.22a58.071 58.071 0 0056.886 57.769 93.691 93.691 0 0013.572-16.806 9 9 0 01.354-12.718 94.87 94.87 0 00-43.284-42.27 9 9 0 01-12.284.726A93.988 93.988 0 006 64.22zm73.921 46.692a100.56 100.56 0 01-8.229 10.58 57.455 57.455 0 0013.746-3.6 93.332 93.332 0 00-2.391-9.893H83a9.08 9.08 0 01-1.139-.071 95.822 95.822 0 01-1.939 2.984zm11.141 4.379a58 58 0 0027.672-70.482 93 93 0 00-20.235-7.833 9.048 9.048 0 01-2.675 2.623A101.379 101.379 0 0197 55a99.371 99.371 0 01-7.417 37.864 9 9 0 01-.864 13.087q1.397 4.609 2.344 9.34zm-6.854-25.209A93.156 93.156 0 0091 55a94.588 94.588 0 00-1.05-14.06 9.007 9.007 0 01-7.658-6.658A94.853 94.853 0 0075 34.001a92.86 92.86 0 00-39.12 8.531A9.109 9.109 0 0136 44q0 .344-.025.681a100.322 100.322 0 0146.364 45.343Q82.666 90 83 90a9.077 9.077 0 011.21.081zm-77.5-35.127a100.716 100.716 0 0111.457-9.241 9 9 0 01-.155-1.338 93.367 93.367 0 00-7.9-1.814 57.5 57.5 0 00-3.404 12.393zm6-18.016q3.565.713 7.072 1.686a9 9 0 0113.167-1.377q1.556-.723 3.126-1.389A99.4 99.4 0 0175 28c2.6 0 5.208.1 7.794.3a9.034 9.034 0 013.147-3.742 93.326 93.326 0 00-7.687-16.783A58.023 58.023 0 0012.71 36.941zm101.215-1.08c.341.144.679.291 1.02.439a58.391 58.391 0 00-28.321-25.7q1.342 2.709 2.517 5.481a99.756 99.756 0 012.642 6.958 9 9 0 018.175 8.1 99.941 99.941 0 0113.969 4.721z"/></svg>