<svg xmlns="http://www.w3.org/2000/svg" width="128.001" height="90.001"><defs/><path d="M6 90a6.008 6.008 0 01-6-6V6a6.008 6.008 0 016-6h116a6.008 6.008 0 016 6v78a6.008 6.008 0 01-6 6zM6 9v72a3 3 0 003 3h110a3 3 0 003-3V9a3 3 0 00-3-3H9a3 3 0 00-3 3zm104 66a3 3 0 113 3 3 3 0 01-3-3zm-98 0a3 3 0 113 3 3 3 0 01-3-3zm87-5a3 3 0 110-6h8a3 3 0 010 6zm-20 0a3 3 0 110-6h8a3 3 0 110 6zm-49.731-1.963A25.1 25.1 0 1139 70a24.943 24.943 0 01-9.73-1.963zm-1.7-7.866a18.962 18.962 0 0022.273.421l-4.334-4.336a13.032 13.032 0 01-13.645-.382zm22.3-22.3a13.029 13.029 0 010 14.263l4.3 4.3a18.967 18.967 0 000-22.856zM20 45a18.9 18.9 0 003.409 10.849l4.334-4.334a13.042 13.042 0 010-13.029l-4.334-4.334A18.9 18.9 0 0020 45zm16.289 6.454a7.013 7.013 0 004.686.262l-2.473-2.473zM42.743 45l2.71 2.71a6.982 6.982 0 000-5.42zM32 45a7.009 7.009 0 00.284 1.975L34.258 45l-1.974-1.974A6.924 6.924 0 0032 45zm4.288-6.452l2.212 2.211 2.473-2.473a7.013 7.013 0 00-4.686.262zm-8.715-8.716l4.295 4.295a13.034 13.034 0 0113.646-.382l4.333-4.334a18.962 18.962 0 00-22.273.421zM99 58a3 3 0 110-6h8a3 3 0 010 6zm-20 0a3 3 0 110-6h8a3 3 0 110 6zm3-18a6.005 6.005 0 01-6-6v-8a6 6 0 016-6h22a6.006 6.006 0 016 6v8a6.007 6.007 0 01-6 6zm0-11v2a3 3 0 003 3h16a3 3 0 003-3v-2a3.005 3.005 0 00-3-3H85a3.005 3.005 0 00-3 3zm28-14a3 3 0 113 3 3 3 0 01-3-3zm-98 0a3 3 0 113 3 3 3 0 01-3-3z"/></svg>