<svg xmlns="http://www.w3.org/2000/svg" width="128.001" height="49.999"><defs/><path d="M6 50a6 6 0 01-6-5.851V31.633h.007v-.048-.084a3.014 3.014 0 011.952-2.813v-.018a6.058 6.058 0 003.992-4.881v-.027a.021.021 0 000-.011V23.7a.105.105 0 010-.021v-.007a.111.111 0 000-.025v-.012a.013.013 0 000-.007v-.005a.188.188 0 01.005-.046v-.05-.007a.069.069 0 000-.014v-.09a.036.036 0 000-.012v-.087a.045.045 0 00.005-.025v-.075a.193.193 0 01.005-.055V23a5.99 5.99 0 00-.467-2.323v-.01l-.005-.012v-.009-.019a.11.11 0 00-.011-.027l-.005-.014a6.047 6.047 0 00-3.585-3.272v-.02A2.987 2.987 0 010 14.5v-.075h-.005V5.854A6.007 6.007 0 016 0h116a6.008 6.008 0 016 6v7.6a2.988 2.988 0 01-1.938 2.7v.014a6 6 0 00-.046 11.341v.014A3.023 3.023 0 01128 30.4V44a6 6 0 01-6 6H80.9a3 3 0 01-2.9-3v-2a3 3 0 00-6 0v2.15A3 3 0 0169.013 50zm72-14a6.006 6.006 0 016 6v.5a1.5 1.5 0 001.5 1.5H119a3 3 0 003-3v-8.6a12 12 0 01-2.483-18.882A12.16 12.16 0 01122 11.6V9a3 3 0 00-3-3H9a3 3 0 00-3 3v3.6a12.106 12.106 0 012.483 1.911A12.016 12.016 0 016 33.4V41a3.006 3.006 0 003 3h55.51A1.49 1.49 0 0066 42.576V42a6 6 0 016-6zm20-6a6.006 6.006 0 01-6-6v-8a6.006 6.006 0 016-6h6a6.005 6.005 0 016 6v8a6.005 6.005 0 01-6 6zm0-11v2a3 3 0 006 0v-2a3 3 0 00-6 0zM74 30a6.005 6.005 0 01-6-6v-8a6.005 6.005 0 016-6h6a6.006 6.006 0 016 6v8a6.006 6.006 0 01-6 6zm0-11v2a3 3 0 006 0v-2a3 3 0 00-6 0zM50 30a6.007 6.007 0 01-6-6v-8a6.007 6.007 0 016-6h6a6.005 6.005 0 016 6v8a6.005 6.005 0 01-6 6zm0-11v2a3 3 0 006 0v-2a3 3 0 00-6 0zM26 30a6.007 6.007 0 01-6-6v-8a6.007 6.007 0 016-6h6a6.006 6.006 0 016 6v8a6.006 6.006 0 01-6 6zm0-11v2a3 3 0 006 0v-2a3 3 0 00-6 0z"/></svg>