<svg xmlns="http://www.w3.org/2000/svg" width="128.001" height="115"><defs/><path d="M6 115a6.006 6.006 0 01-6-6V79a5.966 5.966 0 01.958-3.25A5.963 5.963 0 010 72.5v-30a5.964 5.964 0 01.958-3.25A5.962 5.962 0 010 36V6a6.008 6.008 0 016-6h116a6.008 6.008 0 016 6v30a5.962 5.962 0 01-.958 3.25A5.964 5.964 0 01128 42.5v30a5.963 5.963 0 01-.958 3.249A5.966 5.966 0 01128 79v30a6.006 6.006 0 01-6 6zm0-33.4v24.8a3 3 0 003 3h110a3 3 0 003-3V81.6a3 3 0 00-3-3H9a3 3 0 00-3 3zm0-36.5v24.8a3 3 0 003 3h110a3 3 0 003-3V45.1a3 3 0 00-3-3H9a3 3 0 00-3 3zM6 8.6v24.8a3 3 0 003 3h110a3 3 0 003-3V8.6a3 3 0 00-3-3H9a3 3 0 00-3 3zM98 94a9 9 0 119 9 9.008 9.008 0 01-9-9zm6 0a3 3 0 103-3 3 3 0 00-3 3zm-30 0a9 9 0 119 9 9.009 9.009 0 01-9-9zm6 0a3 3 0 103-3 3 3 0 00-3 3zm-30 0a9 9 0 119 9 9.01 9.01 0 01-9-9zm6 0a3 3 0 103-3 3 3 0 00-3 3zm42-36.5a9 9 0 119 9 9.008 9.008 0 01-9-9zm6 0a3 3 0 103-3 3 3 0 00-3 3zm-30 0a9 9 0 119 9 9.009 9.009 0 01-9-9zm6 0a3 3 0 103-3 3 3 0 00-3 3zm-30 0a9 9 0 119 9 9.01 9.01 0 01-9-9zm6 0a3 3 0 103-3 3 3 0 00-3 3zM98 21a9 9 0 119 9 9.008 9.008 0 01-9-9zm6 0a3 3 0 103-3 3 3 0 00-3 3zm-30 0a9 9 0 119 9 9.009 9.009 0 01-9-9zm6 0a3 3 0 103-3 3 3 0 00-3 3zm-30 0a9 9 0 119 9 9.01 9.01 0 01-9-9zm6 0a3 3 0 103-3 3 3 0 00-3 3z"/></svg>