<svg xmlns="http://www.w3.org/2000/svg" width="127" height="110"><defs/><path d="M36 107V3a3 3 0 116 0v104a3 3 0 11-6 0zm12-10V13a3 3 0 016 0v84a3 3 0 11-6 0zm49-15V28a3 3 0 016 0v54a3 3 0 01-6 0zm-73 0V28a3 3 0 016 0v54a3 3 0 01-6 0zm37-7V35a3 3 0 016 0v40a3 3 0 01-6 0zm24-5V40a3 3 0 116 0v30a3 3 0 11-6 0zm-73 0V40a3 3 0 116 0v30a3 3 0 11-6 0zm97-1V41a3 3 0 116 0v28a3 3 0 11-6 0zm12-7V48a3 3 0 016 0v14a3 3 0 11-6 0zm-48 0V48a3 3 0 016 0v14a3 3 0 11-6 0zM0 62V48a3 3 0 016 0v14a3 3 0 11-6 0z"/></svg>