<svg xmlns="http://www.w3.org/2000/svg" width="128.001" height="110.001"><defs/><path d="M62.95 109.245l-31.7-31.664a3.059 3.059 0 00-2.057-.792H2.949a3.044 3.044 0 01-2.945-3.04v-37.5a3.046 3.046 0 013.045-3.042h26.252a3.06 3.06 0 001.872-.724L62.828.869a3.045 3.045 0 015.173 2.176v103.912a3.043 3.043 0 01-5.051 2.287zm-3.214-11.177a1.323 1.323 0 00.929.364 1.182 1.182 0 001.246-1.1V12.669a1.182 1.182 0 00-1.248-1.1 1.37 1.37 0 00-.8.251L33.382 38.977a1.344 1.344 0 01-.722.241H7.336a1.194 1.194 0 00-1.25 1.048v29.428a1.182 1.182 0 001.25 1.1h25.319a1.305 1.305 0 01.9.4zm40.794 3.821a2.993 2.993 0 01.915-2.155 58.011 58.011 0 000-88.6 3 3 0 114.24-4.241 56.32 56.32 0 013.571 3.286 63.944 63.944 0 010 90.509 55.997 55.997 0 01-3.567 3.286 3 3 0 01-5.158-2.088zM86.577 87.141a2.981 2.981 0 01.71-1.938 38.2 38.2 0 00-.016-60.266A3 3 0 0191.5 20.71a44.243 44.243 0 0113.04 17.226 43.971 43.971 0 01-9.428 48.241 44.87 44.87 0 01-3.384 3.054 3 3 0 01-5.153-2.09zM72.218 72.486a2.857 2.857 0 01.834-1.865C78.152 66.356 82 61.213 82 54.736s-3.992-11.943-8.928-15.9a2.847 2.847 0 01-.822-1.831 3 3 0 014.93-2.3 22.171 22.171 0 013.791 3.061 24 24 0 010 33.942 26.3 26.3 0 01-3.8 3.241 3.869 3.869 0 01-1.956.537 3 3 0 01-2.998-3z"/></svg>