<svg xmlns="http://www.w3.org/2000/svg" width="87.998" height="109.999"><defs/><path d="M62.948 109.243l-31.7-31.663a3.06 3.06 0 00-2.059-.792H2.946a3.044 3.044 0 01-2.944-3.04v-37.5a3.046 3.046 0 013.044-3.042H29.3a3.054 3.054 0 001.872-.723L62.826.87A3.047 3.047 0 0168 3.042v103.915a3.045 3.045 0 01-5.053 2.287zm-3.214-11.176a1.332 1.332 0 00.929.363 1.182 1.182 0 001.246-1.1V12.667a1.182 1.182 0 00-1.248-1.1 1.358 1.358 0 00-.8.252L33.38 38.975a1.349 1.349 0 01-.721.241H7.334a1.194 1.194 0 00-1.25 1.048v29.428a1.183 1.183 0 001.25 1.1h25.318a1.314 1.314 0 01.9.4zm12.483-25.582a2.864 2.864 0 01.833-1.865c5.1-4.265 8.949-9.41 8.949-15.886s-3.992-11.942-8.928-15.9a2.856 2.856 0 01-.823-1.833 3 3 0 014.93-2.3 22.317 22.317 0 013.791 3.06 24 24 0 010 33.943 26.478 26.478 0 01-3.8 3.241 3.862 3.862 0 01-1.957.537 3 3 0 01-2.996-2.996z"/></svg>