<svg xmlns="http://www.w3.org/2000/svg" width="127.675" height="110.001"><defs/><path d="M62.949 109.244l-31.7-31.662a3.056 3.056 0 00-2.06-.793H2.947a3.043 3.043 0 01-2.945-3.04v-37.5a3.046 3.046 0 013.045-3.042H29.3a3.06 3.06 0 001.872-.724L62.827.869A3.045 3.045 0 0168 3.045v103.914a3.043 3.043 0 01-5.051 2.286zm-3.214-11.177a1.323 1.323 0 00.929.364 1.182 1.182 0 001.246-1.1V12.669a1.182 1.182 0 00-1.248-1.1 1.37 1.37 0 00-.8.251L33.381 38.977a1.343 1.343 0 01-.722.241H7.335a1.194 1.194 0 00-1.25 1.048v29.427a1.182 1.182 0 001.25 1.1h25.318a1.315 1.315 0 01.9.4zm13.319-16.449a3 3 0 010-4.241l22.628-22.628-22.628-22.628a3 3 0 014.244-4.241l22.628 22.626 22.626-22.626a3 3 0 014.243 4.243l-22.626 22.626 22.626 22.628a3 3 0 01-4.243 4.241L99.926 58.992 77.3 81.619a3 3 0 01-4.244 0z"/></svg>