<svg xmlns="http://www.w3.org/2000/svg" width="107.999" height="110.001"><defs/><path d="M62.949 109.246l-31.7-31.664a3.06 3.06 0 00-2.059-.791H2.947a3.044 3.044 0 01-2.944-3.04v-37.5a3.047 3.047 0 013.043-3.042H29.3a3.056 3.056 0 001.872-.722L62.827.871A3.045 3.045 0 0168 3.044v103.915a3.044 3.044 0 01-5.051 2.286zm-3.216-11.177a1.334 1.334 0 00.93.364 1.183 1.183 0 001.248-1.1V12.669a1.184 1.184 0 00-1.25-1.1 1.373 1.373 0 00-.8.252L33.38 38.978a1.343 1.343 0 01-.722.24H7.334a1.194 1.194 0 00-1.25 1.049v29.427a1.182 1.182 0 001.25 1.1h25.318a1.3 1.3 0 01.9.4zm26.842-11a2.985 2.985 0 01.709-1.938 38.2 38.2 0 00-.016-60.267 3 3 0 014.229-4.226 44.4 44.4 0 013.613 3.239 43.967 43.967 0 010 62.227 45.082 45.082 0 01-3.385 3.056 3 3 0 01-5.152-2.091zM72.217 72.741a2.862 2.862 0 01.833-1.865c5.1-4.265 8.948-9.408 8.948-15.885s-3.991-11.944-8.929-15.9a2.859 2.859 0 01-.823-1.833 3 3 0 014.932-2.3 22.325 22.325 0 013.791 3.061 24.006 24.006 0 010 33.943 26.608 26.608 0 01-3.8 3.241 3.871 3.871 0 01-1.958.537 3 3 0 01-2.994-2.997z"/></svg>