<svg xmlns="http://www.w3.org/2000/svg" width="68" height="110"><defs/><path d="M62.948 109.244l-31.7-31.662a3.057 3.057 0 00-2.058-.792H2.948a3.044 3.044 0 01-2.945-3.04v-37.5a3.047 3.047 0 013.044-3.042H29.3a3.056 3.056 0 001.872-.723L62.827.87A3.046 3.046 0 0168 3.043v103.914a3.044 3.044 0 01-5.052 2.286zm-3.215-11.176a1.33 1.33 0 00.929.364 1.183 1.183 0 001.247-1.1V12.668a1.184 1.184 0 00-1.249-1.1 1.363 1.363 0 00-.8.253L33.38 38.977a1.35 1.35 0 01-.722.24H7.333a1.194 1.194 0 00-1.249 1.048v29.428a1.182 1.182 0 001.249 1.1h25.318a1.307 1.307 0 01.9.4z"/></svg>