<svg xmlns="http://www.w3.org/2000/svg" width="90" height="128.001"><defs/><path d="M6 128.001a6.006 6.006 0 01-6-6v-116a6.006 6.006 0 016-6h78a6.008 6.008 0 016 6v116a6.008 6.008 0 01-6 6zm0-119v110a3 3 0 003 3h72a3 3 0 003-3v-110a3 3 0 00-3-3H9a3 3 0 00-3 3zm66 104a3 3 0 113 3 3 3 0 01-3-3zm-60 0a3 3 0 113 3 3 3 0 01-3-3zm14-19a6.007 6.007 0 01-6-6v-48a6.007 6.007 0 016-6h38a6.008 6.008 0 016 6v48a6.008 6.008 0 01-6 6zm0-51v42a3 3 0 003 3h32a3 3 0 003-3v-42a3 3 0 00-3-3H29a3 3 0 00-3 3zm46-28a3 3 0 113 3 3 3 0 01-3-3zm-43 3a6.006 6.006 0 01-6-6v-6h6v3a3 3 0 003 3h26a3 3 0 003-3v-3h6v6a6.006 6.006 0 01-6 6zm-17-3a3 3 0 113 3 3 3 0 01-3-3z"/></svg>