<svg xmlns="http://www.w3.org/2000/svg" xmlns:xlink="http://www.w3.org/1999/xlink" width="146" height="146" viewBox="0 0 146 146">
  <defs>
    <filter id="Rechteck_53" x="0" y="0" width="146" height="146" filterUnits="userSpaceOnUse">
      <feOffset dy="3" input="SourceAlpha"/>
      <feGaussianBlur stdDeviation="3" result="blur"/>
      <feFlood flood-opacity="0.161"/>
      <feComposite operator="in" in2="blur"/>
      <feComposite in="SourceGraphic"/>
    </filter>
    <filter id="Rechteck_54" x="94.517" y="15" width="30.233" height="116" filterUnits="userSpaceOnUse">
      <feOffset dy="3" input="SourceAlpha"/>
      <feGaussianBlur stdDeviation="3" result="blur-2"/>
      <feFlood flood-opacity="0.161"/>
      <feComposite operator="in" in2="blur-2"/>
      <feComposite in="SourceGraphic"/>
    </filter>
    <filter id="Rechteck_56" x="57.816" y="15" width="30.233" height="116" filterUnits="userSpaceOnUse">
      <feOffset dy="3" input="SourceAlpha"/>
      <feGaussianBlur stdDeviation="3" result="blur-3"/>
      <feFlood flood-opacity="0.161"/>
      <feComposite operator="in" in2="blur-3"/>
      <feComposite in="SourceGraphic"/>
    </filter>
    <filter id="Rechteck_57" x="21.117" y="15" width="30.233" height="116" filterUnits="userSpaceOnUse">
      <feOffset dy="3" input="SourceAlpha"/>
      <feGaussianBlur stdDeviation="3" result="blur-4"/>
      <feFlood flood-opacity="0.161"/>
      <feComposite operator="in" in2="blur-4"/>
      <feComposite in="SourceGraphic"/>
    </filter>
  </defs>
  <g id="ettings-light" transform="translate(-487 -21)">
    <g transform="matrix(1, 0, 0, 1, 487, 21)" filter="url(#Rechteck_53)">
      <rect id="Rechteck_53-2" data-name="Rechteck 53" width="128" height="128" rx="6" transform="translate(9 6)" fill="#d5d6d7"/>
    </g>
    <g id="Gruppe_99" data-name="Gruppe 99">
      <g id="Gruppe_66" data-name="Gruppe 66" transform="translate(584.4 140) rotate(-90)">
        <g transform="matrix(0, 1, -1, 0, 119, -97.4)" filter="url(#Rechteck_54)">
          <rect id="Rechteck_54-2" data-name="Rechteck 54" width="98" height="12.233" rx="2" transform="translate(103.52 119) rotate(-90)" fill="#3f3f3f"/>
        </g>
        <circle id="Ellipse_4" data-name="Ellipse 4" cx="12.286" cy="12.286" r="12.286" transform="translate(9.214)" fill="#4daf30"/>
      </g>
      <g id="Gruppe_67" data-name="Gruppe 67" transform="translate(547.7 140) rotate(-90)">
        <g transform="matrix(0, 1, -1, 0, 119, -60.7)" filter="url(#Rechteck_56)">
          <rect id="Rechteck_56-2" data-name="Rechteck 56" width="98" height="12.233" rx="2" transform="translate(66.82 119) rotate(-90)" fill="#3f3f3f"/>
        </g>
        <circle id="Ellipse_5" data-name="Ellipse 5" cx="12.286" cy="12.286" r="12.286" transform="translate(49.143)" fill="#4daf30"/>
      </g>
      <g id="Gruppe_68" data-name="Gruppe 68" transform="translate(511 140) rotate(-90)">
        <g transform="matrix(0, 1, -1, 0, 119, -24)" filter="url(#Rechteck_57)">
          <rect id="Rechteck_57-2" data-name="Rechteck 57" width="98" height="12.233" rx="2" transform="translate(30.12 119) rotate(-90)" fill="#3f3f3f"/>
        </g>
        <circle id="Ellipse_6" data-name="Ellipse 6" cx="12.286" cy="12.286" r="12.286" transform="translate(24.572)" fill="#4daf30"/>
      </g>
    </g>
  </g>
</svg>
