<svg xmlns="http://www.w3.org/2000/svg" width="128" height="128.001"><defs/><path d="M64 128.001A64 64 0 010 64.418V64a64 64 0 11128 0v.223a64 64 0 01-64 63.778zm31.851-39a78.863 78.863 0 01-1.9 4.972 76.957 76.957 0 01-7.1 13.08 77.57 77.57 0 01-9.4 11.4 76.33 76.33 0 01-2.676 2.551 58.275 58.275 0 0041.56-32zm-84.182 0a58.364 58.364 0 0040.87 31.864c-.7-.652-1.368-1.3-1.985-1.916a77.12 77.12 0 01-16.5-24.476 77.127 77.127 0 01-2.074-5.472zm26.723 0a71.293 71.293 0 0022.609 31.184V89zm28.608 0v30.685A71.343 71.343 0 0089.42 89zm30.641-44a77.74 77.74 0 010 38h21.163a58.076 58.076 0 000-38zm-30.641 0v38h24.391a70.485 70.485 0 000-38zm-30.248 0a70.5 70.5 0 00-.28 38H61v-38H36.751zm-27.556 0a58.091 58.091 0 000 38h21.036a77.769 77.769 0 01.255-38zm65.576-38a78.554 78.554 0 012.676 2.549 77.57 77.57 0 019.4 11.4 76.987 76.987 0 017.1 13.08 75.226 75.226 0 011.9 4.972h20.479A58.273 58.273 0 0074.771 7.004zm-7.771 1.312V39H89.42A71.344 71.344 0 0067 8.316zm-6 .5A71.382 71.382 0 0038.769 39H61zm-7.073-1.939A58.188 58.188 0 0011.669 39h20.653c.525-1.5 1.108-3 1.73-4.471a77.12 77.12 0 0116.5-24.475 77.332 77.332 0 013.375-3.178z"/></svg>