<svg xmlns="http://www.w3.org/2000/svg" width="146" height="146"><defs/><defs><filter id="a" x="0" y="0" width="146" height="146" filterUnits="userSpaceOnUse"><feOffset dy="3"/><feGaussianBlur stdDeviation="3" result="blur"/><feFlood flood-opacity=".161"/><feComposite operator="in" in2="blur"/><feComposite in="SourceGraphic"/></filter></defs><g filter="url(#a)"><rect data-name="bg" width="128" height="128" rx="6" transform="translate(9 6)" fill="#d5d6d7"/></g><path data-name="Pfad 103" d="M73.009 119a3.352 3.352 0 01-1.367-.289 89.807 89.807 0 01-13.2-8.494 69.073 69.073 0 01-9.83-9.339 59.887 59.887 0 01-11.5-20.286C32.428 66.666 32.839 52.54 33.2 40.076v-.18l.014-.5.012-.423v-.044l.018-.559v-.154l.02-.681.01-.355c.026-.91.049-1.7.068-2.5h.02a3.418 3.418 0 013.4-3.418c19.146-.755 30.278-6.947 34.176-9.574h.012a3.4 3.4 0 014.081 0h.009c3.895 2.626 15.021 8.815 34.186 9.574a3.352 3.352 0 012.4 1 3.412 3.412 0 011 2.416h.018c.034 1.741.085 3.554.136 5.254v.168c.365 12.459.779 26.581-3.9 40.5a59.862 59.862 0 01-11.48 20.279 69 69 0 01-9.826 9.336 89.566 89.566 0 01-13.191 8.492 3.367 3.367 0 01-1.374.293zm-33.7-79.028c-.022.917-.049 1.873-.085 3.007 0 .191-.01.4-.018.605v.039l-.011.358-.012.429V44.564c-.307 10.6-.654 22.6 3.326 34.44a50.891 50.891 0 009.775 17.242 58.6 58.6 0 008.356 7.938 76.023 76.023 0 0011.216 7.22 2.842 2.842 0 001.163.247 2.888 2.888 0 001.168-.249 76.173 76.173 0 0011.211-7.22 58.618 58.618 0 008.353-7.935 50.9 50.9 0 009.77-17.24c3.977-11.836 3.625-23.843 3.314-34.437v-.13c-.042-1.454-.086-3-.116-4.468h-.014a2.9 2.9 0 00-.847-2.054 2.849 2.849 0 00-2.04-.85c-16.3-.646-25.749-5.906-29.057-8.138h-.009a2.881 2.881 0 00-3.469 0h-.011c-3.314 2.233-12.781 7.5-29.048 8.138a2.909 2.909 0 00-2.892 2.9h-.016z" fill="#4daf30"/></svg>