<svg xmlns="http://www.w3.org/2000/svg" width="146" height="146"><defs/><defs><filter id="a" x="0" y="0" width="146" height="146" filterUnits="userSpaceOnUse"><feOffset dy="3"/><feGaussianBlur stdDeviation="3" result="blur"/><feFlood flood-opacity=".161"/><feComposite operator="in" in2="blur"/><feComposite in="SourceGraphic"/></filter></defs><g filter="url(#a)"><rect data-name="Rechteck 84" width="128" height="128" rx="6" transform="translate(9 6)" fill="#d5d6d7"/></g><path data-name="Pfad 137" d="M73 118.999a49 49 0 1149-49 49.056 49.056 0 01-49 49zM39.354 96.748a43.412 43.412 0 0022.231 14.714 51.289 51.289 0 01-1.037-1.014 56.43 56.43 0 01-10.1-13.7h-11.1zm56.193 0a56.443 56.443 0 01-10.1 13.7c-.337.337-.677.668-1.039 1.012a43.379 43.379 0 0022.231-14.712h-11.1zm-19.547 0v12.816a49.809 49.809 0 0011.549-12.816zm-17.549 0A49.819 49.819 0 0070 109.564V96.748H58.451zm43.47-23.25a56.039 56.039 0 01-3.657 17.25h12.392a42.478 42.478 0 005.2-17.25H101.92zm-25.92 0v17.25h14.757a49.119 49.119 0 004.237-17.25zm-24.993 0a49.127 49.127 0 004.235 17.25H70V73.499zm-20.867 0a42.484 42.484 0 005.2 17.25h12.392a56.031 56.031 0 01-3.661-17.25zm68.124-23.25a56.035 56.035 0 013.657 17.25h14.007a42.492 42.492 0 00-4.739-17.25H98.265zm-22.264 0v17.251h18.994a49.143 49.143 0 00-4.237-17.25zm-20.758 0a49.181 49.181 0 00-4.235 17.249H70V50.248H55.243zm-20.433 0a42.49 42.49 0 00-4.74 17.251h14.007a55.969 55.969 0 013.659-17.25H34.81zm48.1-22.1a56.416 56.416 0 012.545 2.395 56.485 56.485 0 0110.1 13.7h11.87a43.143 43.143 0 00-24.519-16.091zM76 31.433v12.814h11.549A49.812 49.812 0 0076 31.433zm-6 0a49.815 49.815 0 00-11.549 12.814H70V31.433zm-6.9-3.282a43.137 43.137 0 00-24.514 16.1h11.868a56.509 56.509 0 0110.1-13.7 60.732 60.732 0 012.548-2.4z" fill="#4daf30"/></svg>