<svg xmlns="http://www.w3.org/2000/svg" width="114" height="146.001"><defs/><defs><filter id="a" x="0" y="0" width="114" height="146.001" filterUnits="userSpaceOnUse"><feOffset dy="3"/><feGaussianBlur stdDeviation="3" result="blur"/><feFlood flood-opacity=".161"/><feComposite operator="in" in2="blur"/><feComposite in="SourceGraphic"/></filter></defs><g filter="url(#a)"><path data-name="Pfad 82" d="M99 134.005H15a6.007 6.007 0 01-6-6v-116a6.007 6.007 0 016-6h43.924L105 52.081v75.924a6.007 6.007 0 01-6 6z" fill="#e0e0e0"/></g><path data-name="Pfad 81" d="M100.086 56H60.008A5.015 5.015 0 0155 50.99V10.914A5.019 5.019 0 0159.027 6L105 51.972A5.019 5.019 0 01100.086 56z" fill="#f1eeee"/><path data-name="Pfad 145" d="M32.072 95.264l11.075 4.517v5.61L24 97.334v-3.8l19.147-8.056v5.572zM62.406 79h5.444l-16.031 32H46.15zM81.93 95.565l-11.077-4.518v-5.572L90 93.532v3.8l-19.147 8.059v-5.61z" fill="#292929"/></svg>