<svg xmlns="http://www.w3.org/2000/svg" width="114" height="146.001"><defs/><defs><filter id="a" x="0" y="0" width="114" height="146.001" filterUnits="userSpaceOnUse"><feOffset dy="3"/><feGaussianBlur stdDeviation="3" result="blur"/><feFlood flood-opacity=".161"/><feComposite operator="in" in2="blur"/><feComposite in="SourceGraphic"/></filter></defs><g filter="url(#a)"><path data-name="Pfad 82" d="M99 134.005H15a6.007 6.007 0 01-6-6v-116a6.007 6.007 0 016-6h43.924L105 52.081v75.924a6.007 6.007 0 01-6 6z" fill="#e0e0e0"/></g><path data-name="Pfad 81" d="M100.086 56H60.008A5.015 5.015 0 0155 50.99V10.914A5.019 5.019 0 0159.027 6L105 51.972A5.019 5.019 0 01100.086 56z" fill="#f1eeee"/><path data-name="Pfad 146" d="M34.999 89.08h3.078V83h5.51v6.08h3.116v4.75h-3.116v12.73h-5.51V93.83h-3.078zm25.346 0h6.384l-6.688 8.512 7.068 8.968h-6.384l-3.648-5.092-3.568 5.092h-6.616l7.182-8.968-6.8-8.512h6.612l3.192 4.6zm6.954 0h3.078V83h5.51v6.08h3.116v4.75h-3.116v12.73h-5.51V93.83h-3.078z" fill="#292929"/></svg>