<svg xmlns="http://www.w3.org/2000/svg" width="146" height="146"><defs/><defs><filter id="a" x="0" y="0" width="146" height="146" filterUnits="userSpaceOnUse"><feOffset dy="3"/><feGaussianBlur stdDeviation="3" result="blur"/><feFlood flood-opacity=".161"/><feComposite operator="in" in2="blur"/><feComposite in="SourceGraphic"/></filter></defs><g filter="url(#a)"><path data-name="Pfad 131" d="M15 6h116a6 6 0 016 6v116a6 6 0 01-6 6H15a6 6 0 01-6-6V12a6 6 0 016-6z" fill="#d5d6d7"/></g><path data-name="Pfad 127" d="M115.936 119H30.027A6.05 6.05 0 0124 112.939v-12.123a6.049 6.049 0 016.027-6.059H44.1V82.546v-.134a.176.176 0 000-.029v-.023a.116.116 0 000-.025v-.103-.014a.213.213 0 010-.039v-.021-.018-.09-.027a.126.126 0 010-.027.093.093 0 010-.023c.01-.107.024-.222.048-.356H29.989A6.051 6.051 0 0124 75.557V63.43a6.049 6.049 0 016.027-6.057H44.1V45.247H30.027A6.052 6.052 0 0124 39.185V27.061A6.051 6.051 0 0130.029 21h85.909A6.068 6.068 0 01122 27.061v85.878a6.036 6.036 0 01-.219 1.617.1.1 0 010 .012c0 .016-.008.031-.013.046l-.014.047v.01a5.986 5.986 0 01-.911 1.832l-.036.048-.031.041-.005.007a6.124 6.124 0 01-1.163 1.162l-.014.011-.035.026a6 6 0 01-2.54 1.1h-.009l-.055.009h-.027l-.036.006-.043.007h-.022l-.058.008a6.089 6.089 0 01-.806.056h-.015zm-11.525-15.258v6.27a3.01 3.01 0 003.014 2.927h5.482a3.034 3.034 0 003.029-3.032v-6.061a3.034 3.034 0 00-2.926-3.03h-5.585a3.009 3.009 0 00-3.014 2.927zm-37.193.1v6.063a3.028 3.028 0 003.018 3.03h25.128a3.026 3.026 0 003.015-3.03v-6.059a3.026 3.026 0 00-3.015-3.03H70.236a3.028 3.028 0 00-3.018 3.03zm-37.19 0v6.063a3.028 3.028 0 003.018 3.03h25.128a3.027 3.027 0 003.014-3.03v-6.059a3.027 3.027 0 00-3.014-3.03H33.046a3.028 3.028 0 00-3.019 3.03zm57.3-18.183v6.061a3.027 3.027 0 003.016 3.03h22.569a3.033 3.033 0 003.029-3.03v-6.06a3.033 3.033 0 00-3.029-3.03H90.346a3.029 3.029 0 00-3.023 3.034zm-37.189 0v6.061a3.025 3.025 0 003.013 3.03h25.13a3.027 3.027 0 003.017-3.03v-6.056a3.029 3.029 0 00-3.017-3.034h-25.13a3.027 3.027 0 00-3.018 3.034zm54.277-19.3v6.268a3.01 3.01 0 003.014 2.927h5.583a3.035 3.035 0 002.928-3.03v-6.06a3.035 3.035 0 00-2.883-3.029h-5.777a3.01 3.01 0 00-2.87 2.926zm-37.087-.69c0 .011-.005.02-.007.029v.009a.135.135 0 010 .018v.005a.091.091 0 010 .011v.005a.141.141 0 00-.007.03.006.006 0 000 .005.172.172 0 00-.007.03v.007c0 .002 0 .02-.005.03V65.891c0 .009 0 .02-.005.029a.013.013 0 010 .007V65.956a.023.023 0 000 .009c0 .011 0 .02-.005.029V66l-.005.027a.021.021 0 010 .011v.062a.042.042 0 000 .013v.025a.036.036 0 010 .014v.022a.054.054 0 010 .014v.012a.108.108 0 000 .025.021.021 0 000 .011v.009a.047.047 0 000 .014v.014a.108.108 0 000 .025.037.037 0 010 .013v.03a.018.018 0 000 .009v.05a.028.028 0 010 .013v6.111a3.028 3.028 0 003.018 3.03h25.128a3.026 3.026 0 003.015-3.03v-6.137a.093.093 0 010-.023v-.032a.08.08 0 010-.021V66.3a.124.124 0 010-.023v-.007a.01.01 0 010-.007.124.124 0 000-.023v-.016a.087.087 0 010-.023.021.021 0 010-.011.06.06 0 000-.016v-.018-.014a.041.041 0 000-.014v-.018a.16.16 0 010-.029v-.005-.005-.013a.06.06 0 000-.016.017.017 0 000-.011v-.013a.036.036 0 000-.014V66a.006.006 0 010-.005c0-.011 0-.018-.005-.027v-.04a.006.006 0 010-.005l-.005-.027a.015.015 0 000-.009v-.035c0-.011 0-.02-.005-.029s0-.005 0-.007a.141.141 0 00-.007-.03v-.005a.153.153 0 01-.007-.032c0-.014-.007-.025-.011-.036a3.022 3.022 0 00-2.92-2.278H70.361a3.026 3.026 0 00-3.038 2.236zm-37.3.793v6.061a3.028 3.028 0 003.018 3.03h25.128a3.027 3.027 0 003.014-3.03v-6.159a.036.036 0 010-.014v-.018a.106.106 0 010-.021v-.027a.021.021 0 010-.011v-.014a.047.047 0 010-.014v-.025a.021.021 0 000-.011V66.2a.027.027 0 010-.011v-.014a.023.023 0 010-.013v-.023V66.11a.042.042 0 010-.014v-.014a.006.006 0 000-.005v-.005a.125.125 0 000-.025.028.028 0 000-.014.162.162 0 000-.027.027.027 0 000-.011v-.009-.018a.023.023 0 000-.009.087.087 0 010-.029.013.013 0 010-.007V65.894a.013.013 0 010-.007V65.852a.047.047 0 010-.018v-.014c0-.014 0-.025-.007-.038v-.009a.024.024 0 000-.013v-.014a.25.25 0 01-.007-.025v-.011a3.017 3.017 0 00-2.919-2.278H33.128a3.028 3.028 0 00-3.101 3.032zm57.3-18.186v6.063a3.027 3.027 0 003.016 3.03h22.67a3.033 3.033 0 002.926-3.029v-6.06a3.033 3.033 0 00-3.029-3.03H90.343a3.027 3.027 0 00-3.02 3.028zm-37.189 0v6.063a3.025 3.025 0 003.013 3.03h25.13a3.027 3.027 0 003.017-3.03v-6.061a3.027 3.027 0 00-3.017-3.03h-25.13a3.025 3.025 0 00-3.019 3.03zm54.277-18.288v6.268a3.013 3.013 0 003.016 2.927h5.48a3.033 3.033 0 003.029-3.03v-6.061a3.033 3.033 0 00-3.029-3.03h-5.48a3.014 3.014 0 00-3.022 2.928zm-37.191.1v6.063a3.025 3.025 0 003.016 3.029h25.13a3.025 3.025 0 003.014-3.029v-6.058a3.027 3.027 0 00-3.014-3.032h-25.13a3.027 3.027 0 00-3.022 3.032zm-37.191 0v6.063a3.026 3.026 0 003.016 3.029h25.128a3.025 3.025 0 003.016-3.029v-6.058a3.027 3.027 0 00-3.016-3.032H33.051a3.028 3.028 0 00-3.022 3.032z" fill="#3f3f3f"/><path data-name="Pfad 108" d="M73 94.999a1.646 1.646 0 01-.684-.148 44.821 44.821 0 01-6.6-4.334 34.843 34.843 0 01-4.915-4.765 30.72 30.72 0 01-5.751-10.35c-2.341-7.1-2.137-14.313-1.956-20.672v-.092l.007-.257.006-.216v-.022l.009-.285v-.079l.009-.348v-.181c.014-.464.025-.866.035-1.275h.01a1.726 1.726 0 011.7-1.744c9.574-.385 15.14-3.544 17.088-4.885h.006a1.672 1.672 0 012.041 0c1.948 1.34 7.511 4.5 17.094 4.885a1.656 1.656 0 011.2.511 1.757 1.757 0 01.5 1.232h.009c.017.888.042 1.813.068 2.681v.085c.182 6.357.389 13.562-1.951 20.664a30.694 30.694 0 01-5.747 10.348 34.77 34.77 0 01-4.913 4.763 44.7 44.7 0 01-6.6 4.333 1.655 1.655 0 01-.665.151z" fill="#4daf30"/></svg>