<svg xmlns="http://www.w3.org/2000/svg" width="146" height="146"><defs/><defs><filter id="a" x="0" y="0" width="146" height="146" filterUnits="userSpaceOnUse"><feOffset dy="3"/><feGaussianBlur stdDeviation="3" result="blur"/><feFlood flood-opacity=".161"/><feComposite operator="in" in2="blur"/><feComposite in="SourceGraphic"/></filter></defs><g filter="url(#a)"><rect data-name="Rechteck 77" width="128" height="128" rx="6" transform="translate(9 6)" fill="#4f4f4f"/></g><g data-name="Gruppe 103" fill="#4daf30"><path data-name="Pfad 106" d="M98.096 55H47.904a1.888 1.888 0 01-1.741-1.062 1.653 1.653 0 01.235-1.793l25.1-30.453A1.936 1.936 0 0173.004 21a1.935 1.935 0 011.505.692l25.1 30.453a1.655 1.655 0 01.234 1.794A1.888 1.888 0 0198.096 55z"/><path data-name="Pfad 107" d="M72.996 119a1.821 1.821 0 01-1.674-1.059L46.163 63.555a1.776 1.776 0 01.116-1.708 1.838 1.838 0 011.558-.846h50.318a1.838 1.838 0 011.558.846 1.776 1.776 0 01.116 1.708l-25.156 54.386A1.819 1.819 0 0172.996 119zM53.041 65a1.456 1.456 0 00-1.234.671 1.409 1.409 0 00-.093 1.355l19.954 43.135a1.445 1.445 0 001.328.84 1.444 1.444 0 001.327-.84l19.955-43.135a1.406 1.406 0 00-.093-1.354A1.457 1.457 0 0092.95 65z"/></g></svg>