<svg xmlns="http://www.w3.org/2000/svg" width="146" height="146"><defs/><defs><filter id="a" x="0" y="0" width="146" height="146" filterUnits="userSpaceOnUse"><feOffset dy="3"/><feGaussianBlur stdDeviation="3" result="blur"/><feFlood flood-opacity=".161"/><feComposite operator="in" in2="blur"/><feComposite in="SourceGraphic"/></filter><filter id="b" x="94.517" y="15" width="30.233" height="116" filterUnits="userSpaceOnUse"><feOffset dy="3"/><feGaussianBlur stdDeviation="3" result="blur-2"/><feFlood flood-opacity=".161"/><feComposite operator="in" in2="blur-2"/><feComposite in="SourceGraphic"/></filter><filter id="c" x="57.816" y="15" width="30.233" height="116" filterUnits="userSpaceOnUse"><feOffset dy="3"/><feGaussianBlur stdDeviation="3" result="blur-3"/><feFlood flood-opacity=".161"/><feComposite operator="in" in2="blur-3"/><feComposite in="SourceGraphic"/></filter><filter id="d" x="21.117" y="15" width="30.233" height="116" filterUnits="userSpaceOnUse"><feOffset dy="3"/><feGaussianBlur stdDeviation="3" result="blur-4"/><feFlood flood-opacity=".161"/><feComposite operator="in" in2="blur-4"/><feComposite in="SourceGraphic"/></filter></defs><g filter="url(#a)"><rect data-name="Rechteck 53" width="128" height="128" rx="6" transform="translate(9 6)" fill="#d5d6d7"/></g><g data-name="Gruppe 99"><g data-name="Gruppe 66" transform="rotate(-90 108.2 10.8)"><g transform="rotate(90 108.2 10.8)" filter="url(#b)"><rect data-name="Rechteck 54" width="98" height="12.233" rx="2" transform="rotate(-90 111.26 7.74)" fill="#3f3f3f"/></g><circle data-name="Ellipse 4" cx="12.286" cy="12.286" r="12.286" transform="translate(9.214)" fill="#4daf30"/></g><g data-name="Gruppe 67" transform="rotate(-90 89.85 29.15)"><g transform="rotate(90 89.85 29.15)" filter="url(#c)"><rect data-name="Rechteck 56" width="98" height="12.233" rx="2" transform="rotate(-90 92.91 26.09)" fill="#3f3f3f"/></g><circle data-name="Ellipse 5" cx="12.286" cy="12.286" r="12.286" transform="translate(49.143)" fill="#4daf30"/></g><g data-name="Gruppe 68" transform="rotate(-90 71.5 47.5)"><g transform="rotate(90 71.5 47.5)" filter="url(#d)"><rect data-name="Rechteck 57" width="98" height="12.233" rx="2" transform="rotate(-90 74.56 44.44)" fill="#3f3f3f"/></g><circle data-name="Ellipse 6" cx="12.286" cy="12.286" r="12.286" transform="translate(24.572)" fill="#4daf30"/></g></g></svg>