<svg xmlns="http://www.w3.org/2000/svg" width="146" height="146"><defs/><defs><filter id="a" x="0" y="0" width="146" height="146" filterUnits="userSpaceOnUse"><feOffset dy="3"/><feGaussianBlur stdDeviation="3" result="blur"/><feFlood flood-opacity=".161"/><feComposite operator="in" in2="blur"/><feComposite in="SourceGraphic"/></filter></defs><g filter="url(#a)"><rect data-name="Rechteck 74" width="128" height="128" rx="6" transform="translate(9 6)" fill="#4f4f4f"/></g><g data-name="Gruppe 83"><g data-name="Gruppe 82" fill="#4daf30" stroke="#4daf30"><path data-name="Pfad 59" d="M55.262 97.404a10.3 10.3 0 1010.231 10.3 10.265 10.265 0 00-10.231-10.3zm0 16.019a5.721 5.721 0 115.684-5.721 5.7 5.7 0 01-5.684 5.721z"/><path data-name="Pfad 60" d="M98.46 97.404a10.3 10.3 0 1010.231 10.3 10.265 10.265 0 00-10.231-10.3zm0 16.019a5.721 5.721 0 115.684-5.721 5.7 5.7 0 01-5.684 5.721z"/><path data-name="Pfad 61" d="M121.536 37.333a2.836 2.836 0 00-1.819-.915l-74-1.03-2.046-6.293A10.465 10.465 0 0033.89 22h-7.616a2.288 2.288 0 000 4.577h7.616a5.916 5.916 0 015.457 4l14.437 43.828-1.137 2.632a11.046 11.046 0 001.023 9.955 10.557 10.557 0 008.53 4.805h44.217a2.288 2.288 0 000-4.577H62.2a5.79 5.79 0 01-4.778-2.748 6.329 6.329 0 01-.568-5.492l.91-2.06 47.859-5.035a12.533 12.533 0 0010.8-9.612l5.457-23a1.955 1.955 0 00-.344-1.94zm-9.549 23.914a7.746 7.746 0 01-6.934 6.064l-47.29 4.92-10.572-32.267 69.685 1.03z"/></g></g></svg>