<svg xmlns="http://www.w3.org/2000/svg" width="146" height="146"><defs/><defs><filter id="a" x="0" y="0" width="146" height="146" filterUnits="userSpaceOnUse"><feOffset dy="3"/><feGaussianBlur stdDeviation="3" result="blur"/><feFlood flood-opacity=".161"/><feComposite operator="in" in2="blur"/><feComposite in="SourceGraphic"/></filter></defs><g filter="url(#a)"><rect data-name="Rechteck 58" width="128" height="128" rx="6" transform="translate(9 6)" fill="#4f4f4f"/></g><path data-name="Pfad 149" d="M40.319 33.874a12.66 12.66 0 00-2.255-3.116 4.552 4.552 0 00-3.362-1.312 4.446 4.446 0 00-3.116.923 3.237 3.237 0 00-.984 2.48 3.124 3.124 0 00.922 2.337 7.749 7.749 0 002.419 1.538q1.5.635 3.26 1.292a18.25 18.25 0 013.362 1.661 8.993 8.993 0 012.788 2.727 7.525 7.525 0 011.106 4.221 7.853 7.853 0 01-2.05 5.613 9.246 9.246 0 01-5.863 2.628l.082 4.264h-3.854l.082-4.346a11.112 11.112 0 01-5.351-2.6 13.082 13.082 0 01-3.506-4.9l3.731-2.419a14.8 14.8 0 003.1 4.346 5.991 5.991 0 004.2 1.558 4.523 4.523 0 003.28-1.045 3.863 3.863 0 001.066-2.891 3.69 3.69 0 00-.9-2.563 7.375 7.375 0 00-2.378-1.7q-1.476-.7-3.116-1.312a20.885 20.885 0 01-2.357-1 11.23 11.23 0 01-2.44-1.64 8.083 8.083 0 01-1.886-2.46 7.577 7.577 0 01-.738-3.465 6.2 6.2 0 01.923-3.28 7.491 7.491 0 012.583-2.522 10.26 10.26 0 013.792-1.332l-.082-4.551h3.854L36.59 25.6a9.055 9.055 0 014.777 2.275 12.369 12.369 0 012.723 3.663zm18.572 26.445v-2.911h21.033v2.911z" fill="#4daf30"/></svg>