<svg xmlns="http://www.w3.org/2000/svg" width="146" height="146"><defs/><defs><filter id="a" x="0" y="0" width="146" height="146" filterUnits="userSpaceOnUse"><feOffset dy="3"/><feGaussianBlur stdDeviation="3" result="blur"/><feFlood flood-opacity=".161"/><feComposite operator="in" in2="blur"/><feComposite in="SourceGraphic"/></filter></defs><g filter="url(#a)"><rect data-name="Rechteck 65" width="128" height="128" rx="6" transform="translate(9 6)" fill="#4f4f4f"/></g><path data-name="Pfad 43" d="M60.809 57.361v-5.647h25.283v5.647h-9.585v30.62h-6.113v-30.62z" fill="#c2c2c2"/><path data-name="Pfad 42" d="M100.56 119a6.126 6.126 0 01-6.124-6.12v-3.06H51.559v3.06a6.13 6.13 0 01-6.124 6.12H30.12a6.126 6.126 0 01-6.12-6.12V97.565a6.13 6.13 0 016.12-6.125h3.065V48.565H30.12a6.13 6.13 0 01-6.121-6.125V27.125A6.13 6.13 0 0130.119 21h15.315a6.134 6.134 0 016.124 6.125v3.065h42.877v-3.065A6.131 6.131 0 01100.56 21h15.311a6.136 6.136 0 016.128 6.125V42.44a6.136 6.136 0 01-6.129 6.125h-3.056V91.44h3.056a6.136 6.136 0 016.129 6.125v15.315a6.131 6.131 0 01-6.129 6.12zm0-18.375v9.19a3.069 3.069 0 003.066 3.065h9.186a3.064 3.064 0 003.06-3.065v-9.19a3.063 3.063 0 00-3.06-3.06h-9.186a3.068 3.068 0 00-3.066 3.06zm-70.439 0v9.19a3.068 3.068 0 003.065 3.065h9.184a3.069 3.069 0 003.066-3.065v-9.19a3.068 3.068 0 00-3.066-3.06h-9.184a3.067 3.067 0 00-3.066 3.06zm64.316 3.071v-6.13a6.131 6.131 0 016.124-6.125h6.12V48.565h-6.12a6.131 6.131 0 01-6.124-6.125v-6.125H51.559v6.125a6.134 6.134 0 01-6.124 6.125h-6.124V91.44h6.124a6.134 6.134 0 016.124 6.125v6.135zm18.375-61.256a3.064 3.064 0 003.06-3.065V30.19a3.064 3.064 0 00-3.06-3.065h-9.186a3.069 3.069 0 00-3.066 3.065v6.12l.012.005h-.012v3.06a3.069 3.069 0 003.066 3.065h9.186zm-70.442 0a3.069 3.069 0 003.066-3.065V30.19a3.069 3.069 0 00-3.066-3.065h-9.184a3.068 3.068 0 00-3.065 3.065v9.185a3.068 3.068 0 003.065 3.065h9.184z" fill="#4daf30"/></svg>