<svg xmlns="http://www.w3.org/2000/svg" width="146" height="146"><defs/><defs><filter id="a" x="0" y="0" width="146" height="146" filterUnits="userSpaceOnUse"><feOffset dy="3"/><feGaussianBlur stdDeviation="3" result="blur"/><feFlood flood-opacity=".161"/><feComposite operator="in" in2="blur"/><feComposite in="SourceGraphic"/></filter></defs><g filter="url(#a)"><rect data-name="Rechteck 80" width="128" height="128" rx="6" transform="translate(9 6)" fill="#d5d6d7"/></g><path data-name="Pfad 92" d="M45.499 115a6.006 6.006 0 01-6-6V50a3 3 0 116 0v56a3 3 0 003 3h50a3 3 0 003-3V50a3 3 0 116 0v59a6.006 6.006 0 01-6 6zm36-19V60a3 3 0 016 0v36a3 3 0 01-6 0zm-22 0V60a3 3 0 116 0v36a3 3 0 11-6 0zm-28-59a3 3 0 110-6h27a6 6 0 016-6h18a6 6 0 016 6h26a3 3 0 110 6z" fill="#4daf30"/></svg>