<svg xmlns="http://www.w3.org/2000/svg" width="146" height="146"><defs/><defs><filter id="a" x="0" y="0" width="146" height="146" filterUnits="userSpaceOnUse"><feOffset dy="3"/><feGaussianBlur stdDeviation="3" result="blur"/><feFlood flood-opacity=".161"/><feComposite operator="in" in2="blur"/><feComposite in="SourceGraphic"/></filter></defs><g filter="url(#a)"><rect data-name="Rechteck 66" width="128" height="128" rx="6" transform="translate(9 6)" fill="#4f4f4f"/></g><g data-name="Gruppe 75"><path data-name="Pfad 45" d="M115.876 119H30.124A6.13 6.13 0 0124 112.875v-85.75A6.13 6.13 0 0130.124 21h85.752a6.131 6.131 0 016.123 6.125v85.75a6.131 6.131 0 01-6.123 6.125zM33.189 27.125a3.069 3.069 0 00-3.066 3.065v79.625a3.067 3.067 0 003.066 3.06h79.627a3.064 3.064 0 003.06-3.06V30.19a3.067 3.067 0 00-3.06-3.065z" fill="#4daf30"/><g data-name="Gruppe 74" transform="translate(45 42)" fill="#c2c2c2"><path data-name="Pfad 87" d="M17.1 53.8A28.089 28.089 0 1128 56a27.9 27.9 0 01-10.9-2.2zM29 44a2 2 0 012 2v3.8a21.894 21.894 0 0010.2-4.2l-2.95-2.95a2.042 2.042 0 010-2.888l1.512-1.512a2.042 2.042 0 012.888 0l2.95 2.95a21.891 21.891 0 004.185-10.082h-4.226a2 2 0 01-2-2v-2.23a2 2 0 012-2h4.222A21.894 21.894 0 0045.6 14.807l-2.949 2.949a2.041 2.041 0 01-2.887 0l-1.513-1.513a2.041 2.041 0 010-2.887l2.949-2.95A21.9 21.9 0 0031 6.2V10a2 2 0 01-2 2h-2a2 2 0 01-2-2V6.2a21.891 21.891 0 00-10.191 4.2l2.952 2.952a2.041 2.041 0 010 2.887l-1.513 1.513a2.041 2.041 0 01-2.887 0L10.408 14.8A21.9 21.9 0 006.22 24.887h4.227a2 2 0 012 2v2.223a2 2 0 01-2 2H6.219a21.891 21.891 0 004.187 10.085l2.953-2.953a2.041 2.041 0 012.887 0l1.513 1.512a2.044 2.044 0 010 2.888l-2.953 2.952A21.886 21.886 0 0025 49.8V46a2 2 0 012-2z"/><circle data-name="Ellipse 11" cx="9.288" cy="9.288" r="9.288" transform="translate(18.993 18.67)"/></g></g></svg>