<svg xmlns="http://www.w3.org/2000/svg" width="146" height="146"><defs/><defs><filter id="a" x="0" y="0" width="146" height="146" filterUnits="userSpaceOnUse"><feOffset dy="3"/><feGaussianBlur stdDeviation="3" result="blur"/><feFlood flood-opacity=".161"/><feComposite operator="in" in2="blur"/><feComposite in="SourceGraphic"/></filter></defs><g filter="url(#a)"><rect data-name="Rechteck 66" width="128" height="128" rx="6" transform="translate(9 6)" fill="#d5d6d7"/></g><g data-name="Gruppe 75"><path data-name="Pfad 45" d="M115.664 118.759H30.332a6.1 6.1 0 01-6.094-6.1V27.332a6.1 6.1 0 016.094-6.1h85.332a6.1 6.1 0 016.094 6.1v85.332a6.1 6.1 0 01-6.094 6.095zM33.383 27.332a3.054 3.054 0 00-3.051 3.05v79.237a3.052 3.052 0 003.051 3.045h79.236a3.049 3.049 0 003.045-3.045V30.382a3.052 3.052 0 00-3.045-3.05z" fill="#4daf30"/><g data-name="Gruppe 74" transform="translate(45.573 42.571)" fill="#4f4f4f"><path data-name="Vereinigungsmenge 4" d="M0 27.422a27.428 27.428 0 1127.43 27.431A27.459 27.459 0 010 27.422zm28.478 15.24a2 2 0 012 2v3.881A21.219 21.219 0 0040.2 44.5l-2.736-2.736a2 2 0 010-2.829l1.481-1.481a2 2 0 012.829 0l2.735 2.736a21.234 21.234 0 004.035-9.722h-3.877a2 2 0 01-2-2v-2.1a2 2 0 012-2h3.876a21.226 21.226 0 00-4.036-9.722l-2.734 2.744a2 2 0 01-2.829 0l-1.481-1.482a2 2 0 010-2.828l2.737-2.735a21.225 21.225 0 00-9.722-4.036v3.877a2 2 0 01-2 2h-2.1a2 2 0 01-2-2V6.308a21.236 21.236 0 00-9.721 4.035L17.4 13.08a2 2 0 010 2.829l-1.486 1.481a2 2 0 01-2.829 0l-2.737-2.737a21.218 21.218 0 00-4.039 9.724h3.882a2 2 0 012 2v2.1a2 2 0 01-2 2H6.309a21.225 21.225 0 004.038 9.723l2.737-2.736a2 2 0 012.829 0l1.481 1.481a2 2 0 010 2.829L14.657 44.5a21.229 21.229 0 009.724 4.038v-3.88a2 2 0 012-2z"/><circle data-name="Ellipse 11" cx="9.143" cy="9.143" r="9.143" transform="translate(18.603 18.286)"/></g></g></svg>