<svg xmlns="http://www.w3.org/2000/svg" width="128.001" height="128.001"><defs/><path d="M39.087 122.974a64.1 64.1 0 01-36.082-78.42l.027.007a3 3 0 115.819 1.375l.028.005a58.14 58.14 0 108.9-16.939H35a3 3 0 110 6H11a3 3 0 01-3-3V7.999a3 3 0 016 0v16.045a64.666 64.666 0 014.744-5.3 63.978 63.978 0 1120.342 104.227zM61 112.999v-14a3 3 0 016 0v14a3 3 0 11-6 0zm-1.44-32.577a10.265 10.265 0 01-3.4-2.829A13.465 13.465 0 0154 73.547a14.451 14.451 0 01-.76-4.646 25 25 0 01.344-3.771 25.445 25.445 0 011.219-4.646 21.108 21.108 0 012.438-4.739 17.792 17.792 0 013.979-4.14 17.188 17.188 0 015.912-2.806 4.407 4.407 0 011.058-.137 3.435 3.435 0 011.909.551 2.233 2.233 0 01.851 2.025 2.6 2.6 0 01-.667 1.77 3.639 3.639 0 01-1.771 1.08 14 14 0 00-3.105 1.359 14.391 14.391 0 00-2.853 2.184 13.678 13.678 0 00-2.253 2.92 12.122 12.122 0 00-.759 1.565 9.443 9.443 0 012.047-1.335 7.179 7.179 0 013.2-.667 8.332 8.332 0 013.564.829 11.389 11.389 0 015.545 5.68 10.113 10.113 0 01.874 4.163 10.338 10.338 0 01-1.45 5.382 10.841 10.841 0 01-3.863 3.863 10.441 10.441 0 01-5.406 1.426 9.62 9.62 0 01-4.492-1.031zm1.84-14.514a5.326 5.326 0 00-1.861 2 6.286 6.286 0 000 5.727 5.284 5.284 0 001.861 2.024 5.121 5.121 0 005.292 0 5.292 5.292 0 001.863-2.024 6.286 6.286 0 000-5.727 5.333 5.333 0 00-1.863-2 5.121 5.121 0 00-5.292 0zM99 66.999a3 3 0 010-6h14a3 3 0 010 6zm-84 0a3 3 0 010-6h14a3 3 0 110 6zm46-38v-14a3 3 0 116 0v14a3 3 0 01-6 0z"/></svg>