<svg xmlns="http://www.w3.org/2000/svg" width="128.001" height="128.001"><defs/><path d="M39.087 122.973a64.1 64.1 0 01-36.082-78.42l.027.007a3 3 0 115.819 1.375l.028.005a58.14 58.14 0 108.9-16.939H35a3 3 0 110 6H11a3 3 0 01-3-3V8a3 3 0 016 0v16.043a64.666 64.666 0 014.744-5.3A63.978 63.978 0 1139.086 122.97zM61 113V99a3 3 0 016 0v14a3 3 0 11-6 0zm18.685-32.807a2.758 2.758 0 01-.781-2v-5.934H66.943a2.811 2.811 0 01-1.861-.781 2.464 2.464 0 01-.9-1.933 2.808 2.808 0 01.69-1.84l14.538-17.8a2.6 2.6 0 01.965-.8 2.94 2.94 0 011.335-.3 2.565 2.565 0 011.954.8 2.807 2.807 0 01.76 2V67.2h1.933a2.516 2.516 0 012.574 2.576 2.357 2.357 0 01-.736 1.77 2.533 2.533 0 01-1.838.713h-1.933v5.935A2.754 2.754 0 0181.618 81a2.59 2.59 0 01-1.932-.805zm-.781-13V58l-7.429 9.2zM40.448 81a2.463 2.463 0 01-1.886-.736 2.647 2.647 0 01-.69-1.886 2.852 2.852 0 01.829-2.024l10.027-10.719a18.371 18.371 0 002.669-3.657 7.348 7.348 0 001.011-3.473 4.912 4.912 0 00-.69-2.576 5.419 5.419 0 00-1.793-1.84 4.429 4.429 0 00-2.391-.69 4.978 4.978 0 00-2.715.9 9.139 9.139 0 00-2.437 2.369 2.459 2.459 0 01-1.1.92 3.206 3.206 0 01-1.011.184 2.738 2.738 0 01-1.863-.76 2.31 2.31 0 01-.853-1.77 2.578 2.578 0 01.53-1.517 12.376 12.376 0 011.312-1.519 13.886 13.886 0 014.047-2.806 10.574 10.574 0 014.416-1.057 10.685 10.685 0 015.382 1.287 9.039 9.039 0 013.5 3.543 10.41 10.41 0 011.241 5.106 11.653 11.653 0 01-.713 3.933 18.07 18.07 0 01-1.954 3.887 28.532 28.532 0 01-2.853 3.633l-5.822 6.212h9.456a2.511 2.511 0 012.576 2.574 2.369 2.369 0 01-.734 1.772 2.55 2.55 0 01-1.842.713zM99 67a3 3 0 010-6h14a3 3 0 010 6zm-84 0a3 3 0 010-6h14a3 3 0 110 6zm46-38V15a3 3 0 116 0v14a3 3 0 01-6 0z"/></svg>