<svg xmlns="http://www.w3.org/2000/svg" width="128.002" height="127.999"><defs/><path d="M39.087 122.973A64.1 64.1 0 013.006 44.552l.026.009A3 3 0 019 44.999a3.045 3.045 0 01-.147.932l.029.006a58.141 58.141 0 108.9-16.938H35a3 3 0 110 6H11a3 3 0 01-3-3v-24a3 3 0 016 0v16.045a64.619 64.619 0 014.744-5.3A63.976 63.976 0 1139.087 122.97zM61 112.999v-14a3 3 0 016 0v14a3 3 0 11-6 0zm2.768-32.8a2.691 2.691 0 01-.826-2V56.412l-2.853 1.725a2.8 2.8 0 01-1.471.415 2.512 2.512 0 01-1.979-.9 2.868 2.868 0 01-.782-1.909 2.625 2.625 0 011.426-2.394l6.947-4.138a4.189 4.189 0 011.977-.415 2.565 2.565 0 011.956.806 2.8 2.8 0 01.759 2v26.59a2.645 2.645 0 01-.851 2 3.057 3.057 0 01-2.185.8 2.919 2.919 0 01-2.117-.793zM99 66.999a3 3 0 110-6h14a3 3 0 010 6zm-84 0a3 3 0 110-6h14a3 3 0 110 6zm46-38v-14a3 3 0 116 0v14a3 3 0 01-6 0z"/></svg>