<svg xmlns="http://www.w3.org/2000/svg" width="128.001" height="128.001"><defs/><path d="M39.087 122.974a64.1 64.1 0 01-36.082-78.42l.027.007a3 3 0 115.819 1.375l.028.005a58.14 58.14 0 108.9-16.939H35a3 3 0 110 6H11a3 3 0 01-3-3V7.999a3 3 0 016 0v16.045a64.666 64.666 0 014.744-5.3 63.978 63.978 0 1120.342 104.227zM61 112.999v-14a3 3 0 016 0v14a3 3 0 11-6 0zm4.1-32a2.466 2.466 0 01-1.886-.736 2.647 2.647 0 01-.69-1.886 2.852 2.852 0 01.829-2.024l10.029-10.719a18.23 18.23 0 002.667-3.657 7.347 7.347 0 001.013-3.473 4.912 4.912 0 00-.69-2.576 5.424 5.424 0 00-1.8-1.84 4.419 4.419 0 00-2.391-.69 4.974 4.974 0 00-2.714.9 9.192 9.192 0 00-2.439 2.369 2.457 2.457 0 01-1.1.92 3.222 3.222 0 01-1.013.184 2.743 2.743 0 01-1.863-.758 2.311 2.311 0 01-.851-1.772 2.568 2.568 0 01.53-1.517 12.469 12.469 0 011.31-1.517 13.832 13.832 0 014.049-2.806 10.544 10.544 0 014.415-1.059 10.667 10.667 0 015.382 1.289 9.025 9.025 0 013.5 3.541 10.416 10.416 0 011.243 5.106 11.694 11.694 0 01-.713 3.933 18.081 18.081 0 01-1.956 3.887 28.422 28.422 0 01-2.853 3.635l-5.822 6.21h9.457a2.516 2.516 0 012.577 2.576 2.367 2.367 0 01-.736 1.77 2.536 2.536 0 01-1.84.713zm-13.662-.8a2.685 2.685 0 01-.827-2V56.411l-2.851 1.726a2.819 2.819 0 01-1.473.414 2.517 2.517 0 01-1.979-.9 2.864 2.864 0 01-.781-1.909 2.615 2.615 0 011.426-2.391l6.944-4.142a4.229 4.229 0 011.979-.414 2.563 2.563 0 011.954.806 2.8 2.8 0 01.76 2v26.592a2.647 2.647 0 01-.851 2 3.05 3.05 0 01-2.186.8 2.913 2.913 0 01-2.112-.794zM99 66.999a3 3 0 010-6h14a3 3 0 010 6zm-84 0a3 3 0 010-6h14a3 3 0 110 6zm46-38v-14a3 3 0 116 0v14a3 3 0 01-6 0z"/></svg>