<svg xmlns="http://www.w3.org/2000/svg" width="100%" height="100%" viewBox="0 0 363 363" fill-rule="evenodd" stroke-linecap="round" stroke-linejoin="round" stroke-miterlimit="1.5" xmlns:v="https://vecta.io/nano"><clipPath id="A"><path d="M0 0h362.835v362.835H0z"/></clipPath><g clip-path="url(#A)" stroke="#000" stroke-width=".13"><path d="M250.74 61.68l-.096-.166H112.19L42.965 181.417 112.19 301.32h138.452l69.226-119.903-.063-.1h42.965l.064.1-90.71 157.112H90.71L0 181.417 90.71 24.305h181.417l.096.167L250.74 61.68zM134.692 262.123l.065.112h93.32l46.66-80.818-46.66-80.817h-93.32L88.14 181.492H59.18l-.043-.075 61.14-105.897h122.28l61.14 105.897-61.14 105.898h-122.28l-.064-.112 14.48-25.08z" fill="url(#B)"/><path d="M154.24 207.383l21.285-12.288 8.467-31.597 21.853-12.617a11.05 11.05 0 0 1-.005-5.768c1.586-5.92 7.68-9.438 13.6-7.852s9.438 7.68 7.852 13.6-7.68 9.438-13.6 7.852a11.05 11.05 0 0 1-4.487-2.41L189.468 167.7l-8.48 31.642-.045-.012-23.515 13.576c.413 1.734.413 3.59-.08 5.432-1.586 5.92-7.68 9.438-13.6 7.852s-9.438-7.68-7.852-13.6 7.68-9.438 13.6-7.852a11.04 11.04 0 0 1 4.744 2.646z" fill="url(#B)"/><path d="M170.41 235.387l21.285-12.29 8.467-31.597 21.853-12.617c-.496-1.828-.53-3.807-.005-5.767 1.586-5.92 7.68-9.438 13.6-7.852s9.438 7.68 7.852 13.6-7.68 9.438-13.6 7.852c-1.72-.46-3.238-1.303-4.487-2.41l-19.738 11.397-8.48 31.642-.045-.013-23.515 13.576c.413 1.735.413 3.592-.08 5.432a11.11 11.11 0 0 1-13.6 7.852c-5.92-1.586-9.438-7.68-7.852-13.6s7.68-9.438 13.6-7.852a11.05 11.05 0 0 1 4.744 2.647z" fill="url(#B)"/><path d="M137.718 178.764l21.285-12.288 8.467-31.597 21.853-12.617a11.05 11.05 0 0 1-.005-5.768c1.586-5.92 7.68-9.438 13.6-7.852s9.438 7.68 7.852 13.6-7.68 9.438-13.6 7.852c-1.72-.46-3.238-1.302-4.487-2.4l-19.74 11.396-8.478 31.642-.045-.012-23.515 13.576c.413 1.734.413 3.59-.08 5.432-1.586 5.92-7.68 9.438-13.6 7.852s-9.438-7.68-7.852-13.6 7.68-9.438 13.6-7.852a11.05 11.05 0 0 1 4.744 2.646z" fill="url(#B)"/></g><defs><linearGradient id="B" x1="90.396" y1="24.613" x2="271.392" y2="338.837" gradientUnits="userSpaceOnUse"><stop offset="0" stop-color="#ff6100"/><stop offset="1" stop-color="#4c2812"/></linearGradient></defs></svg>