<svg xmlns="http://www.w3.org/2000/svg" width="100%" height="100%" viewBox="0 0 363 363" fill-rule="evenodd" stroke-linecap="round" stroke-linejoin="round" stroke-miterlimit="1.5" xmlns:v="https://vecta.io/nano"><clipPath id="A"><path d="M0 0h362.835v362.835H0z"/></clipPath><g clip-path="url(#A)" stroke="#000" stroke-width=".13"><path d="M250.74 61.988l-.096-.166H112.19L42.965 181.725l69.226 119.903h138.452l69.226-119.903-.063-.1h42.965l.064.1-90.71 157.112H90.71L0 181.725 90.71 24.613h181.417l.096.166-21.483 37.21zM134.692 262.43l.065.112h93.32l46.66-80.818-46.66-80.818h-93.32L88.14 181.8H59.18l-.043-.075 61.14-105.898h122.28l61.14 105.898-61.14 105.898h-122.28l-.064-.112 14.48-25.08z" fill="url(#B)"/><path d="M187.592 118.175a63.86 63.86 0 0 0-12.35 0l-2.034 9.903a54.23 54.23 0 0 0-11.505 3.083l-6.713-7.56a63.86 63.86 0 0 0-10.695 6.175l3.19 9.593a54.27 54.27 0 0 0-8.422 8.422l-9.593-3.2a63.91 63.91 0 0 0-6.175 10.696l7.56 6.713a54.21 54.21 0 0 0-3.083 11.505l-9.902 2.034a63.7 63.7 0 0 0 0 12.35l9.902 2.034a54.21 54.21 0 0 0 3.083 11.505l-7.56 6.713a63.87 63.87 0 0 0 6.175 10.696l9.593-3.2a54.27 54.27 0 0 0 8.422 8.422l-3.19 9.593a63.86 63.86 0 0 0 10.695 6.175l6.713-7.558c3.7 1.446 7.57 2.48 11.505 3.082l2.034 9.903a63.86 63.86 0 0 0 12.35 0l2.035-9.903a54.3 54.3 0 0 0 11.505-3.082l6.712 7.558a63.83 63.83 0 0 0 10.696-6.175l-3.2-9.593c3.108-2.5 5.933-5.314 8.423-8.422l9.592 3.2c2.4-3.358 4.468-6.94 6.176-10.696l-7.56-6.713a54.33 54.33 0 0 0 3.083-11.505l9.902-2.034a63.86 63.86 0 0 0 0-12.35l-9.902-2.034a54.33 54.33 0 0 0-3.083-11.505l7.56-6.713c-1.708-3.756-3.776-7.338-6.176-10.696l-9.592 3.2c-2.5-3.108-5.315-5.932-8.423-8.422l3.2-9.593a63.83 63.83 0 0 0-10.696-6.175l-6.712 7.56c-3.71-1.447-7.57-2.48-11.505-3.083l-2.035-9.903zm-6.175 50.78a12.78 12.78 0 0 1 12.77 12.77 12.78 12.78 0 0 1-12.77 12.77 12.78 12.78 0 0 1-12.769-12.77 12.78 12.78 0 0 1 12.769-12.77z" fill="url(#B)"/></g><defs><linearGradient id="B" x1="74.724" y1="32.533" x2="269.706" y2="338.53" gradientUnits="userSpaceOnUse"><stop offset="0" stop-color="#45cffc"/><stop offset="1" stop-color="#053140"/></linearGradient></defs></svg>