<svg xmlns="http://www.w3.org/2000/svg" width="128.001" height="127.999"><defs/><path d="M6 128a6.006 6.006 0 01-6-6V34a6.006 6.006 0 016-6h43.829q.567-1.808 1.314-3.571a40.011 40.011 0 1165.141 43.855q-1.1 1.1-2.282 2.114V122a6.008 6.008 0 01-6 6zm54-6h45a3 3 0 003-3V74.654a39.97 39.97 0 01-48-6.087zM6 37v82a3 3 0 003 3h45V61.088a40.169 40.169 0 01-2.856-5.518A39.746 39.746 0 0148 40a40.33 40.33 0 01.444-6H9a3 3 0 00-3 3zm48 3A34 34 0 1088 6a34.04 34.04 0 00-34 34zm15 68a3 3 0 110-6h30a3 3 0 110 6zm-54 0a3 3 0 010-6h30a3 3 0 110 6zm54-18a3 3 0 110-6h30a3 3 0 110 6zm-54 0a3 3 0 010-6h30a3 3 0 110 6zm0-18a3 3 0 010-6h30a3 3 0 110 6zm88.9-12.475l-17.957-17.34a3 3 0 01-.283-.306l-.009-.012-.034-.044-.017-.022-.021-.029-.024-.034-.011-.016a2.925 2.925 0 01-.159-.251l-.007-.012-.022-.04-.014-.027-.014-.027-.021-.043-.009-.019-.025-.052v-.011l-.028-.063a2.986 2.986 0 01-.239-1.121v-.007V15a3 3 0 016 0v23.726l17.067 16.484a3 3 0 11-4.167 4.316zM15 54a3 3 0 010-6h18a3 3 0 110 6z"/></svg>