<svg xmlns="http://www.w3.org/2000/svg" width="128.001" height="128.001"><defs/><path d="M6 128a6.152 6.152 0 01-6-6.281V67.283A6.153 6.153 0 016 61h26V6a6.007 6.007 0 016-6h52a6.008 6.008 0 016 6v55h26a6.153 6.153 0 016 6.283v54.437a6.152 6.152 0 01-6 6.281zm61-6.281h52a3.077 3.077 0 003-3.141V70.421a3.075 3.075 0 00-3-3.138h-16V73a6.008 6.008 0 01-6 6h-6a6.008 6.008 0 01-6-6v-5.717H67zm-61-51.3v48.157a3.076 3.076 0 003 3.141h52V67.283H44V73a6.008 6.008 0 01-6 6h-6a6.008 6.008 0 01-6-6v-5.717H9a3.074 3.074 0 00-3 3.138zM91 70a3 3 0 106 0v-2.717h-6zm-59 0a3 3 0 106 0v-2.717h-6zm6-61v52h52V9a3 3 0 00-3-3H73v6a6.006 6.006 0 01-6 6h-6a6.007 6.007 0 01-6-6V6H41a3 3 0 00-3 3zm23 0a3 3 0 106 0V6h-6z"/></svg>