<?xml version="1.0" encoding="UTF-8" standalone="no"?>
<!-- Created with Inkscape (http://www.inkscape.org/) -->

<svg
   xmlns:dc="http://purl.org/dc/elements/1.1/"
   xmlns:cc="http://creativecommons.org/ns#"
   xmlns:rdf="http://www.w3.org/1999/02/22-rdf-syntax-ns#"
   xmlns:svg="http://www.w3.org/2000/svg"
   xmlns="http://www.w3.org/2000/svg"
   xmlns:sodipodi="http://sodipodi.sourceforge.net/DTD/sodipodi-0.dtd"
   xmlns:inkscape="http://www.inkscape.org/namespaces/inkscape"
   width="128mm"
   height="128mm"
   viewBox="0 0 128.01664 128.01664"
   version="1.1"
   id="svg8"
   inkscape:version="0.92.5 (2060ec1f9f, 2020-04-08)"
   sodipodi:docname="server_cc_menu.svg">
  <defs
     id="defs2" />
  <sodipodi:namedview
     id="base"
     pagecolor="#ffffff"
     bordercolor="#666666"
     borderopacity="1.0"
     inkscape:pageopacity="0.0"
     inkscape:pageshadow="2"
     inkscape:zoom="0.5"
     inkscape:cx="158.81191"
     inkscape:cy="95.576532"
     inkscape:document-units="mm"
     inkscape:current-layer="layer1"
     showgrid="false"
     fit-margin-top="0"
     fit-margin-left="0"
     fit-margin-right="0"
     fit-margin-bottom="0"
     inkscape:window-width="1920"
     inkscape:window-height="1017"
     inkscape:window-x="1672"
     inkscape:window-y="-8"
     inkscape:window-maximized="1" />
  <metadata
     id="metadata5">
    <rdf:RDF>
      <cc:Work
         rdf:about="">
        <dc:format>image/svg+xml</dc:format>
        <dc:type
           rdf:resource="http://purl.org/dc/dcmitype/StillImage" />
        <dc:title></dc:title>
      </cc:Work>
    </rdf:RDF>
  </metadata>
  <g
     inkscape:label="Ebene 1"
     inkscape:groupmode="layer"
     id="layer1"
     transform="translate(-0.29420598,-169.4554)">
    <g
       transform="matrix(3.7800188,0,0,4.230622,0.29421123,-951.39248)"
       id="layer1-5"
       inkscape:label="Ebene 1">
      <g
         style="display:inline"
         id="g5812"
         transform="matrix(0.64307295,0,0,0.64307295,-294.02772,431.56554)"
         inkscape:export-filename="G:\Communityprojekt\Desgin\Design\Control Center\Dark Mode\ControlCenter_Computer 4_v8_alpha 2_Dark Mode.png"
         inkscape:export-xdpi="192"
         inkscape:export-ydpi="192">
        <path
           sodipodi:nodetypes="csscccc"
           inkscape:connector-curvature="0"
           id="path5778"
           d="m 505.31124,-256.23217 c 0,0 1.65012,0.53774 1.65012,2.02761 v 30.75198 c 0,3.23274 -2.54957,4.23676 -2.54957,4.23676 l -14.68064,6.74075 v -46.22151 z"
           style="fill:#ffffff;fill-opacity:1;fill-rule:evenodd;stroke-width:0.18207595" />
        <path
           style="fill:#171c1f;fill-opacity:1;fill-rule:evenodd;stroke-width:0.17076273"
           d="m 504.77781,-255.36084 c 0,0 1.51539,0.51504 1.51539,1.94204 v 29.45417 c 0,3.09631 -2.34139,4.05796 -2.34139,4.05796 l -13.48194,6.45627 v -44.27085 z"
           id="path5780"
           inkscape:connector-curvature="0"
           sodipodi:nodetypes="csscccc" />
        <rect
           ry="3.1384254"
           rx="3"
           y="-259.11313"
           x="457.22296"
           height="47.054585"
           width="34.395832"
           id="rect5782"
           style="fill:#ffffff;fill-opacity:1;fill-rule:evenodd;stroke-width:0.23760861" />
        <g
           id="g5794"
           transform="translate(2.9168266)">
          <rect
             ry="3"
             rx="3"
             y="-258.07541"
             x="455.63544"
             height="44.979168"
             width="31.75"
             id="rect5784"
             style="fill:#171c1f;fill-opacity:1;fill-rule:evenodd;stroke-width:0.22319573" />
          <circle
             r="4.1460495"
             cy="-223.71609"
             cx="471.51044"
             id="circle5786"
             style="opacity:1;fill:#ffffff;fill-opacity:1;fill-rule:nonzero;stroke:none;stroke-width:0.06449609;stroke-linecap:round;stroke-linejoin:bevel;stroke-miterlimit:4;stroke-dasharray:none;stroke-dashoffset:8.60362053;stroke-opacity:1" />
          <rect
             ry="2"
             rx="2"
             y="-254.09605"
             x="459.60419"
             height="14.816667"
             width="23.8125"
             id="rect5788"
             style="fill:#ffffff;fill-opacity:1;fill-rule:evenodd;stroke-width:0.35481128" />
          <rect
             ry="1.5"
             y="-253.11104"
             x="460.5567"
             height="5.8208332"
             width="21.907499"
             id="rect5790"
             style="fill:#171c1f;fill-opacity:1;fill-rule:evenodd;stroke-width:0.26537365" />
          <rect
             style="fill:#171c1f;fill-opacity:1;fill-rule:evenodd;stroke-width:0.26537365"
             id="rect5792"
             width="21.907499"
             height="5.8208332"
             x="460.5567"
             y="-246.13455"
             ry="1.5" />
        </g>
        <g
           id="g5810"
           transform="matrix(0.75088974,0,0,0.75088974,124.10453,-51.177554)">
          <path
             inkscape:connector-curvature="0"
             id="path5796"
             d="m 504.47742,-245.75723 a 9.2894162,4.4186185 0 0 0 -9.28942,4.41863 9.2894162,4.4186185 0 0 0 0.0187,0.25601 c -0.01,0.059 -0.0187,0.11837 -0.0187,0.18009 v 18.10195 0.29171 h 0.0212 a 9.2894162,4.4186185 0 0 0 9.26824,4.12691 9.2894162,4.4186185 0 0 0 9.25858,-4.12691 h 0.0308 v -0.29171 -18.10195 c 0,-0.0749 -0.008,-0.14792 -0.023,-0.21863 a 9.2894162,4.4186185 0 0 0 0.023,-0.21747 9.2894162,4.4186185 0 0 0 -9.28941,-4.41863 z"
             style="fill:#ffffff;fill-opacity:1;fill-rule:evenodd;stroke-width:0.27840528" />
          <path
             sodipodi:nodetypes="sssccss"
             inkscape:connector-curvature="0"
             id="path5798"
             d="m 497.53991,-240.83 h 13.875 c 0.554,0 1,0.446 1,1 v 16.52083 h -15.875 V -239.83 c 0,-0.554 0.446,-1 1,-1 z"
             style="fill:#171c1f;fill-opacity:1;fill-rule:evenodd;stroke-width:0.24389829" />
          <ellipse
             ry="3.96875"
             rx="7.9375"
             cy="-240.22171"
             cx="504.47739"
             id="ellipse5800"
             style="opacity:1;fill:#171c1f;fill-opacity:1;fill-rule:nonzero;stroke:none;stroke-width:0.0961915;stroke-linecap:round;stroke-linejoin:bevel;stroke-miterlimit:4;stroke-dasharray:none;stroke-dashoffset:8.60362053;stroke-opacity:1" />
          <ellipse
             style="opacity:1;fill:#171c1f;fill-opacity:1;fill-rule:nonzero;stroke:none;stroke-width:0.0961915;stroke-linecap:round;stroke-linejoin:bevel;stroke-miterlimit:4;stroke-dasharray:none;stroke-dashoffset:8.60362053;stroke-opacity:1"
             id="ellipse5802"
             cx="504.47739"
             cy="-223.57092"
             rx="7.9375"
             ry="3.96875" />
          <ellipse
             style="opacity:1;fill:#ffffff;fill-opacity:1;fill-rule:nonzero;stroke:none;stroke-width:0.0799431;stroke-linecap:round;stroke-linejoin:bevel;stroke-miterlimit:4;stroke-dasharray:none;stroke-dashoffset:8.60362053;stroke-opacity:1"
             id="ellipse5804"
             cx="504.47739"
             cy="-240.22171"
             rx="6.9047971"
             ry="3.1511936" />
          <path
             sodipodi:nodetypes="csc"
             inkscape:connector-curvature="0"
             id="path5806"
             d="m 513.05408,-235.52029 c 0,2.16716 -3.83991,3.92398 -8.57667,3.92398 -4.73676,0 -8.57666,-1.75682 -8.57666,-3.92398"
             style="opacity:1;fill:none;fill-opacity:1;fill-rule:nonzero;stroke:#ffffff;stroke-width:1.36737072;stroke-linecap:round;stroke-linejoin:bevel;stroke-miterlimit:4;stroke-dasharray:none;stroke-dashoffset:8.60362053;stroke-opacity:1" />
          <path
             style="opacity:1;fill:none;fill-opacity:1;fill-rule:nonzero;stroke:#ffffff;stroke-width:1.36737072;stroke-linecap:round;stroke-linejoin:bevel;stroke-miterlimit:4;stroke-dasharray:none;stroke-dashoffset:8.60362053;stroke-opacity:1"
             d="m 513.05407,-229.78305 c 0,2.16716 -3.83991,3.92398 -8.57667,3.92398 -4.73676,0 -8.57666,-1.75682 -8.57666,-3.92398"
             id="path5808"
             inkscape:connector-curvature="0"
             sodipodi:nodetypes="csc" />
        </g>
      </g>
    </g>
  </g>
</svg>
