<svg xmlns="http://www.w3.org/2000/svg" width="128" height="100.001"><defs/><path d="M6 100a6.007 6.007 0 01-6-6V26a6.007 6.007 0 016-6h24.5a1.5 1.5 0 001.5-1.5V6a6.007 6.007 0 016-6h52a6.007 6.007 0 016 6v12.549A1.5 1.5 0 0097.5 20H122a6.007 6.007 0 016 6v68a6.007 6.007 0 01-6 6zm97-29v23h16a3 3 0 003-3V29a3 3 0 00-3-3H93a3.005 3.005 0 01-3-3V9a3 3 0 00-3-3H41a3 3 0 00-3 3v14a3.006 3.006 0 01-3 3H9a3 3 0 00-3 3v62a3 3 0 003 3h16V71a3 3 0 016 0v23h18V71a3 3 0 016 0v23h18V71a3 3 0 016 0v23h18V71a3 3 0 016 0z"/></svg>