<svg xmlns="http://www.w3.org/2000/svg" width="128" height="110.001"><defs/><path d="M12 107V20h110a6.007 6.007 0 016 6v58a6.006 6.006 0 01-6 6H65a3 3 0 01-3-3v-6a3 3 0 00-3-3H37a3 3 0 00-3 3v3h-6 6v3a3 3 0 01-3 3H18v17a3 3 0 11-6 0zm50-35a6.008 6.008 0 016 6v4.5a1.5 1.5 0 001.5 1.5h49.173a3 3 0 003-3V29a3 3 0 00-3-3H18.326v10H26a6.008 6.008 0 016 6v14a6.007 6.007 0 01-6 6h-7.674v22h8.173a1.5 1.5 0 001.5-1.428V78a6.009 6.009 0 016-6zm6 12zM23 56a3 3 0 003-3v-8a3 3 0 00-3-3h-4.673v14zm72 23v-4a3 3 0 116 0v4a3 3 0 01-6 0zm-11 0v-4a3 3 0 116 0v4a3 3 0 11-6 0zm.759-10a6.007 6.007 0 01-6-6V47a6.007 6.007 0 016-6h15.481a6.007 6.007 0 016 6v16a6.007 6.007 0 01-6 6zm-.5-19.4v10.8a3 3 0 003 3h10.489a3 3 0 003-3V49.6a3 3 0 00-3-3H87.259a3 3 0 00-3.002 3zM69 64a3 3 0 010-6h4a3 3 0 110 6zm43 0a3 3 0 110-6h4a3 3 0 010 6zM69 52a3 3 0 010-6h4a3 3 0 110 6zm43 0a3 3 0 110-6h4a3 3 0 010 6zM95 35v-4a3 3 0 016 0v4a3 3 0 01-6 0zm-11 0v-4a3 3 0 116 0v4a3 3 0 11-6 0zM18 20h-6V9a3 3 0 00-3-3H3a3 3 0 010-6h9a6.008 6.008 0 016 6v14z"/></svg>