<svg xmlns="http://www.w3.org/2000/svg" width="128" height="102"><defs/><path d="M78 102a6.007 6.007 0 01-6-6V70a6.007 6.007 0 016-6h16V54H34v10h16a6.007 6.007 0 016 6v26a6.007 6.007 0 01-6 6H12a6.006 6.006 0 01-6-6V70a6.007 6.007 0 016-6h16V54H3a3 3 0 010-6h58V38H45a6.007 6.007 0 01-6-6V6a6.007 6.007 0 016-6h38a6.007 6.007 0 016 6v26a6.006 6.006 0 01-6 6H67v10h58a3 3 0 010 6h-25v10h16a6.007 6.007 0 016 6v26a6.007 6.007 0 01-6 6zm0-29v20a3 3 0 003 3h32a3 3 0 003-3V73a3 3 0 00-3-3H81a3 3 0 00-3 3zm-66 0v20a3 3 0 003 3h32a3 3 0 003-3V73a3 3 0 00-3-3H15a3 3 0 00-3 3zM45 9v20a3 3 0 003 3h32a3 3 0 003-3V9a3 3 0 00-3-3H48a3 3 0 00-3 3z"/></svg>