<?xml version="1.0" encoding="UTF-8" standalone="no"?>
<!-- Created with Inkscape (http://www.inkscape.org/) -->

<svg
   xmlns:dc="http://purl.org/dc/elements/1.1/"
   xmlns:cc="http://creativecommons.org/ns#"
   xmlns:rdf="http://www.w3.org/1999/02/22-rdf-syntax-ns#"
   xmlns:svg="http://www.w3.org/2000/svg"
   xmlns="http://www.w3.org/2000/svg"
   xmlns:sodipodi="http://sodipodi.sourceforge.net/DTD/sodipodi-0.dtd"
   xmlns:inkscape="http://www.inkscape.org/namespaces/inkscape"
   width="128"
   height="128"
   viewBox="0 0 33.866666 33.866668"
   version="1.1"
   id="svg7889"
   inkscape:version="0.92.4 (5da689c313, 2019-01-14)"
   sodipodi:docname="laptop_online_dark.svg">
  <defs
     id="defs7883" />
  <sodipodi:namedview
     id="base"
     pagecolor="#ffffff"
     bordercolor="#666666"
     borderopacity="1.0"
     inkscape:pageopacity="0.0"
     inkscape:pageshadow="2"
     inkscape:zoom="2.8"
     inkscape:cx="85.281282"
     inkscape:cy="50.768656"
     inkscape:document-units="px"
     inkscape:current-layer="layer1"
     showgrid="false"
     units="px"
     inkscape:window-width="1920"
     inkscape:window-height="1017"
     inkscape:window-x="1912"
     inkscape:window-y="32"
     inkscape:window-maximized="1" />
  <metadata
     id="metadata7886">
    <rdf:RDF>
      <cc:Work
         rdf:about="">
        <dc:format>image/svg+xml</dc:format>
        <dc:type
           rdf:resource="http://purl.org/dc/dcmitype/StillImage" />
        <dc:title></dc:title>
      </cc:Work>
    </rdf:RDF>
  </metadata>
  <g
     inkscape:label="Ebene 1"
     inkscape:groupmode="layer"
     id="layer1"
     transform="translate(0,-263.13333)">
    <g
       transform="matrix(0.15925663,0,0,0.15925663,26.389268,256.365)"
       id="g1517">
      <path
         inkscape:connector-curvature="0"
         id="path1503"
         d="m -162.02763,228.47497 c -1.02252,-0.54043 -3.67842,-3.28199 -3.67516,-3.79369 0.001,-0.17017 0.5149,-1.20237 1.14182,-2.29378 0.62693,-1.09141 8.12601,-14.16034 16.66464,-29.04207 l 15.52478,-27.05769 0.0683,-47.44314 0.0683,-47.443133 0.76248,-0.999641 c 1.43841,-1.885807 -4.73138,-1.737246 72.147891,-1.737246 77.548887,0 70.656145,-0.172175 72.162381,1.802553 l 0.712668,0.934334 0.06829,47.442003 0.06829,47.44201 1.942544,3.37861 c 15.356378,26.70892 31.225758,54.50262 31.31565,54.84637 0.152527,0.58327 -2.360721,3.31535 -3.659142,3.97776 -0.992209,0.50619 -2.526604,0.51369 -102.683948,0.50217 -99.443114,-0.0114 -101.697624,-0.0228 -102.629764,-0.51542 z"
         style="fill:#4d4d4d;fill-opacity:1;stroke-width:0.26458335" />
      <path
         inkscape:connector-curvature="0"
         id="path1505"
         d="m -165.1756,224.51228 c 0,-0.14105 0.57957,-1.24238 1.28792,-2.44739 0.70835,-1.20501 8.04364,-13.97812 16.30065,-28.38468 8.25701,-14.40656 15.13343,-26.34258 15.28094,-26.52448 0.21339,-0.26313 15.13258,-0.33073 72.992908,-0.33073 H 13.41152 l 0.622419,0.99219 c 0.342331,0.5457 7.679966,13.31515 16.305856,28.37656 8.625891,15.06141 15.788701,27.49748 15.91736,27.63573 0.897313,0.96418 3.698193,0.93927 -105.599415,0.93927 -68.14607,0 -105.83334,-0.0913 -105.83334,-0.25647 z m 37.3724,-61.83126 c -0.26275,-0.10602 -0.33073,-9.33981 -0.33073,-44.92742 V 72.95963 l 0.59531,-0.159536 c 0.77825,-0.208563 135.6144652,-0.208563 136.3927159,0 l 0.5953125,0.159536 v 44.78771 c 0,40.59646 -0.039164,44.80274 -0.4185153,44.94831 -0.5008245,0.19218 -136.3575531,0.17766 -136.8340931,-0.0146 z"
         style="fill:#e5e5e5;fill-opacity:1;stroke-width:0.26458335" />
      <path
         inkscape:connector-curvature="0"
         id="path1507"
         d="m -165.1756,224.51228 c 0,-0.14105 0.57957,-1.24238 1.28792,-2.44739 0.70835,-1.20501 8.04364,-13.97812 16.30065,-28.38468 8.25701,-14.40656 15.13343,-26.34258 15.28094,-26.52448 0.21339,-0.26313 15.13258,-0.33073 72.992908,-0.33073 H 13.41152 l 0.622419,0.99219 c 0.342331,0.5457 7.679966,13.31515 16.305856,28.37656 8.625891,15.06141 15.788701,27.49748 15.91736,27.63573 0.897313,0.96418 3.698193,0.93927 -105.599415,0.93927 -68.14607,0 -105.83334,-0.0913 -105.83334,-0.25647 z m 37.48315,-62.36108 c -0.22069,-0.22069 -0.23684,-87.995468 -0.0163,-88.570188 0.14587,-0.380135 6.41777,-0.418515 68.389757,-0.418515 H 8.9101611 l 0.143592,0.595312 c 0.078976,0.327422 0.1110086,20.359688 0.071186,44.516151 l -0.072406,43.92083 -68.2840461,0.0666 c -37.556224,0.0367 -68.363647,-0.0129 -68.460937,-0.11024 z"
         style="fill:#b8b8b8;fill-opacity:1;stroke-width:0.26458335" />
      <path
         inkscape:connector-curvature="0"
         id="path1509"
         d="m -75.338426,219.80783 c -8.725131,-0.0387 -15.952331,-0.15883 -16.060442,-0.26694 -0.108111,-0.10811 -0.08175,-0.67271 0.05858,-1.25466 0.140332,-0.58196 0.310896,-1.99154 0.379032,-3.13241 0.150884,-2.5264 1.679085,-11.29096 2.048782,-11.75017 0.210108,-0.26099 6.445436,-0.33073 29.57021,-0.33073 23.123375,0 29.360668,0.0697 29.572837,0.33073 0.386398,0.47527 2.969326,15.68132 2.766843,16.28877 -0.106439,0.31932 -1.577244,0.32283 -48.335846,0.11541 z m -68.824794,-20.2687 c -0.0757,-0.19733 3.3976,-6.9839 7.71849,-15.08125 l 7.85617,-14.72246 h 69.2463 69.246302 l 7.856167,14.72246 c 4.320892,8.09735 7.79421,14.88392 7.718486,15.08125 -0.20598,0.53677 -169.435925,0.53677 -169.641915,0 z m 16.47077,-37.38793 c -0.22069,-0.22069 -0.23684,-87.995468 -0.0163,-88.570188 0.14587,-0.380135 6.41777,-0.418515 68.389757,-0.418515 H 8.9101611 l 0.143592,0.595312 c 0.078976,0.327422 0.1110086,20.359688 0.071186,44.516151 l -0.072406,43.92083 -68.2840461,0.0666 c -37.556224,0.0367 -68.363647,-0.0129 -68.460937,-0.11024 z"
         style="fill:#3991c0;fill-opacity:1;stroke-width:0.26458335" />
      <path
         inkscape:connector-curvature="0"
         id="path1511"
         d="m -75.338426,219.80783 c -8.725131,-0.0387 -15.952331,-0.15883 -16.060442,-0.26694 -0.108111,-0.10811 -0.08175,-0.67271 0.05858,-1.25466 0.140332,-0.58196 0.310896,-1.99154 0.379032,-3.13241 0.150884,-2.5264 1.679085,-11.29096 2.048782,-11.75017 0.210108,-0.26099 6.445436,-0.33073 29.57021,-0.33073 23.123375,0 29.360668,0.0697 29.572837,0.33073 0.386398,0.47527 2.969326,15.68132 2.766843,16.28877 -0.106439,0.31932 -1.577244,0.32283 -48.335846,0.11541 z m -68.824794,-20.2687 c -0.0757,-0.19733 3.3976,-6.9839 7.71849,-15.08125 l 7.85617,-14.72246 h 69.2463 69.246302 l 7.856167,14.72246 c 4.320892,8.09735 7.79421,14.88392 7.718486,15.08125 -0.20598,0.53677 -169.435925,0.53677 -169.641915,0 z"
         style="fill:#8e8e8e;fill-opacity:1;stroke-width:0.26458335" />
      <path
         inkscape:connector-curvature="0"
         id="path1513"
         d="m -59.212731,219.14635 c -0.06514,-0.1819 -0.150704,-1.22369 -0.190132,-2.3151 l -0.07169,-1.98437 -15.544271,-0.0683 -15.544271,-0.0683 -0.0013,-0.72548 c -0.0021,-1.18949 1.625857,-9.95848 1.915427,-10.31664 0.391959,-0.4848 58.222898,-0.4848 58.610692,0 0.345051,0.43136 1.644391,7.59446 1.931747,10.64948 0.12319,1.30969 0.305893,3.00633 0.406008,3.77031 l 0.182028,1.38906 H -43.30638 c -12.390734,0 -15.813355,-0.0712 -15.906314,-0.33073 z M -143.74435,199.2495 c 0,-0.47265 15.06302,-28.77641 15.45857,-29.04701 0.15628,-0.10692 31.180863,-0.19439 68.94352,-0.19439 37.762657,0 68.7872419,0.0875 68.9435207,0.19439 0.3955521,0.2706 15.4585643,28.57436 15.4585643,29.04701 0,0.33459 -10.829031,0.38383 -84.402085,0.38383 -73.57305,0 -84.40209,-0.0492 -84.40209,-0.38383 z"
         style="fill:#2b2b2b;fill-opacity:1;stroke-width:0.26458335" />
      <path
         inkscape:connector-curvature="0"
         id="path1515"
         d="m -74.621948,214.51619 -15.676563,-0.0704 v -0.73559 c 0,-0.72961 1.472301,-9.14263 1.711071,-9.7774 0.184412,-0.49025 58.306787,-0.48492 58.494929,0.005 0.07093,0.18486 0.526603,2.53634 1.012598,5.22552 0.594738,3.29092 0.798769,4.99755 0.624075,5.22015 -0.267724,0.34115 0.105513,0.34008 -46.16611,0.13234 z M -143.0087,198.24427 c 0.28282,-0.47294 3.70886,-6.87255 7.61343,-14.22135 3.90456,-7.34881 7.22498,-13.44894 7.37871,-13.55585 0.15373,-0.10691 31.057164,-0.19438 68.6743,-0.19438 37.617136,0 68.520571,0.0875 68.6742992,0.19438 0.1537282,0.10691 3.4741508,6.20704 7.3787138,13.55585 3.904564,7.3488 7.330607,13.74841 7.613428,14.22135 l 0.51422,0.8599 h -84.180661 -84.18066 z"
         style="fill:#666666;fill-opacity:1;stroke-width:0.26458335" />
    </g>
  </g>
</svg>
