<?xml version="1.0" encoding="UTF-8" standalone="no"?>
<svg
   xmlns:dc="http://purl.org/dc/elements/1.1/"
   xmlns:cc="http://creativecommons.org/ns#"
   xmlns:rdf="http://www.w3.org/1999/02/22-rdf-syntax-ns#"
   xmlns:svg="http://www.w3.org/2000/svg"
   xmlns="http://www.w3.org/2000/svg"
   id="svg8"
   version="1.1"
   viewBox="-2.7755576e-017 0 77.893672 55.339341"
   height="90.937241"
   width="128">
  <defs
     id="defs2" />
  <metadata
     id="metadata5">
    <rdf:RDF>
      <cc:Work
         rdf:about="">
        <dc:format>image/svg+xml</dc:format>
        <dc:type
           rdf:resource="http://purl.org/dc/dcmitype/StillImage" />
        <dc:title></dc:title>
      </cc:Work>
    </rdf:RDF>
  </metadata>
  <g
     transform="translate(9.9766192,-199.53772)"
     id="layer1">
    <g
       transform="matrix(0.23098246,0,0,0.23259696,126.26416,280.95111)"
       id="g855">
      <path
         id="path869"
         d="m -584.02718,-113.09169 c -2.52789,-1.33567 -3.92919,-2.6474 -4.96223,-4.64508 -0.76146,-1.47252 -0.87567,-16.88767 -0.83522,-112.73487 0.0317,-75.17166 0.25096,-111.56939 0.67883,-112.702 0.7792,-2.06263 3.3535,-4.84224 5.54481,-5.98704 1.40238,-0.73264 25.20323,-0.85849 162.35942,-0.85849 137.15618,0 160.95703,0.12585 162.35941,0.85849 2.19131,1.1448 4.76561,3.92441 5.54481,5.98704 0.42787,1.13261 0.6471,37.53034 0.67883,112.702 0.0405,95.8472 -0.0738,111.26235 -0.83522,112.73487 -1.06029,2.05036 -2.47634,3.35169 -5.08415,4.67223 -1.78131,0.90202 -15.676,0.98412 -162.7856,0.96183 -145.60235,-0.022 -161.01099,-0.11574 -162.66369,-0.98898 z"
         style="fill:#f3f3f3;stroke-width:0.60854429" />
      <path
         id="path867"
         d="m -582.71565,-112.96599 c -2.67388,-0.95337 -4.99652,-2.9342 -6.2377,-5.31971 -0.98155,-1.8865 -1.15349,-7.53285 -0.24645,-8.09343 0.40198,-0.24845 0.60854,-36.93475 0.60854,-108.08275 0,-116.34063 -0.19739,-109.27578 3.13704,-112.27813 0.78487,-0.70671 2.3579,-1.59671 3.49562,-1.97777 2.96589,-0.99338 318.46816,-0.99338 321.43405,0 1.13772,0.38106 2.71075,1.27106 3.49562,1.97777 3.33443,3.00235 3.13704,-4.0625 3.13704,112.27813 0,71.148 0.20656,107.8343 0.60854,108.08275 0.92276,0.5703 0.72754,6.22005 -0.28241,8.17308 -1.23284,2.38404 -4.19186,4.7439 -6.88688,5.49238 -1.53115,0.42525 -53.63479,0.621 -161.09321,0.60523 -132.94521,-0.0195 -159.21138,-0.15928 -161.1698,-0.85755 z"
         style="fill:#e5e5e5;stroke-width:0.60854429" />
      <path
         id="path865"
         d="m -583.41863,-113.54941 c -2.26787,-1.01228 -4.88726,-3.75973 -5.74246,-6.02321 -0.86264,-2.28317 -0.8211,-5.47643 0.083,-6.38053 1.06362,-1.06361 334.60943,-1.06361 335.67305,0 1.70882,1.70883 0.54806,6.90397 -2.19905,9.84208 -3.43662,3.67556 8.71473,3.42631 -165.77006,3.40037 -132.5057,-0.0197 -160.53462,-0.16477 -162.04447,-0.83871 z"
         style="fill:#dadada;stroke-width:0.60854429" />
      <path
         id="path863"
         d="m -581.94987,-113.26616 c -2.33128,-0.70994 -4.59387,-2.33844 -5.79421,-4.17038 -1.36957,-2.09024 -2.11629,-6.18695 -1.37887,-7.56485 0.54675,-1.0216 8.65843,-1.07347 167.88138,-1.07347 159.22294,0 167.33462,0.0519 167.88137,1.07347 0.7419,1.38627 -0.0121,5.47892 -1.39956,7.59642 -0.59603,0.90966 -2.08228,2.2749 -3.30277,3.03387 l -2.21908,1.37994 -160.04715,0.10216 c -88.02593,0.0562 -160.75543,-0.11354 -161.62111,-0.37716 z"
         style="fill:#c5c5c5;stroke-width:0.60854429" />
      <path
         id="path861"
         d="m -584.02718,-114.67717 c -2.83344,-1.58508 -5.3072,-5.8347 -5.04064,-8.65924 l 0.17229,-1.82563 h 167.65396 167.65395 l 0.17229,1.82563 c 0.26656,2.82454 -2.2072,7.07416 -5.04064,8.65924 l -2.43418,1.36172 H -421.24157 -581.593 Z"
         style="fill:#a4a4a4;stroke-width:0.60854429" />
      <path
         id="path859"
         d="m -583.92763,-115.18947 c -2.52903,-1.33427 -4.90572,-5.52237 -4.55065,-8.01896 l 0.19129,-1.34507 h 167.04542 167.04541 l 0.19701,1.38867 c 0.34684,2.4448 -2.21242,6.74353 -4.80099,8.06412 -2.31532,1.18119 -4.42767,1.19639 -162.56933,1.16984 -159.65673,-0.0268 -160.23179,-0.0312 -162.55816,-1.2586 z"
         style="fill:#868686;stroke-width:0.60854429" />
      <path
         id="path857"
         d="m -583.53771,-115.70283 c -2.42575,-1.47907 -3.78791,-3.51585 -4.24817,-6.35213 l -0.35608,-2.19427 h 166.90039 166.90038 l -0.35608,2.19427 c -0.46026,2.83628 -1.82242,4.87306 -4.24817,6.35213 -1.91459,1.1674 -4.4279,1.18576 -162.29614,1.18576 -157.86823,0 -160.38154,-0.0184 -162.29613,-1.18576 z"
         style="fill:#7f7f7f;stroke-width:0.60854429" />
    </g>
  </g>
</svg>
