<svg xmlns="http://www.w3.org/2000/svg" xmlns:xlink="http://www.w3.org/1999/xlink" width="146" height="146" viewBox="0 0 146 146">
  <defs>
    <filter id="Rechteck_58" x="0" y="0" width="146" height="146" filterUnits="userSpaceOnUse">
      <feOffset dy="3" input="SourceAlpha"/>
      <feGaussianBlur stdDeviation="3" result="blur"/>
      <feFlood flood-opacity="0.161"/>
      <feComposite operator="in" in2="blur"/>
      <feComposite in="SourceGraphic"/>
    </filter>
  </defs>
  <g id="Terminal-light" transform="translate(-600 -16)">
    <g transform="matrix(1, 0, 0, 1, 600, 16)" filter="url(#Rechteck_58)">
      <rect id="Rechteck_58-2" data-name="Rechteck 58" width="128" height="128" rx="6" transform="translate(9 6)" fill="#d5d6d7"/>
    </g>
    <path id="Pfad_150" data-name="Pfad 150" d="M-10.7-20.664a12.66,12.66,0,0,0-2.255-3.116,4.552,4.552,0,0,0-3.362-1.312,4.446,4.446,0,0,0-3.116.923,3.237,3.237,0,0,0-.984,2.48,3.124,3.124,0,0,0,.922,2.337,7.749,7.749,0,0,0,2.419,1.538q1.5.635,3.26,1.292a18.25,18.25,0,0,1,3.362,1.661,8.993,8.993,0,0,1,2.788,2.727A7.525,7.525,0,0,1-6.56-7.913,7.853,7.853,0,0,1-8.61-2.3,9.246,9.246,0,0,1-14.473.328l.082,4.264h-3.854l.082-4.346a11.112,11.112,0,0,1-5.351-2.6,13.082,13.082,0,0,1-3.506-4.9l3.731-2.419a14.8,14.8,0,0,0,3.1,4.346,5.991,5.991,0,0,0,4.2,1.558,4.523,4.523,0,0,0,3.28-1.045,3.863,3.863,0,0,0,1.066-2.891,3.69,3.69,0,0,0-.9-2.563,7.375,7.375,0,0,0-2.378-1.7q-1.476-.7-3.116-1.312a20.885,20.885,0,0,1-2.357-1,11.23,11.23,0,0,1-2.44-1.64,8.083,8.083,0,0,1-1.886-2.46,7.577,7.577,0,0,1-.738-3.465,6.2,6.2,0,0,1,.923-3.28,7.491,7.491,0,0,1,2.583-2.522,10.26,10.26,0,0,1,3.792-1.332l-.082-4.551h3.854l-.041,4.592a9.055,9.055,0,0,1,4.777,2.275A12.369,12.369,0,0,1-6.929-23ZM7.872,5.781V2.87H28.905V5.781Z" transform="translate(651.019 70.538)" fill="#4daf30"/>
  </g>
</svg>
