<?xml version="1.0" encoding="UTF-8" standalone="no"?>
<!-- Created with Inkscape (http://www.inkscape.org/) -->

<svg
   xmlns:dc="http://purl.org/dc/elements/1.1/"
   xmlns:cc="http://creativecommons.org/ns#"
   xmlns:rdf="http://www.w3.org/1999/02/22-rdf-syntax-ns#"
   xmlns:svg="http://www.w3.org/2000/svg"
   xmlns="http://www.w3.org/2000/svg"
   xmlns:sodipodi="http://sodipodi.sourceforge.net/DTD/sodipodi-0.dtd"
   xmlns:inkscape="http://www.inkscape.org/namespaces/inkscape"
   width="128.13846"
   height="128.07622"
   viewBox="0 0 33.9033 33.886834"
   version="1.1"
   id="svg8"
   inkscape:version="0.92.3 (2405546, 2018-03-11)"
   sodipodi:docname="terminal.svg">
  <defs
     id="defs2" />
  <sodipodi:namedview
     id="base"
     pagecolor="#ffffff"
     bordercolor="#666666"
     borderopacity="1.0"
     inkscape:pageopacity="0.0"
     inkscape:pageshadow="2"
     inkscape:zoom="16"
     inkscape:cx="135.59052"
     inkscape:cy="2.1678188"
     inkscape:document-units="mm"
     inkscape:current-layer="layer1"
     showgrid="false"
     units="px"
     fit-margin-top="0"
     fit-margin-left="0"
     fit-margin-right="0"
     fit-margin-bottom="0"
     inkscape:window-width="1920"
     inkscape:window-height="1017"
     inkscape:window-x="1672"
     inkscape:window-y="-8"
     inkscape:window-maximized="1"
     inkscape:snap-global="false" />
  <metadata
     id="metadata5">
    <rdf:RDF>
      <cc:Work
         rdf:about="">
        <dc:format>image/svg+xml</dc:format>
        <dc:type
           rdf:resource="http://purl.org/dc/dcmitype/StillImage" />
        <dc:title></dc:title>
      </cc:Work>
    </rdf:RDF>
  </metadata>
  <g
     inkscape:label="Ebene 1"
     inkscape:groupmode="layer"
     id="layer1"
     transform="translate(5.8775566e-6,-263.13104)">
    <g
       id="g826"
       transform="matrix(0.92177016,0,0,0.90185808,-60.744794,188.11878)">
      <path
         style="fill:#e9e9e9;stroke-width:0.26458335"
         d="M 65.900146,101.96428 V 83.178864 H 84.288688 102.67723 V 101.96428 120.7497 H 84.288688 65.900146 Z"
         id="path842"
         inkscape:connector-curvature="0" />
      <path
         style="fill:#cfcfcf;stroke-width:0.26458335"
         d="M 65.900146,101.96428 V 83.178864 H 84.288688 102.67723 V 101.96428 120.7497 H 84.288688 65.900146 Z m 19.579167,4.65852 c 0,-5.64112 0.05271,-6.47421 0.418515,-6.61459 0.230183,-0.08833 1.599402,-0.160595 3.042708,-0.160595 2.169209,0 2.624194,-0.06959 2.624194,-0.401342 0,-0.350143 -0.866329,-0.392334 -6.7911,-0.330729 -5.146574,0.05351 -6.817766,0.150701 -6.901216,0.401342 -0.08366,0.251271 0.592177,0.330729 2.813041,0.330729 2.61925,0 2.951632,0.05321 3.197049,0.511775 0.166093,0.31034 0.273892,2.91373 0.273892,6.61458 v 6.10281 h 0.661459 0.661458 z m -8.656792,-9.105293 c 5.25813,-2.958646 5.495163,-3.126467 5.423959,-3.840194 -0.06767,-0.678334 -0.651985,-1.072764 -6.412216,-4.328468 -3.485767,-1.970169 -6.500839,-3.644705 -6.700161,-3.721192 -0.27117,-0.104057 -0.340859,0.08173 -0.276825,0.737983 0.08267,0.847287 0.269639,0.978389 5.509535,3.863323 2.983177,1.642451 5.461251,3.162626 5.506832,3.378169 0.10013,0.473499 -0.588748,0.912803 -6.496845,4.143109 -4.493238,2.456713 -4.56192,2.507533 -4.564062,3.376773 l -0.0022,0.88251 1.256771,-0.69908 c 0.691224,-0.3845 3.731058,-2.091315 6.755187,-3.792933 z"
         id="path840"
         inkscape:connector-curvature="0" />
      <path
         style="fill:#ababab;stroke-width:0.26458335"
         d="M 65.900146,101.96428 V 83.178864 H 84.288688 102.67723 V 101.96428 120.7497 H 84.288688 65.900146 Z m 19.84375,4.7625 0.132292,-6.48229 2.993808,-0.075 c 2.921294,-0.0732 2.991788,-0.0892 2.910417,-0.661461 l -0.08339,-0.586486 -6.945312,-0.07054 -6.945313,-0.07054 v 0.657186 c 0,0.656481 0.0032,0.657271 2.976563,0.732001 l 2.976562,0.0748 0.0708,6.56485 0.0708,6.56486 0.855238,-0.0826 0.855238,-0.0826 z M 75.611211,98.458552 c 6.732276,-3.784817 7.297905,-4.221876 6.878455,-5.314944 -0.138674,-0.36138 -13.184135,-7.848077 -13.675159,-7.848077 -0.14769,0 -0.267498,0.446484 -0.266239,0.992187 l 0.0023,0.992188 5.067295,2.778125 c 5.634067,3.088848 6.303204,3.534486 5.908323,3.934886 -0.145521,0.147555 -2.645833,1.576384 -5.55625,3.175176 l -5.291667,2.906897 -0.08136,1.07694 c -0.04475,0.59231 0.0062,1.07693 0.113233,1.07693 0.107026,0 3.212505,-1.69664 6.901066,-3.770308 z"
         id="path838"
         inkscape:connector-curvature="0" />
      <path
         style="fill:#8f8f8f;stroke-width:0.26458335"
         d="M 65.900146,101.96428 V 83.178864 H 84.288688 102.67723 V 101.96428 120.7497 H 84.288688 65.900146 Z m 23.631368,12.7666 c -2.646238,-0.0431 -7.051551,-0.0432 -9.789584,-1.5e-4 -2.738033,0.043 -0.57293,0.0783 4.811341,0.0784 5.384271,8e-5 7.62448,-0.0351 4.978243,-0.0782 z m -3.726176,-7.80566 0.07085,-6.41615 2.819091,-0.0748 c 2.913367,-0.0773 3.646248,-0.35342 3.30423,-1.244704 -0.131856,-0.343612 -1.165577,-0.400245 -7.305642,-0.400245 h -7.152054 v 0.633151 c 0,0.847548 0.387346,0.954348 3.461223,0.954348 h 2.624194 v 6.3059 c 0,3.46825 0.07937,6.38528 0.176389,6.4823 0.09701,0.097 0.571147,0.17639 1.053629,0.17639 h 0.877241 z M 74.660937,99.164089 c 8.203961,-4.611048 7.955744,-4.435134 7.856964,-5.568288 -0.08065,-0.925197 -0.134756,-0.962797 -6.828171,-4.745287 -3.710782,-2.096985 -6.895704,-3.814245 -7.077605,-3.816133 -0.209718,-0.0022 -0.330729,0.381571 -0.330729,1.0488 0,1.260181 -0.291482,1.042241 6.200803,4.636308 2.628673,1.455209 4.779406,2.806733 4.779406,3.003387 0,0.196655 -2.38125,1.669016 -5.291667,3.271914 -2.910417,1.602897 -5.379141,3.04934 -5.486053,3.21432 -0.359339,0.55451 -0.206466,2.28434 0.201878,2.28434 0.02837,0 2.717202,-1.49821 5.975174,-3.329361 z"
         id="path836"
         inkscape:connector-curvature="0" />
      <path
         style="fill:#5a5a5a;stroke-width:0.26458335"
         d="m 66.022494,120.4208 c -0.06987,-0.18291 -0.09621,-8.6074 -0.05854,-18.7211 l 0.06849,-18.388544 18.324171,-0.06796 18.324175,-0.06796 -0.0679,18.721084 -0.0679,18.72109 -18.197713,0.068 c -14.41779,0.0539 -18.224094,-0.001 -18.324737,-0.26458 z m 28.452653,-5.62745 c 0,-0.35114 -1.20327,-0.3916 -9.833747,-0.33073 -7.581858,0.0535 -9.858977,0.14511 -9.943924,0.4001 -0.08684,0.26067 1.996236,0.33073 9.833747,0.33073 8.698225,0 9.943924,-0.0501 9.943924,-0.4001 z m -8.466667,-7.80198 0.132291,-6.4823 2.910417,-0.13229 2.910417,-0.13229 v -0.79375 -0.79375 l -7.203791,-0.07039 -7.20379,-0.07039 -0.171942,0.685072 c -0.09457,0.376789 -0.06591,0.791103 0.06368,0.920698 0.129594,0.1296 1.543674,0.26971 3.142399,0.31136 l 2.906773,0.0757 0.06748,6.21771 c 0.03711,3.41975 0.125452,6.37378 0.196311,6.56454 0.08306,0.22359 0.482129,0.3176 1.123149,0.26458 l 0.994314,-0.0822 z M 75.425146,98.91685 c 3.565261,-2.004038 6.696427,-3.828754 6.958147,-4.054926 0.325526,-0.28131 0.450904,-0.700666 0.396875,-1.327433 -0.07779,-0.902438 -0.176432,-0.971513 -6.561272,-4.594726 -8.061701,-4.574783 -7.649286,-4.37285 -7.952396,-3.893774 -0.351301,0.555242 -0.302942,1.663071 0.09644,2.209256 0.190369,0.260346 2.651623,1.741618 5.469452,3.291716 2.81783,1.550098 5.167604,2.953077 5.22172,3.11773 0.05412,0.164654 -2.345752,1.642043 -5.33304,3.283086 -5.075628,2.788258 -5.441956,3.039807 -5.592065,3.839961 -0.15715,0.83768 0.261656,2.08937 0.628686,1.87896 0.101839,-0.0584 3.102194,-1.74581 6.667453,-3.74985 z"
         id="path834"
         inkscape:connector-curvature="0" />
      <path
         style="fill:#323232;stroke-width:0.26458335"
         d="m 66.035949,120.52623 c -0.06987,-0.18291 -0.109665,-8.71283 -0.072,-18.82653 l 0.06849,-18.388544 h 18.25625 18.256256 v 18.653124 18.65313 l -18.197713,0.068 c -14.41779,0.0539 -18.183729,0.10902 -18.284372,-0.15456 z m 28.571489,-5.72966 c 0,-0.51848 -0.197696,-0.53045 -9.789583,-0.59309 -5.398717,-0.0353 -9.955216,0.0418 -10.158867,0.17174 -0.204212,0.13031 -0.296079,0.42642 -0.205518,0.66242 0.147327,0.38393 1.167066,0.41981 10.158867,0.35743 9.7956,-0.068 9.995101,-0.0799 9.995101,-0.5985 z m -8.651875,-1.24354 c 0.229133,-0.22913 0.3175,-2.0677 0.3175,-6.60592 v -6.28841 l 2.976563,-0.0748 2.976562,-0.0748 0.08577,-0.898293 c 0.05159,-0.540241 -0.05388,-0.986837 -0.264584,-1.120428 -0.192696,-0.122172 -3.531089,-0.223954 -7.418652,-0.226183 -6.939689,-0.004 -7.073774,0.0062 -7.369408,0.558583 -0.218575,0.408412 -0.222682,0.734773 -0.01498,1.190621 0.275947,0.60564 0.389925,0.62799 3.20222,0.62799 h 2.916089 v 6.46025 c 0,4.92063 0.07882,6.49205 0.330729,6.59369 0.633534,0.25564 1.946878,0.17304 2.262188,-0.14227 z M 75.705369,98.9915 c 9.846578,-5.551942 9.845681,-5.001556 0.01721,-10.550059 -3.838236,-2.166813 -7.14222,-3.93966 -7.342188,-3.93966 -0.544705,0 -0.497905,2.734142 0.05465,3.192721 0.230025,0.190904 2.637462,1.563965 5.349859,3.051246 2.712397,1.487281 4.963319,2.804181 5.002047,2.926444 0.03873,0.122264 -2.338942,1.54713 -5.283713,3.166369 l -5.35413,2.944072 -0.08197,1.255647 c -0.08009,1.22676 0.05097,1.98433 0.343279,1.98433 0.08009,0 3.362824,-1.814 7.294956,-4.03111 z"
         id="path832"
         inkscape:connector-curvature="0"
         sodipodi:nodetypes="csccccccccsccscscsccccccccscscccssscscsccss" />
      <path
         style="fill:#292929;stroke-width:0.26458335"
         d="m 66.022494,120.4208 c -0.06987,-0.18291 -0.09621,-8.6074 -0.05854,-18.7211 l 0.06849,-18.388544 h 18.25625 18.256256 v 18.653124 18.65313 l -18.197713,0.068 c -14.41779,0.0539 -18.224094,-0.001 -18.324737,-0.26458 z M 102.41265,101.96428 V 83.443447 H 84.288688 66.164729 v 18.520833 18.52084 h 18.123959 18.123962 z m -34.395837,17.80189 c -0.218282,-0.0848 -0.484349,-0.28512 -0.591261,-0.44521 -0.308553,-0.46199 -0.247628,-34.495469 0.06209,-34.686888 0.163921,-0.101309 0.264583,0.380459 0.264583,1.266295 0,1.031901 0.128858,1.541909 0.463021,1.832595 0.254662,0.221528 2.695443,1.629741 5.423959,3.129363 2.728515,1.499621 4.957241,2.79534 4.952724,2.879374 -0.0045,0.08404 -2.415533,1.469501 -5.357813,3.078815 l -5.349599,2.926023 -0.07877,1.638043 c -0.07332,1.52466 -0.03936,1.63803 0.490661,1.63803 0.313187,0 2.306922,-0.98226 4.430522,-2.18281 2.1236,-1.200545 3.956631,-2.222498 4.073402,-2.271005 0.116771,-0.04851 0.212311,0.341393 0.212311,0.866445 0,1.23915 0.585919,1.47071 3.721391,1.47071 h 2.364026 l 0.0036,6.01927 c 0.002,3.3106 0.07465,6.28429 0.161483,6.60821 l 0.157871,0.58894 -4.593255,0.0725 c -4.392691,0.0694 -4.593253,0.0956 -4.593253,0.60168 0,0.51902 0.199467,0.5305 10.403703,0.5984 l 10.403702,0.0692 -0.08495,-0.5984 c -0.08391,-0.59109 -0.139454,-0.59929 -4.542531,-0.67106 -3.907946,-0.0637 -4.438085,-0.12347 -4.299479,-0.48466 0.08695,-0.2266 0.158099,-3.20023 0.158099,-6.60807 v -6.19607 l 2.447396,-0.004 c 1.346068,-0.002 2.716589,-0.0757 3.045603,-0.16391 0.659238,-0.17665 1.000887,-1.078987 0.730771,-1.930052 -0.170358,-0.53675 -0.323655,-0.548263 -7.299933,-0.548263 -3.919256,0 -7.12592,-0.09776 -7.12592,-0.217243 0,-0.119484 1.001791,-0.779556 2.226204,-1.466827 1.224412,-0.687272 2.362782,-1.414151 2.52971,-1.615287 0.166928,-0.201136 0.266464,-0.868778 0.221192,-1.48365 l -0.08231,-1.117948 -6.845467,-3.871344 c -3.765006,-2.129239 -6.8011,-3.986446 -6.746875,-4.127127 0.06193,-0.160671 5.931512,-0.255783 15.784865,-0.255783 13.655487,0 15.718744,0.05138 15.937094,0.396875 0.33717,0.533498 0.33719,34.391449 2e-5,34.924999 -0.21793,0.34486 -2.376033,0.40321 -16.466258,0.44521 -8.918504,0.0266 -16.394056,-0.021 -16.612337,-0.10582 z"
         id="path830"
         inkscape:connector-curvature="0" />
      <path
         style="fill:#191919;stroke-width:0.26458335"
         d="m 65.991099,120.5079 c -0.06987,-0.18291 -0.06482,-8.6945 -0.02715,-18.8082 l 0.06849,-18.388544 h 18.25625 18.256256 v 18.653124 18.65313 l -18.197713,0.068 c -14.41779,0.0539 -18.242034,0.16861 -18.342677,-0.095 z M 102.41265,101.96428 V 83.443447 H 84.288688 66.164729 v 18.520833 18.52084 H 84.288688 102.41265 Z M 67.930619,119.2524 c -0.09811,-0.0981 -0.17839,-3.73043 -0.17839,-8.0718 0,-7.33983 0.03247,-7.89364 0.463021,-7.89682 0.254662,-0.002 2.248959,-1.00895 4.431771,-2.23792 l 3.96875,-2.2345 0.156216,0.739661 c 0.278532,1.318809 0.36977,1.354929 3.422268,1.354929 h 2.885795 l 0.07515,6.48249 0.07515,6.4825 -4.233334,0.004 c -2.328333,0.002 -4.392578,0.10478 -4.587211,0.22815 -0.194633,0.12337 -0.313696,0.5085 -0.264584,0.85585 l 0.0893,0.63154 h 10.289914 c 9.642316,0 10.308381,-0.0301 10.583333,-0.47851 0.234937,-0.38314 0.19105,-0.55454 -0.22017,-0.8599 -0.393925,-0.29252 -1.441924,-0.38133 -4.497917,-0.38117 l -3.984326,2e-4 0.07515,-6.4825 0.07515,-6.48249 h 2.615187 c 1.438354,0 2.803519,-0.0723 3.033703,-0.1606 0.523956,-0.20106 0.573314,-2.027387 0.06617,-2.448282 -0.231979,-0.192524 -2.680709,-0.316576 -7.167955,-0.363126 l -6.815607,-0.0707 2.074726,-1.16465 c 1.141099,-0.640558 2.283085,-1.34362 2.537746,-1.562362 0.567448,-0.487408 0.622796,-2.234791 0.08774,-2.769852 -0.206408,-0.206407 -3.184285,-1.954814 -6.617504,-3.885347 -3.43322,-1.930534 -6.308056,-3.616591 -6.388526,-3.746794 -0.08561,-0.138517 6.254852,-0.208402 15.282607,-0.168448 l 15.428908,0.06829 v 17.330211 17.33021 l -16.291914,0.0682 c -8.960558,0.0375 -16.372198,-0.0121 -16.470313,-0.11024 z m -0.17839,-25.467219 c 0,-3.214099 0.07619,-5.843817 0.16932,-5.843817 0.295965,0 10.414286,5.63732 10.407859,5.798633 -0.0055,0.138921 -2.563614,1.574464 -8.526658,4.784992 l -2.050521,1.104009 z"
         id="path828"
         inkscape:connector-curvature="0"
         sodipodi:nodetypes="csccccccccccccccccccscccssccccsccsccccccsccscsccscsccccccsscscs" />
    </g>
  </g>
</svg>
