<?xml version="1.0" encoding="UTF-8" standalone="no"?>
<!DOCTYPE svg PUBLIC "-//W3C//DTD SVG 1.1//EN" "http://www.w3.org/Graphics/SVG/1.1/DTD/svg11.dtd">
<svg width="100%" height="100%" viewBox="0 0 129 82" version="1.1" xmlns="http://www.w3.org/2000/svg" xmlns:xlink="http://www.w3.org/1999/xlink" xml:space="preserve" xmlns:serif="http://www.serif.com/" style="fill-rule:evenodd;clip-rule:evenodd;stroke-linecap:round;stroke-linejoin:round;stroke-miterlimit:1.5;">
    <g transform="matrix(1.54631,0,0,1.54631,-100.418,-347.98)">
        <path d="M65.264,263.707C65.264,263.707 90.021,211.148 105.141,277.503" style="fill:none;stroke:black;stroke-width:0.65px;"/>
        <path d="M92.856,225.362C92.856,225.362 109.109,263.876 113.267,277.503" style="fill:none;stroke:black;stroke-width:0.65px;"/>
        <path d="M65.264,263.16C65.264,263.16 93.801,248.607 148.041,249.363" style="fill:none;stroke:black;stroke-width:0.65px;"/>
        <path d="M65.264,241.804C65.264,241.804 119.504,237.646 138.403,225.362" style="fill:none;stroke:black;stroke-width:0.65px;"/>
        <path d="M106.652,225.362C106.652,225.362 69.61,255.789 65.264,263.16" style="fill:none;stroke:black;stroke-width:0.65px;"/>
        <path d="M101.833,225.362C101.833,225.362 119.315,270.868 133.867,277.503" style="fill:none;stroke:black;stroke-width:0.65px;"/>
        <path d="M148.041,265.427C148.041,265.427 115.724,274.648 97.014,277.503" style="fill:none;stroke:black;stroke-width:0.65px;"/>
        <path d="M148.041,246.5C148.041,246.5 126.496,241.426 114.779,225.362" style="fill:none;stroke:black;stroke-width:0.65px;"/>
    </g>
</svg>
