<?xml version="1.0" encoding="UTF-8" standalone="no"?>
<!DOCTYPE svg PUBLIC "-//W3C//DTD SVG 1.1//EN" "http://www.w3.org/Graphics/SVG/1.1/DTD/svg11.dtd">
<svg width="100%" height="100%" viewBox="0 0 128 128" version="1.1" xmlns="http://www.w3.org/2000/svg" xmlns:xlink="http://www.w3.org/1999/xlink" xml:space="preserve" xmlns:serif="http://www.serif.com/" style="fill-rule:evenodd;clip-rule:evenodd;stroke-linejoin:round;stroke-miterlimit:2;">
    <g transform="matrix(1,0,0,1,-1274.81,-540.258)">
        <g transform="matrix(1.02651,0,0,1.02651,185.813,-130.654)">
            <path d="M1185.57,666.054C1185.57,659.172 1179.98,653.585 1173.1,653.585L1073.34,653.585C1066.46,653.585 1060.87,659.172 1060.87,666.054L1060.87,765.81C1060.87,772.692 1066.46,778.279 1073.34,778.279L1173.1,778.279C1179.98,778.279 1185.57,772.692 1185.57,765.81L1185.57,666.054Z" style="fill:rgb(46,204,113);"/>
        </g>
        <g transform="matrix(0.870205,0,0,0.870205,359.94,-16.8394)">
            <path d="M1113.37,676.852C1113.04,675.698 1112.24,674.735 1111.17,674.198C1110.09,673.661 1108.85,673.601 1107.73,674.032C1090.14,681.016 1078.33,698.092 1078.33,717.327C1078.33,743.013 1099.19,763.867 1124.87,763.867C1150.56,763.867 1171.41,743.013 1171.41,717.327C1171.41,697.906 1159.38,680.708 1141.54,673.874C1140.43,673.461 1139.2,673.534 1138.15,674.074C1137.09,674.614 1136.32,675.572 1136,676.714C1135.98,676.708 1135.98,676.709 1135.98,676.71C1135.4,678.829 1136.53,681.04 1138.59,681.81C1153.16,687.401 1162.97,701.458 1162.97,717.327C1162.97,738.354 1145.9,755.425 1124.87,755.425C1103.85,755.425 1086.77,738.354 1086.77,717.327C1086.77,701.589 1096.43,687.617 1110.82,681.914C1112.84,681.136 1113.93,678.945 1113.34,676.862C1113.37,676.854 1113.37,676.853 1113.37,676.852Z" style="fill:rgb(30,30,36);"/>
        </g>
        <g transform="matrix(0.870205,0,0,0.870205,359.94,-16.8394)">
            <path d="M1129.6,667.74C1129.6,665.132 1127.48,663.014 1124.87,663.014C1122.26,663.014 1120.15,665.132 1120.15,667.74L1120.15,701.076C1120.15,703.684 1122.26,705.802 1124.87,705.802C1127.48,705.802 1129.6,703.684 1129.6,701.076L1129.6,667.74Z" style="fill:rgb(30,30,36);"/>
        </g>
    </g>
</svg>
