<svg xmlns="http://www.w3.org/2000/svg" width="82.001" height="128"><defs/><path d="M1.647 73.838A5.814 5.814 0 015.935 72H24.5a1.5 1.5 0 001.5-1.5V6a6.007 6.007 0 016-6h18a6.008 6.008 0 016 6v64.6a1.5 1.5 0 001.5 1.4h18.566a5.82 5.82 0 014.288 1.838A6.129 6.129 0 0182 77.987a5.871 5.871 0 01-1.31 3.692l-35.064 44.085a5.9 5.9 0 01-9.25 0L1.309 81.679A5.887 5.887 0 010 77.987a6.126 6.126 0 011.647-4.149zM32 72v3a3.007 3.007 0 01-3 3H10.539a2.235 2.235 0 00-2.172 2.28 2.3 2.3 0 00.478 1.407l30.168 38.461a2.11 2.11 0 003.386 0l30.17-38.462a2.323 2.323 0 00.478-1.407A2.236 2.236 0 0070.875 78H53a2.988 2.988 0 01-3-2.9V9a3 3 0 00-3-3H35a3 3 0 00-3 3v56.1z"/></svg>