<svg xmlns="http://www.w3.org/2000/svg" xmlns:xlink="http://www.w3.org/1999/xlink" width="114" height="146.001" viewBox="0 0 114 146.001">
  <defs>
    <filter id="Pfad_82" x="0" y="0" width="114" height="146.001" filterUnits="userSpaceOnUse">
      <feOffset dy="3" input="SourceAlpha"/>
      <feGaussianBlur stdDeviation="3" result="blur"/>
      <feFlood flood-opacity="0.161"/>
      <feComposite operator="in" in2="blur"/>
      <feComposite in="SourceGraphic"/>
    </filter>
  </defs>
  <g id="file-txt" transform="translate(-591 -456)">
    <g id="file-blank" transform="translate(356 6)">
      <g transform="matrix(1, 0, 0, 1, 235, 450)" filter="url(#Pfad_82)">
        <path id="Pfad_82-2" data-name="Pfad 82" d="M7040,193.765h-84a6.007,6.007,0,0,1-6-6v-116a6.007,6.007,0,0,1,6-6h43.924L7046,111.841v75.924A6.007,6.007,0,0,1,7040,193.765Z" transform="translate(-6941 -59.76)" fill="#e0e0e0"/>
      </g>
      <path id="Pfad_81" data-name="Pfad 81" d="M7011.086,115.861h-40.078a5.015,5.015,0,0,1-5.008-5.01V70.775a5.019,5.019,0,0,1,4.027-4.914L7016,111.833A5.019,5.019,0,0,1,7011.086,115.861Z" transform="translate(-6676 390.139)" fill="#f1eeee"/>
    </g>
    <path id="Pfad_146" data-name="Pfad 146" d="M.19-17.48H3.268v-6.08h5.51v6.08h3.116v4.75H8.778V0H3.268V-12.73H.19Zm25.346,0H31.92L25.232-8.968,32.3,0H25.916L22.268-5.092,18.7,0H12.084l7.182-8.968-6.8-8.512h6.612l3.192,4.6Zm6.954,0h3.078v-6.08h5.51v6.08h3.116v4.75H41.078V0h-5.51V-12.73H32.49Z" transform="translate(625.809 562.56)" fill="#292929"/>
  </g>
</svg>
