<svg xmlns="http://www.w3.org/2000/svg" xmlns:xlink="http://www.w3.org/1999/xlink" width="114" height="146.001" viewBox="0 0 114 146.001">
  <defs>
    <filter id="Pfad_82" x="0" y="0" width="114" height="146.001" filterUnits="userSpaceOnUse">
      <feOffset dy="3" input="SourceAlpha"/>
      <feGaussianBlur stdDeviation="3" result="blur"/>
      <feFlood flood-opacity="0.161"/>
      <feComposite operator="in" in2="blur"/>
      <feComposite in="SourceGraphic"/>
    </filter>
  </defs>
  <g id="file-code" transform="translate(-413 -450)">
    <g id="file" transform="translate(178)">
      <g transform="matrix(1, 0, 0, 1, 235, 450)" filter="url(#Pfad_82)">
        <path id="Pfad_82-2" data-name="Pfad 82" d="M7040,193.765h-84a6.007,6.007,0,0,1-6-6v-116a6.007,6.007,0,0,1,6-6h43.924L7046,111.841v75.924A6.007,6.007,0,0,1,7040,193.765Z" transform="translate(-6941 -59.76)" fill="#e0e0e0"/>
      </g>
      <path id="Pfad_81" data-name="Pfad 81" d="M7011.086,115.861h-40.078a5.015,5.015,0,0,1-5.008-5.01V70.775a5.019,5.019,0,0,1,4.027-4.914L7016,111.833A5.019,5.019,0,0,1,7011.086,115.861Z" transform="translate(-6676 390.139)" fill="#f1eeee"/>
    </g>
    <path id="Pfad_145" data-name="Pfad 145" d="M10.542-10.336,21.617-5.819V-.209L2.47-8.266v-3.8l19.147-8.056v5.572ZM40.876-26.6H46.32L30.289,5.4H24.62ZM60.4-10.035,49.323-14.553v-5.572L68.47-12.068v3.8L49.323-.209V-5.819Z" transform="translate(434.53 555.6)" fill="#292929"/>
  </g>
</svg>
