<svg xmlns="http://www.w3.org/2000/svg" xmlns:xlink="http://www.w3.org/1999/xlink" width="145.999" height="133.808" viewBox="0 0 145.999 133.808">
  <defs>
    <filter id="Pfad_36" x="0" y="0" width="145.999" height="56.603" filterUnits="userSpaceOnUse">
      <feOffset dy="3" input="SourceAlpha"/>
      <feGaussianBlur stdDeviation="3" result="blur"/>
      <feFlood flood-opacity="0.161"/>
      <feComposite operator="in" in2="blur"/>
      <feComposite in="SourceGraphic"/>
    </filter>
    <filter id="Rechteck_41" x="7.9" y="22.827" width="130.2" height="27.868" filterUnits="userSpaceOnUse">
      <feOffset dy="3" input="SourceAlpha"/>
      <feGaussianBlur stdDeviation="2.5" result="blur-2"/>
      <feFlood flood-opacity="0.161"/>
      <feComposite operator="in" in2="blur-2"/>
      <feComposite in="SourceGraphic"/>
    </filter>
    <filter id="Rechteck_38" x="0" y="32.169" width="145.999" height="101.639" filterUnits="userSpaceOnUse">
      <feOffset dy="3" input="SourceAlpha"/>
      <feGaussianBlur stdDeviation="3" result="blur-3"/>
      <feFlood flood-opacity="0.161"/>
      <feComposite operator="in" in2="blur-3"/>
      <feComposite in="SourceGraphic"/>
    </filter>
  </defs>
  <g id="folder" transform="translate(7492 630.63)">
    <g transform="matrix(1, 0, 0, 1, -7492, -630.63)" filter="url(#Pfad_36)">
      <path id="Pfad_36-2" data-name="Pfad 36" d="M51.2,38.6H0V6.095A6.1,6.1,0,0,1,6.095,0H51.5A6.1,6.1,0,0,1,57.6,6.095v6.772h64.3a6.1,6.1,0,0,1,6.1,6.1V38.6Z" transform="translate(9 6)" fill="#fec007"/>
    </g>
    <g transform="matrix(1, 0, 0, 1, -7492, -630.63)" filter="url(#Rechteck_41)">
      <path id="Rechteck_41-2" data-name="Rechteck 41" d="M2,0H113.2a2,2,0,0,1,2,2V12.868a0,0,0,0,1,0,0H0a0,0,0,0,1,0,0V2A2,2,0,0,1,2,0Z" transform="translate(15.4 27.33)" fill="#e2e2e2"/>
    </g>
    <g transform="matrix(1, 0, 0, 1, -7492, -630.63)" filter="url(#Rechteck_38)">
      <rect id="Rechteck_38-2" data-name="Rechteck 38" width="127.999" height="83.639" rx="4" transform="translate(9 38.17)" fill="#fec007"/>
    </g>
  </g>
</svg>
