<svg xmlns="http://www.w3.org/2000/svg" xmlns:xlink="http://www.w3.org/1999/xlink" width="100%" height="100%" viewBox="0 0 363 363" fill-rule="evenodd" stroke-linecap="round" stroke-linejoin="round" stroke-miterlimit="1.5" xmlns:v="https://vecta.io/nano"><style><![CDATA[.B{stroke-width:5}]]></style><g stroke="#520000" class="B"><path d="M195.76 55.258c2.964-7.2 2.926-17.553-6.378-31.688 0 0 34.5 34.35 14.5 55.06-8.44 8.744-16.198 9.9-22.474 7.872-6.275 2.038-14.033.872-22.473-7.872-20-20.7 14.5-55.06 14.5-55.06-9.305 14.135-9.342 24.487-6.378 31.688 1.81-4.715 5.294-9.755 11.76-14.005-1.388-2.45-2.48-4.002-2.48-4.002a48.73 48.73 0 0 1 5.061 2.439 48.75 48.75 0 0 1 5.062-2.439s-1.09 1.55-2.48 4.002c6.465 4.25 9.95 9.3 11.76 14.005zm-14.342-8.914c-3.02 6.764-5.335 15.74 0 21.24 5.336-5.498 3.022-14.473 0-21.24z" fill="url(#A)"/><path d="M254.304 110.95s6.408-22.577-20.54-33.77c0 0 15.754 22.386 3.73 31.507 0 0-28.19-12.437-6.633-45.188 0 0-34.5 34.35-14.5 55.06 20.353 21.085 36.74-1.894 37.95-7.6z" fill="url(#B)"/><path d="M182.935 113.088s-14.61-51.477 46.83-77c0 0-35.92 51.044-8.507 71.84 0 0 64.278-28.358 15.124-103.034 0 0 78.662 78.326 33.084 125.545-46.406 48.077-83.77-4.317-86.532-17.352z" fill="url(#C)"/><path d="M108.53 110.95s-6.408-22.577 20.54-33.77c0 0-15.754 22.386-3.732 31.507 0 0 28.19-12.437 6.634-45.188 0 0 34.5 34.35 14.5 55.06-20.353 21.085-36.74-1.894-37.95-7.6z" fill="url(#D)"/><path d="M179.9 113.088s14.612-51.477-46.83-77c0 0 35.92 51.044 8.507 71.84 0 0-64.278-28.358-15.124-103.034 0 0-78.662 78.326-33.084 125.545 46.405 48.077 83.77-4.317 86.53-17.352z" fill="url(#E)"/></g><g fill="#850000" stroke="#8ea8ff" class="B"><path d="M8.513 311.8h115.27v46.13H8.513z"/><path d="M123.782 311.8h115.27v46.13h-115.27z"/><path d="M66.148 265.68h115.27v46.13H66.148z"/><path d="M181.417 265.68h115.27v46.13h-115.27z"/><path d="M123.782 219.553h115.27v46.13h-115.27z"/><path d="M8.513 219.553h115.27v46.13H8.513zm230.54 0h115.27v46.13h-115.27z"/><path d="M181.417 173.424h115.27v46.13h-115.27z"/><path d="M66.148 173.424h115.27v46.13H66.148z"/><path d="M123.782 127.295h115.27v46.13h-115.27z"/><path d="M239.052 127.295h115.27v46.13h-115.27zm-230.54 0h115.27v46.13H8.513zM239.052 311.8h115.27v46.13h-115.27z"/></g><defs><linearGradient id="A" x1="218.257" y1="147.075" x2="218.257" y2="74.413" xlink:href="#F"><stop offset="0" stop-color="#e85206"/><stop offset="1" stop-color="#d70000"/></linearGradient><linearGradient id="B" x1="0" y1="0" x2="1" y2="0" gradientTransform="matrix(-1.95134e-15,-31.8679,-31.8679,1.95134e-15,232.546,127.234)" xlink:href="#F"><stop offset="0" stop-color="#e85206"/><stop offset="1" stop-color="#d70000"/></linearGradient><linearGradient id="C" x1="232.546" y1="150.22" x2="232.546" y2="77.558" xlink:href="#F"><stop offset="0" stop-color="#e85206"/><stop offset="1" stop-color="#d70000"/></linearGradient><linearGradient id="D" x1="130.289" y1="127.234" x2="130.289" y2="95.366" xlink:href="#F"><stop offset="0" stop-color="#e85206"/><stop offset="1" stop-color="#d70000"/></linearGradient><linearGradient id="E" x1="0" y1="0" x2="1" y2="0" gradientTransform="matrix(-4.44927e-15,-72.6621,-72.6621,4.44927e-15,130.289,150.22)" xlink:href="#F"><stop offset="0" stop-color="#e85206"/><stop offset="1" stop-color="#d70000"/></linearGradient><linearGradient id="F" gradientUnits="userSpaceOnUse"/></defs></svg>