<svg xmlns="http://www.w3.org/2000/svg" xmlns:xlink="http://www.w3.org/1999/xlink" width="146" height="146" viewBox="0 0 146 146">
  <defs>
    <filter id="Rechteck_81" x="0" y="0" width="146" height="146" filterUnits="userSpaceOnUse">
      <feOffset dy="3" input="SourceAlpha"/>
      <feGaussianBlur stdDeviation="3" result="blur"/>
      <feFlood flood-opacity="0.161"/>
      <feComposite operator="in" in2="blur"/>
      <feComposite in="SourceGraphic"/>
    </filter>
  </defs>
  <g id="firewall-dark" transform="translate(-1821 -44)">
    <g transform="matrix(1, 0, 0, 1, 1821, 44)" filter="url(#Rechteck_81)">
      <rect id="Rechteck_81-2" data-name="Rechteck 81" width="128" height="128" rx="6" transform="translate(9 6)" fill="#4f4f4f"/>
    </g>
    <path id="Pfad_127" data-name="Pfad 127" d="M7041.936,100h-85.909A6.05,6.05,0,0,1,6950,93.939V81.816a6.049,6.049,0,0,1,6.027-6.059H6970.1V63.546s0-.007,0-.013v-.068l0-.007v-.046a.176.176,0,0,0,0-.029V63.36a.116.116,0,0,0,0-.025V63.27l0-.013,0-.014v-.011c0-.005,0-.011,0-.014a.213.213,0,0,1,0-.039l0-.005v-.016c0-.005,0-.013,0-.018s0-.014,0-.02v-.038l0-.007,0-.009v-.016c0-.005,0-.009,0-.014l0-.013a.126.126,0,0,1,0-.027.093.093,0,0,1,0-.023c.01-.107.024-.222.048-.356h-14.159A6.051,6.051,0,0,1,6950,56.557V44.43a6.049,6.049,0,0,1,6.027-6.057H6970.1V26.247h-14.073A6.052,6.052,0,0,1,6950,20.185V8.061A6.051,6.051,0,0,1,6956.029,2h85.909A6.068,6.068,0,0,1,7048,8.061V20.185c0,.049,0,.1,0,.145V26.1c0,.048,0,.1,0,.145V38.373c0,.049,0,.1,0,.145V63.484c0,.048,0,.1,0,.145V75.753c0,.049,0,.1,0,.145v5.77c0,.048,0,.1,0,.145V93.939a6.036,6.036,0,0,1-.219,1.617.1.1,0,0,1,0,.012c0,.016-.008.031-.013.046s-.01.031-.014.047l0,.01a5.986,5.986,0,0,1-.911,1.832h0l-.036.048-.031.041-.005.007a6.124,6.124,0,0,1-1.163,1.162l-.014.011-.035.026a6,6,0,0,1-2.54,1.1l-.009,0-.055.009-.027,0-.036.006-.043.007-.022,0-.058.008h0a6.089,6.089,0,0,1-.806.056h-.015Zm-11.525-15.258v6.27a3.01,3.01,0,0,0,3.014,2.927h5.482a3.034,3.034,0,0,0,3.029-3.032V84.846a3.034,3.034,0,0,0-2.926-3.03h-5.585A3.009,3.009,0,0,0,7030.411,84.743Zm-37.193.1v6.063a3.028,3.028,0,0,0,3.018,3.03h25.128a3.026,3.026,0,0,0,3.015-3.03V84.846a3.026,3.026,0,0,0-3.015-3.03h-25.128A3.028,3.028,0,0,0,6993.218,84.846Zm-37.19,0v6.063a3.028,3.028,0,0,0,3.018,3.03h25.128a3.027,3.027,0,0,0,3.014-3.03V84.846a3.027,3.027,0,0,0-3.014-3.03h-25.128A3.028,3.028,0,0,0,6956.027,84.846Zm57.3-18.183v6.061a3.027,3.027,0,0,0,3.016,3.03h12.969v0h9.6a3.033,3.033,0,0,0,3.029-3.03V66.66a3.033,3.033,0,0,0-3.029-3.03h-22.567A3.029,3.029,0,0,0,7013.323,66.664Zm-37.189,0v6.061a3.025,3.025,0,0,0,3.013,3.03h25.13a3.027,3.027,0,0,0,3.017-3.03V66.664a3.029,3.029,0,0,0-3.017-3.034h-25.13A3.027,3.027,0,0,0,6976.134,66.664Zm54.277-19.3v6.268a3.01,3.01,0,0,0,3.014,2.927h5.583a3.035,3.035,0,0,0,2.928-3.03V47.464a3.035,3.035,0,0,0-2.883-3.029h-5.777A3.01,3.01,0,0,0,7030.411,47.361Zm-37.087-.69c0,.011-.005.02-.007.029l0,.009a.135.135,0,0,1,0,.018l0,.005a.091.091,0,0,1,0,.011v.005a.141.141,0,0,0-.007.03.006.006,0,0,0,0,.005.172.172,0,0,0-.007.03s0,.005,0,.007,0,.02-.005.03l0,.005,0,.029,0,.009c0,.009,0,.02-.005.029a.013.013,0,0,1,0,.007l0,.009c0,.009,0,.014,0,.02a.023.023,0,0,0,0,.009c0,.011,0,.02-.005.029V47l-.005.027a.021.021,0,0,1,0,.011c0,.009,0,.018,0,.027s0,.011,0,.013V47.1a.042.042,0,0,0,0,.013v.005l0,.007s0,.009,0,.013a.036.036,0,0,1,0,.014v.011l0,.011a.054.054,0,0,1,0,.014V47.2a.108.108,0,0,0,0,.025v0a.021.021,0,0,0,0,.011v.009a.047.047,0,0,0,0,.014v.014a.108.108,0,0,0,0,.025.037.037,0,0,1,0,.013v.03a.018.018,0,0,0,0,.009V47.4a.028.028,0,0,1,0,.013v6.111a3.028,3.028,0,0,0,3.018,3.03h25.128a3.026,3.026,0,0,0,3.015-3.03V47.387a.093.093,0,0,1,0-.023v-.032a.08.08,0,0,1,0-.021V47.3a.124.124,0,0,1,0-.023v-.007a.01.01,0,0,1,0-.007.124.124,0,0,0,0-.023v-.016a.087.087,0,0,1,0-.023.021.021,0,0,1,0-.011.06.06,0,0,0,0-.016v-.007l0,0v-.011c0-.005,0-.009,0-.014a.041.041,0,0,0,0-.014V47.11a.16.16,0,0,1,0-.029v-.005s0,0,0-.005,0-.009,0-.013a.06.06,0,0,0,0-.016.017.017,0,0,0,0-.011s0-.009,0-.013a.036.036,0,0,0,0-.014V47a.006.006,0,0,1,0-.005c0-.011,0-.018-.005-.027v-.021l0-.014v-.005a.006.006,0,0,1,0-.005l-.005-.027a.015.015,0,0,0,0-.009s0-.009,0-.014l0-.014,0-.007c0-.011,0-.02-.005-.029s0-.005,0-.007a.141.141,0,0,0-.007-.03v-.005a.153.153,0,0,1-.007-.032c0-.014-.007-.025-.011-.036a3.022,3.022,0,0,0-2.92-2.278h-25.128A3.026,3.026,0,0,0,6993.323,46.671Zm-37.3.793v6.061a3.028,3.028,0,0,0,3.018,3.03h25.128a3.027,3.027,0,0,0,3.014-3.03V47.364a.036.036,0,0,1,0-.014v-.018a.106.106,0,0,1,0-.021v-.027a.021.021,0,0,1,0-.011v-.014a.047.047,0,0,1,0-.014l0-.009v-.016a.021.021,0,0,0,0-.011V47.2a.027.027,0,0,1,0-.011v-.014a.023.023,0,0,1,0-.013s0-.005,0-.005v-.018c0-.005,0-.011,0-.016V47.11a.042.042,0,0,1,0-.014l0-.014a.006.006,0,0,0,0-.005v-.005a.125.125,0,0,0,0-.025.028.028,0,0,0,0-.014.162.162,0,0,0,0-.027.027.027,0,0,0,0-.011l0-.009c0-.007,0-.013,0-.018a.023.023,0,0,0,0-.009.087.087,0,0,1,0-.029.013.013,0,0,1,0-.007l0-.018,0-.011a.013.013,0,0,1,0-.007v-.014l0-.016,0-.005a.047.047,0,0,1,0-.018l0-.014c0-.014,0-.025-.007-.038l0-.009a.024.024,0,0,0,0-.013v-.014a.25.25,0,0,1-.007-.025l0-.011a3.017,3.017,0,0,0-2.919-2.278h-25.128A3.028,3.028,0,0,0,6956.027,47.464Zm57.3-18.186v6.063a3.027,3.027,0,0,0,3.016,3.03h22.67a3.033,3.033,0,0,0,2.926-3.029V29.28a3.033,3.033,0,0,0-3.029-3.03h-9.6v0h-12.969A3.027,3.027,0,0,0,7013.323,29.278Zm-37.189,0v6.063a3.025,3.025,0,0,0,3.013,3.03h25.13a3.027,3.027,0,0,0,3.017-3.03V29.278a3.027,3.027,0,0,0-3.017-3.03h-25.13A3.025,3.025,0,0,0,6976.134,29.278Zm54.277-18.288v6.268a3.013,3.013,0,0,0,3.016,2.927h5.48a3.033,3.033,0,0,0,3.029-3.03V11.092a3.033,3.033,0,0,0-3.029-3.03h-5.48A3.014,3.014,0,0,0,7030.411,10.99Zm-37.191.1v6.063a3.025,3.025,0,0,0,3.016,3.029h25.13a3.025,3.025,0,0,0,3.014-3.029V11.093a3.027,3.027,0,0,0-3.014-3.032h-25.13A3.027,3.027,0,0,0,6993.22,11.093Zm-37.191,0v6.063a3.026,3.026,0,0,0,3.016,3.029h25.128a3.025,3.025,0,0,0,3.016-3.029V11.093a3.027,3.027,0,0,0-3.016-3.032h-25.128A3.028,3.028,0,0,0,6956.029,11.093Z" transform="translate(-5105 63)" fill="#c2c2c2"/>
    <path id="Pfad_108" data-name="Pfad 108" d="M6970,52a1.646,1.646,0,0,1-.684-.148,44.821,44.821,0,0,1-6.6-4.334,34.843,34.843,0,0,1-4.915-4.765,30.72,30.72,0,0,1-5.751-10.35c-2.341-7.1-2.137-14.313-1.956-20.672v-.092l.007-.257.006-.216v-.022q.005-.143.009-.285l0-.079.009-.348,0-.181c.014-.464.025-.866.035-1.275h.01a1.726,1.726,0,0,1,1.7-1.744c9.574-.385,15.14-3.544,17.088-4.885h.006a1.672,1.672,0,0,1,2.041,0h0c1.948,1.34,7.511,4.5,17.094,4.885a1.656,1.656,0,0,1,1.2.511,1.757,1.757,0,0,1,.5,1.232h.009c.017.888.042,1.813.068,2.681v.085c.182,6.357.389,13.562-1.951,20.664a30.694,30.694,0,0,1-5.747,10.348,34.77,34.77,0,0,1-4.913,4.763,44.7,44.7,0,0,1-6.6,4.333A1.655,1.655,0,0,1,6970,52Z" transform="translate(-5076 86.999)" fill="#4daf30"/>
  </g>
</svg>
