<svg xmlns="http://www.w3.org/2000/svg" xmlns:xlink="http://www.w3.org/1999/xlink" width="146" height="146" viewBox="0 0 146 146">
  <defs>
    <filter id="Rechteck_84" x="0" y="0" width="146" height="146" filterUnits="userSpaceOnUse">
      <feOffset dy="3" input="SourceAlpha"/>
      <feGaussianBlur stdDeviation="3" result="blur"/>
      <feFlood flood-opacity="0.161"/>
      <feComposite operator="in" in2="blur"/>
      <feComposite in="SourceGraphic"/>
    </filter>
  </defs>
  <g id="browser-dark" transform="translate(-1999 -45)">
    <g transform="matrix(1, 0, 0, 1, 1999, 45)" filter="url(#Rechteck_84)">
      <rect id="Rechteck_84-2" data-name="Rechteck 84" width="128" height="128" rx="6" transform="translate(9 6)" fill="#4f4f4f"/>
    </g>
    <path id="Pfad_137" data-name="Pfad 137" d="M7050,151a49,49,0,1,1,49-49A49.056,49.056,0,0,1,7050,151Zm-33.646-22.251h0a43.412,43.412,0,0,0,22.231,14.714c-.364-.346-.713-.688-1.037-1.014a56.43,56.43,0,0,1-10.1-13.7h-11.1Zm56.193,0h0a56.443,56.443,0,0,1-10.1,13.7c-.337.337-.677.668-1.039,1.012a43.379,43.379,0,0,0,22.231-14.712h-11.1Zm-19.547,0v12.816a49.809,49.809,0,0,0,11.549-12.816Zm-17.549,0h0A49.819,49.819,0,0,0,7047,141.565V128.749h-11.549Zm43.47-23.25a56.039,56.039,0,0,1-3.657,17.25h12.392a42.478,42.478,0,0,0,5.2-17.25H7078.92Zm-25.92,0v17.25h14.757a49.119,49.119,0,0,0,4.237-17.25Zm-24.993,0h0a49.127,49.127,0,0,0,4.235,17.25H7047V105.5Zm-20.867,0h0a42.484,42.484,0,0,0,5.2,17.25h12.392a56.031,56.031,0,0,1-3.661-17.25Zm68.124-23.25h0a56.035,56.035,0,0,1,3.657,17.25h14.007a42.492,42.492,0,0,0-4.739-17.25h-12.925Zm-22.264,0V99.5h18.994a49.143,49.143,0,0,0-4.237-17.25Zm-20.758,0h0a49.181,49.181,0,0,0-4.235,17.249H7047V82.249h-14.757Zm-20.433,0h0A42.49,42.49,0,0,0,7007.07,99.5h14.007a55.969,55.969,0,0,1,3.659-17.25H7011.81Zm48.1-22.1h0c.869.768,1.725,1.574,2.545,2.395a56.485,56.485,0,0,1,10.1,13.7h11.87A43.143,43.143,0,0,0,7059.906,60.153ZM7053,63.434V76.248h11.549A49.812,49.812,0,0,0,7053,63.434Zm-6,0a49.815,49.815,0,0,0-11.549,12.814H7047V63.434Zm-6.9-3.282a43.137,43.137,0,0,0-24.514,16.1h11.868a56.509,56.509,0,0,1,10.1-13.7c.814-.814,1.672-1.62,2.548-2.4Z" transform="translate(-4978 12.999)" fill="#4daf30"/>
  </g>
</svg>
