<svg xmlns="http://www.w3.org/2000/svg" xmlns:xlink="http://www.w3.org/1999/xlink" width="146" height="146" viewBox="0 0 146 146">
  <defs>
    <filter id="Rechteck_80" x="0" y="0" width="146" height="146" filterUnits="userSpaceOnUse">
      <feOffset dy="3" input="SourceAlpha"/>
      <feGaussianBlur stdDeviation="3" result="blur"/>
      <feFlood flood-opacity="0.161"/>
      <feComposite operator="in" in2="blur"/>
      <feComposite in="SourceGraphic"/>
    </filter>
  </defs>
  <g id="trash-dark" transform="translate(-1465 -44)">
    <g transform="matrix(1, 0, 0, 1, 1465, 44)" filter="url(#Rechteck_80)">
      <rect id="Rechteck_80-2" data-name="Rechteck 80" width="128" height="128" rx="6" transform="translate(9 6)" fill="#d5d6d7"/>
    </g>
    <path id="Pfad_92" data-name="Pfad 92" d="M6967,92a6.006,6.006,0,0,1-6-6V27a3,3,0,1,1,6,0c0,.034,0,.067,0,.1l0,55.9a3,3,0,0,0,3,3h50a3,3,0,0,0,3-3V27a3,3,0,1,1,6,0V86a6.006,6.006,0,0,1-6,6Zm36-19V37a3,3,0,0,1,6,0V73a3,3,0,0,1-6,0Zm-22,0V37a3,3,0,1,1,6,0V73a3,3,0,1,1-6,0Zm-28-59a3,3,0,1,1,0-6h27a6,6,0,0,1,6-6h18a6,6,0,0,1,6,6h26a3,3,0,1,1,0,6Z" transform="translate(-5456.501 67)" fill="#4daf30"/>
  </g>
</svg>
