<svg xmlns="http://www.w3.org/2000/svg" width="70" height="127.999" viewBox="0 0 70 127.999">
  <path id="computer-case" d="M6982,135a6.007,6.007,0,0,1-6-6V13a6.006,6.006,0,0,1,6-6h58a6.007,6.007,0,0,1,6,6V129a6.008,6.008,0,0,1-6,6Zm0-119V126a3.006,3.006,0,0,0,3,3h52a3.006,3.006,0,0,0,3-3V16a3,3,0,0,0-3-3h-52A3,3,0,0,0,6982,16Zm20,98a9,9,0,1,1,9,9A9.01,9.01,0,0,1,7002,114Zm6,0a3,3,0,1,0,3-3A3.005,3.005,0,0,0,7008,114Zm20-18V70a3,3,0,1,1,6,0V96a3,3,0,1,1-6,0Zm-20,0V70a3,3,0,1,1,6,0V96a3,3,0,1,1-6,0Zm-20,0V70a3,3,0,1,1,6,0V96a3,3,0,1,1-6,0Zm6-35a6.008,6.008,0,0,1-6-6V49a6.008,6.008,0,0,1,6-6h34a6.008,6.008,0,0,1,6,6v6a6.008,6.008,0,0,1-6,6Zm0-9a3,3,0,0,0,3,3h28a3,3,0,0,0,0-6h-28A3,3,0,0,0,6994,52Zm0-15a6.007,6.007,0,0,1-6-6V25a6.007,6.007,0,0,1,6-6h34a6.007,6.007,0,0,1,6,6v6a6.007,6.007,0,0,1-6,6Zm0-9a3,3,0,0,0,3,3h28a3,3,0,0,0,0-6h-28A3,3,0,0,0,6994,28Z" transform="translate(-6976 -7.001)"/>
</svg>
