<svg xmlns="http://www.w3.org/2000/svg" width="128.001" height="116.001" viewBox="0 0 128.001 116.001">
  <path id="cpu-cooler" d="M7031,123a6.007,6.007,0,0,1-6-6h-10a6.007,6.007,0,0,1-6-6V97h-8a6.007,6.007,0,0,1-6-6V87h-16.5a2.5,2.5,0,1,1,0-5H6995V76h-16.5a2.5,2.5,0,1,1,0-5H6995V65h-16.5a2.5,2.5,0,1,1,0-5H6995V54h-16.5a2.5,2.5,0,1,1,0-5H6995V43h-16.5a2.5,2.5,0,1,1,0-5H6995V32h-16.5a2.5,2.5,0,1,1,0-5H6995V21h-16.5a2.5,2.5,0,1,1,0-5H6995V13a6.008,6.008,0,0,1,6-6h78a6.008,6.008,0,0,1,6,6V91a6.008,6.008,0,0,1-6,6h-8v14a6.007,6.007,0,0,1-6,6h-10v-6h7a3,3,0,0,0,3-3V97h-50v11a3,3,0,0,0,3,3h7a6.008,6.008,0,0,1,6-6h18a6.008,6.008,0,0,1,6,6v6a6.007,6.007,0,0,1-6,6Zm0-9a3,3,0,0,0,3,3h12a3,3,0,0,0,0-6h-12A3,3,0,0,0,7031,114Zm-30-98V88a3,3,0,0,0,3,3h72a3,3,0,0,0,3-3V16a3,3,0,0,0-3-3h-72A3,3,0,0,0,7001,16Zm84,72V83h16.5a2.5,2.5,0,0,1,0,5Zm-58.625-3.751A35.11,35.11,0,1,1,7040,87,34.857,34.857,0,0,1,7026.376,84.249Zm17.93-24.349a20.054,20.054,0,0,1-1.023,20.915,28.871,28.871,0,0,0,14.832-6.183,13.982,13.982,0,0,0-13.265-15.055C7044.673,59.692,7044.492,59.8,7044.306,59.9Zm-12.064,11.64A19.877,19.877,0,0,1,7024,76.18a28.848,28.848,0,0,0,11.284,4.438,13.975,13.975,0,0,0,2.826-19.285A19.867,19.867,0,0,1,7032.242,71.541Zm-14.224-.645A13.974,13.974,0,0,0,7032.589,57.3a20.044,20.044,0,0,1-20.793,1.462A28.934,28.934,0,0,0,7018.018,70.9ZM7048.9,53.311q-.056.393-.15.776a20.048,20.048,0,0,1,14.852,14.743,28.831,28.831,0,0,0,5.372-15.641,13.974,13.974,0,0,0-20.073.123ZM7037,52a3,3,0,1,0,3-3A3,3,0,0,0,7037,52Zm-25.978-1.189a13.976,13.976,0,0,0,20.071-.119c.039-.264.089-.522.15-.777a20.039,20.039,0,0,1-14.852-14.743A28.83,28.83,0,0,0,7011.024,50.812Zm40.824-13.962a14.039,14.039,0,0,0-4.439,9.847,20.043,20.043,0,0,1,20.8-1.464,28.946,28.946,0,0,0-6.221-12.125c-.192-.009-.385-.012-.576-.012A14.049,14.049,0,0,0,7051.848,36.85Zm-29.963-7.479a13.973,13.973,0,0,0,13.27,15.049c.175-.112.355-.219.539-.319a20.055,20.055,0,0,1,1.023-20.915A28.876,28.876,0,0,0,7021.885,29.371Zm17.453,3.407a14.03,14.03,0,0,0,2.548,9.891,20.061,20.061,0,0,1,14.108-14.85,28.822,28.822,0,0,0-11.28-4.436A14.039,14.039,0,0,0,7039.337,32.778ZM7067,82a3,3,0,1,1,3,3A3,3,0,0,1,7067,82Zm-60,0a3,3,0,1,1,3,3A3,3,0,0,1,7007,82Zm78-5V72h16.5a2.5,2.5,0,0,1,0,5Zm0-11V61h16.5a2.5,2.5,0,0,1,0,5Zm0-11V50h16.5a2.5,2.5,0,0,1,0,5Zm0-11V39h16.5a2.5,2.5,0,0,1,0,5Zm0-11V28h16.5a2.5,2.5,0,0,1,0,5Zm-18-12a3,3,0,1,1,3,3A3,3,0,0,1,7067,21Zm-60,0a3,3,0,1,1,3,3A3,3,0,0,1,7007,21Zm78,1V17h16.5a2.5,2.5,0,0,1,0,5Z" transform="translate(-6975.999 -7)"/>
</svg>
