<svg xmlns="http://www.w3.org/2000/svg" width="128.001" height="128.001" viewBox="0 0 128.001 128.001">
  <path id="cpu" d="M7064,132V118a3,3,0,0,1,6,0v14a3,3,0,1,1-6,0Zm-18,0V118a3,3,0,0,1,6,0v14a3,3,0,1,1-6,0Zm-18,0V118a3,3,0,0,1,6,0v14a3,3,0,1,1-6,0Zm-18,0V118a3,3,0,0,1,6,0v14a3,3,0,1,1-6,0Zm-2-23a6.007,6.007,0,0,1-6-6V39a6.007,6.007,0,0,1,6-6h64a6.008,6.008,0,0,1,6,6v64a6.008,6.008,0,0,1-6,6Zm0-67v58a3,3,0,0,0,3,3h58a3,3,0,0,0,3-3V42a3,3,0,0,0-3-3h-58A3,3,0,0,0,7008,42Zm79,59a3,3,0,1,1,0-6h14a3,3,0,1,1,0,6Zm-108,0a3,3,0,1,1,0-6h14a3,3,0,0,1,0,6Zm108-18a3,3,0,1,1,0-6h14a3,3,0,1,1,0,6Zm-108,0a3,3,0,1,1,0-6h14a3,3,0,0,1,0,6Zm108-18a3,3,0,1,1,0-6h14a3,3,0,1,1,0,6Zm-108,0a3,3,0,1,1,0-6h14a3,3,0,0,1,0,6Zm108-18a3,3,0,1,1,0-6h14a3,3,0,1,1,0,6Zm-108,0a3,3,0,1,1,0-6h14a3,3,0,0,1,0,6Zm85-23V10a3,3,0,1,1,6,0V24a3,3,0,1,1-6,0Zm-18,0V10a3,3,0,1,1,6,0V24a3,3,0,1,1-6,0Zm-18,0V10a3,3,0,1,1,6,0V24a3,3,0,1,1-6,0Zm-18,0V10a3,3,0,1,1,6,0V24a3,3,0,1,1-6,0Z" transform="translate(-6975.999 -7)"/>
</svg>
