<svg xmlns="http://www.w3.org/2000/svg" width="128" height="110.001" viewBox="0 0 128 110.001">
  <path id="graphic-card" d="M6988,114V27h110a6.006,6.006,0,0,1,6,6V91a6.006,6.006,0,0,1-6,6H6994v17a3,3,0,1,1-6,0Zm6.327-23h100.347a3,3,0,0,0,3-3V36a3,3,0,0,0-3-3H6994.326ZM7078,109a6.006,6.006,0,0,1-6-6V97l6,0v3a3,3,0,0,0,3,3h2a3,3,0,1,1,0,6Zm-46,0a6.008,6.008,0,0,1-6-6V97l6,0v3a3,3,0,0,0,3,3h22a3,3,0,0,0,3-3V97h6v6a6.008,6.008,0,0,1-6,6Zm-22,0a6.007,6.007,0,0,1-6-6V97h6l0,4a2,2,0,0,0,4,0V97h6v6a6.008,6.008,0,0,1-6,6Zm45.151-32.15A21,21,0,1,1,7070,83,20.864,20.864,0,0,1,7055.151,76.851ZM7055,62a15,15,0,1,0,15-15A15.017,15.017,0,0,0,7055,62Zm-52,21a3,3,0,0,1,0-6h34a3,3,0,0,1,0,6Zm0-18a3,3,0,0,1,0-6h34a3,3,0,0,1,0,6Zm64-3a3,3,0,1,1,3,3A3,3,0,0,1,7067,62Zm-64-15a3,3,0,0,1,0-6h34a3,3,0,0,1,0,6Zm-15-20V16a3,3,0,0,0-3-3h-6a3,3,0,0,1,0-6h9a6.008,6.008,0,0,1,6,6V27Z" transform="translate(-6976 -7)"/>
</svg>
