<svg xmlns="http://www.w3.org/2000/svg" width="100%" height="100%" viewBox="0 0 363 363" fill-rule="evenodd" stroke-linejoin="round" stroke-miterlimit="2" xmlns:v="https://vecta.io/nano"><clipPath id="A"><path d="M0 0h362.835v362.835H0z"/></clipPath><g clip-path="url(#A)"><path d="M319.282 41.36c0-22.827-18.532-41.36-41.36-41.36H84.912c-22.827 0-41.36 18.533-41.36 41.36v280.115c0 22.827 18.533 41.36 41.36 41.36h193.01c22.827 0 41.36-18.533 41.36-41.36V41.36zm-28.02 8.63c0-12.125-9.844-21.97-21.97-21.97H93.54c-12.125 0-21.97 9.844-21.97 21.97v262.857c0 12.125 9.844 21.97 21.97 21.97h175.753c12.125 0 21.97-9.844 21.97-21.97V49.99zM92.838 296.93a13.66 13.66 0 0 1 13.651 13.651 13.66 13.66 0 0 1-13.651 13.651 13.66 13.66 0 0 1-13.651-13.651 13.66 13.66 0 0 1 13.651-13.651zm177.16 0a13.66 13.66 0 0 1 13.651 13.651 13.66 13.66 0 0 1-13.651 13.651 13.66 13.66 0 0 1-13.652-13.651 13.66 13.66 0 0 1 13.652-13.651zm-118.702-52.682c-.27 1.567-2.86 8.22-3.187 8.788-7.355 12.74-23.67 17.112-36.4 9.756s-17.112-23.67-9.756-36.4c.37-.64 4.86-6.213 6.234-7.332l38.616-38.61c3.604-3.366 9.076-4.2 13.48-1.622 5.015 2.933 5.934 9.652 4.663 14.52l-13.64 50.9zm-6.923-10.587c-.15.86-1.57 4.51-1.75 4.823a14.64 14.64 0 0 1-19.982 5.354 14.64 14.64 0 0 1-5.354-19.982c.203-.352 2.667-3.41 3.42-4.024l21.192-21.19c1.978-1.847 4.98-2.304 7.4-.9 2.752 1.6 3.256 5.297 2.56 7.97l-7.486 27.94zm-20.823-37.967c-14.798-14.807-23.957-35.257-23.957-57.828 0-45.16 36.665-81.825 81.825-81.825s81.826 36.664 81.826 81.825-36.665 81.826-81.826 81.826c-5.902 0-11.66-.627-17.205-1.816l3.76-14.037c4.345.882 8.84 1.345 13.444 1.345 37.154 0 67.32-30.164 67.32-67.318s-30.165-67.318-67.32-67.318S114.1 100.71 114.1 137.865c0 18.566 7.532 35.387 19.706 47.572l-10.256 10.256zm106.144-85.7c15.383 26.644 6.24 60.765-20.404 76.148-.767.443-1.54.865-2.316 1.266l-6.105-10.573a44.01 44.01 0 0 0 2.325-1.252c20.817-12.018 27.96-38.676 15.942-59.493l10.558-6.096zm-70.052-9.845c-20.817 12.018-27.96 38.676-15.94 59.493l-10.558 6.096c-15.383-26.644-6.24-60.764 20.403-76.147l6.096 10.558zm21.776 23.707a14.02 14.02 0 0 1 14.01 14.01 14.02 14.02 0 0 1-14.01 14.01 14.02 14.02 0 0 1-14.01-14.01 14.02 14.02 0 0 1 14.01-14.01zm-88.58-88.023a13.66 13.66 0 0 1 13.651 13.651 13.66 13.66 0 0 1-13.651 13.651 13.66 13.66 0 0 1-13.651-13.651 13.66 13.66 0 0 1 13.651-13.651zm177.16 0a13.66 13.66 0 0 1 13.651 13.651 13.66 13.66 0 0 1-13.651 13.651 13.66 13.66 0 0 1-13.652-13.651 13.66 13.66 0 0 1 13.652-13.651z"/></g></svg>