<svg xmlns="http://www.w3.org/2000/svg" width="90" height="128.001" viewBox="0 0 90 128.001">
  <path id="hdd-disk" d="M6982,135a6.006,6.006,0,0,1-6-6V13a6.006,6.006,0,0,1,6-6h78a6.008,6.008,0,0,1,6,6V129a6.008,6.008,0,0,1-6,6Zm0-119V126a3,3,0,0,0,3,3h72a3,3,0,0,0,3-3V16a3,3,0,0,0-3-3h-72A3,3,0,0,0,6982,16Zm54,98a9,9,0,1,1,9,9A9.011,9.011,0,0,1,7036,114Zm6,0a3,3,0,1,0,3-3A3,3,0,0,0,7042,114Zm-43.626-6.368a12.873,12.873,0,0,1-6.731-7.425,12.539,12.539,0,0,1-.7-5.07,14.04,14.04,0,0,1,1.311-4.994,103.464,103.464,0,0,1,7.888-12.564q-1.293-1.056-2.48-2.241A33.032,33.032,0,1,1,7021,85h-.181a106.275,106.275,0,0,1-5,16.13,13.282,13.282,0,0,1-7.432,6.884,13.108,13.108,0,0,1-4.568.83A12.863,12.863,0,0,1,6998.374,107.631Zm14.579-37.54a62.376,62.376,0,0,0-5.68,6.939,116.7,116.7,0,0,0-8.384,13.1,12.556,12.556,0,0,0-1.213,7.3,5.669,5.669,0,0,0,9.021,4.2,12.544,12.544,0,0,0,4.88-5.59,116.2,116.2,0,0,0,4.611-14.861,61.793,61.793,0,0,0,1.638-8.819c.241-2.681-.039-4.228-.828-4.595a.983.983,0,0,0-.425-.09C7015.756,67.677,7014.542,68.488,7012.953,70.091Zm6.553-7.778c3.937,1.837,3.678,9.617,2.518,16.669a27.03,27.03,0,1,0-18.233-6.194c4.208-5.2,9.746-10.849,13.968-10.849A4.089,4.089,0,0,1,7019.505,62.313ZM7018,52a3,3,0,1,1,3,3A3,3,0,0,1,7018,52Z" transform="translate(-6976 -6.999)"/>
</svg>
