<svg xmlns="http://www.w3.org/2000/svg" width="128" height="128.001" viewBox="0 0 128 128.001">
  <path id="mainboard" d="M7000,135a6.008,6.008,0,0,1-6-6V72h-12a6.008,6.008,0,0,1-6-6V28a6.005,6.005,0,0,1,6-6h12V13a6.008,6.008,0,0,1,6-6h98a6.007,6.007,0,0,1,6,6V129a6.007,6.007,0,0,1-6,6Zm0-9a3,3,0,0,0,3,3h92a3,3,0,0,0,3-3V16a3,3,0,0,0-3-3h-92a3,3,0,0,0-3,3V126Zm-18-62.659a3.005,3.005,0,0,0,3,3h9V58h-12ZM6982,52h12V42h-12Zm0-21.339V36h12V27.663h-9A3,3,0,0,0,6982,30.662ZM7075,123a6.008,6.008,0,0,1-6-6V105a6.006,6.006,0,0,1,6-6h11a6.007,6.007,0,0,1,6,6v12a6.008,6.008,0,0,1-6,6Zm0-15v6a3,3,0,0,0,3,3h5a3,3,0,0,0,3-3v-6a3,3,0,0,0-3-3h-5A3,3,0,0,0,7075,108Zm-65,15a3,3,0,1,1,0-6h44a3,3,0,1,1,0,6Zm0-18a3,3,0,1,1,0-6h44a3,3,0,1,1,0,6Zm-1-18a3,3,0,1,1,0-6h80a3,3,0,0,1,0,6Zm77-21V22a3,3,0,1,1,6,0V66a3,3,0,1,1-6,0Zm-18,0V22a3,3,0,1,1,6,0V66a3,3,0,1,1-6,0Zm-56,3a6.006,6.006,0,0,1-6-6V25a6.006,6.006,0,0,1,6-6h38a6.008,6.008,0,0,1,6,6V63a6.008,6.008,0,0,1-6,6Zm0-41V60a3,3,0,0,0,3,3h32a3,3,0,0,0,3-3V28a3,3,0,0,0-3-3h-32A3.005,3.005,0,0,0,7012,28Zm24,25a3,3,0,1,1,3,3A3,3,0,0,1,7036,53Zm-16,0a3,3,0,1,1,3,3A3,3,0,0,1,7020,53Zm16-18a3,3,0,1,1,3,3A3,3,0,0,1,7036,35Zm-16,0a3,3,0,1,1,3,3A3,3,0,0,1,7020,35Z" transform="translate(-6976 -7)"/>
</svg>
