<svg xmlns="http://www.w3.org/2000/svg" width="128" height="40"><defs/><path d="M6 40a6.007 6.007 0 01-6-6V6a6.007 6.007 0 016-6h116a6.007 6.007 0 016 6v28a6.006 6.006 0 01-6 6zM6 9v22a3 3 0 003 3h110a3 3 0 003-3V9a3 3 0 00-3-3H9a3 3 0 00-3 3zm84 20a6.007 6.007 0 01-6-6v-6a6.007 6.007 0 016-6h6a6.007 6.007 0 016 6v6a6.007 6.007 0 01-6 6zm0-10v2a2 2 0 002 2h2a2 2 0 002-2v-2a2 2 0 00-2-2h-2a2 2 0 00-2 2zM66 29a6.007 6.007 0 01-6-6v-6a6.007 6.007 0 016-6h6a6.007 6.007 0 016 6v6a6.007 6.007 0 01-6 6zm0-10v2a2 2 0 002 2h2a2 2 0 002-2v-2a2 2 0 00-2-2h-2a2 2 0 00-2 2zM42 29a6.007 6.007 0 01-6-6v-6a6.007 6.007 0 016-6h6a6.007 6.007 0 016 6v6a6.007 6.007 0 01-6 6zm0-10v2a2 2 0 002 2h2a2 2 0 002-2v-2a2 2 0 00-2-2h-2a2 2 0 00-2 2zM18 29a6.007 6.007 0 01-6-6v-6a6.007 6.007 0 016-6h6a6.007 6.007 0 016 6v6a6.007 6.007 0 01-6 6zm0-10v2a2 2 0 002 2h2a2 2 0 002-2v-2a2 2 0 00-2-2h-2a2 2 0 00-2 2zm92-5a3 3 0 113 3 3 3 0 01-3-3z"/></svg>