<svg xmlns="http://www.w3.org/2000/svg" width="128" height="110.001" viewBox="0 0 128 110.001">
  <path id="network-card" d="M6988,114V27h110a6.007,6.007,0,0,1,6,6V91a6.006,6.006,0,0,1-6,6h-57a3,3,0,0,1-3-3V88a3,3,0,0,0-3-3h-22a3,3,0,0,0-3,3v3l-6,0h6v3a3,3,0,0,1-3,3h-13v17a3,3,0,1,1-6,0Zm50-35a6.008,6.008,0,0,1,6,6v4.5a1.5,1.5,0,0,0,1.5,1.5h49.173a3,3,0,0,0,3-3V36a3,3,0,0,0-3-3H6994.326V43H7002a6.008,6.008,0,0,1,6,6V63a6.007,6.007,0,0,1-6,6h-7.674V91h8.173a1.5,1.5,0,0,0,1.5-1.428V85a6.009,6.009,0,0,1,6-6Zm6,12h0Zm-45-28a3,3,0,0,0,3-3V52a3,3,0,0,0-3-3h-4.673V63Zm72,23V82a3,3,0,1,1,6,0v4a3,3,0,0,1-6,0Zm-11,0V82a3,3,0,1,1,6,0v4a3,3,0,1,1-6,0Zm.759-10a6.007,6.007,0,0,1-6-6V54a6.007,6.007,0,0,1,6-6h15.481a6.007,6.007,0,0,1,6,6V70a6.007,6.007,0,0,1-6,6Zm-.5-19.4V67.4a3,3,0,0,0,3,3h10.489a3,3,0,0,0,3-3V56.6a3,3,0,0,0-3-3h-10.489A3,3,0,0,0,7060.257,56.6ZM7045,71a3,3,0,0,1,0-6h4a3,3,0,1,1,0,6Zm43,0a3,3,0,1,1,0-6h4a3,3,0,0,1,0,6Zm-43-12a3,3,0,0,1,0-6h4a3,3,0,1,1,0,6Zm43,0a3,3,0,1,1,0-6h4a3,3,0,0,1,0,6Zm-17-17V38a3,3,0,0,1,6,0v4a3,3,0,0,1-6,0Zm-11,0V38a3,3,0,1,1,6,0v4a3,3,0,1,1-6,0ZM6994,27h-6V16a3,3,0,0,0-3-3h-6a3,3,0,0,1,0-6h9a6.008,6.008,0,0,1,6,6V27Z" transform="translate(-6976 -7)"/>
</svg>
