<svg xmlns="http://www.w3.org/2000/svg" width="128.001" height="90.001" viewBox="0 0 128.001 90.001">
  <path id="power-supply" d="M6982,97a6.008,6.008,0,0,1-6-6V13a6.008,6.008,0,0,1,6-6h116a6.008,6.008,0,0,1,6,6V91a6.008,6.008,0,0,1-6,6Zm0-81V88a3,3,0,0,0,3,3h110a3,3,0,0,0,3-3V16a3,3,0,0,0-3-3H6985A3,3,0,0,0,6982,16Zm104,66a3,3,0,1,1,3,3A3,3,0,0,1,7086,82Zm-98,0a3,3,0,1,1,3,3A3,3,0,0,1,6988,82Zm87-5a3,3,0,1,1,0-6h8a3,3,0,0,1,0,6Zm-20,0a3,3,0,1,1,0-6h8a3,3,0,1,1,0,6Zm-49.731-1.963A25.1,25.1,0,1,1,7015,77,24.943,24.943,0,0,1,7005.27,75.037Zm-1.7-7.866a18.962,18.962,0,0,0,22.273.421l-4.334-4.336a13.032,13.032,0,0,1-13.645-.382Zm22.3-22.3a13.029,13.029,0,0,1,0,14.263l4.3,4.3a18.967,18.967,0,0,0,0-22.856ZM6996,52a18.9,18.9,0,0,0,3.409,10.849l4.334-4.334a13.042,13.042,0,0,1,0-13.029l-4.334-4.334A18.9,18.9,0,0,0,6996,52Zm16.289,6.454a7.013,7.013,0,0,0,4.686.262l-2.473-2.473ZM7018.743,52l2.71,2.71a6.982,6.982,0,0,0,0-5.42ZM7008,52a7.009,7.009,0,0,0,.284,1.975L7010.258,52l-1.974-1.974A6.924,6.924,0,0,0,7008,52Zm4.288-6.452,2.212,2.211,2.473-2.473a7.013,7.013,0,0,0-4.686.262Zm-8.715-8.716,4.295,4.295a13.034,13.034,0,0,1,13.646-.382l4.333-4.334a18.962,18.962,0,0,0-22.273.421ZM7075,65a3,3,0,1,1,0-6h8a3,3,0,0,1,0,6Zm-20,0a3,3,0,1,1,0-6h8a3,3,0,1,1,0,6Zm3-18a6.005,6.005,0,0,1-6-6V33a6,6,0,0,1,6-6h22a6.006,6.006,0,0,1,6,6v8a6.007,6.007,0,0,1-6,6Zm0-11v2a3,3,0,0,0,3,3h16a3,3,0,0,0,3-3V36a3.005,3.005,0,0,0-3-3h-16A3.005,3.005,0,0,0,7058,36Zm28-14a3,3,0,1,1,3,3A3,3,0,0,1,7086,22Zm-98,0a3,3,0,1,1,3,3A3,3,0,0,1,6988,22Z" transform="translate(-6976 -7)"/>
</svg>
