<svg xmlns="http://www.w3.org/2000/svg" width="128.001" height="49.999" viewBox="0 0 128.001 49.999">
  <path id="ram-stick" d="M6982,57a6,6,0,0,1-6-5.851V38.633l.007,0,0-.023v-.025c0-.027,0-.055,0-.084a3.014,3.014,0,0,1,1.952-2.813V35.67a6.058,6.058,0,0,0,3.992-4.881v-.016l0-.011a.021.021,0,0,0,0-.011v-.016l0-.014V30.7a.105.105,0,0,1,0-.021v-.007a.111.111,0,0,0,0-.025v-.012a.013.013,0,0,0,0-.007l0-.005a.188.188,0,0,1,.005-.046v-.05s0-.005,0-.007a.069.069,0,0,0,0-.014v-.025l0-.005,0-.005v-.055a.036.036,0,0,0,0-.012l0-.005,0-.007v-.075a.045.045,0,0,0,.005-.025v-.075a.193.193,0,0,1,.005-.055V30a5.99,5.99,0,0,0-.467-2.323l0-.005,0-.005-.005-.012s0-.005,0-.009,0-.005,0-.007l0-.007,0-.005a.11.11,0,0,0-.011-.027l-.005-.014a6.047,6.047,0,0,0-3.585-3.272v-.02A2.987,2.987,0,0,1,6976,21.5c0-.025,0-.05,0-.075l-.005,0V12.854A6.007,6.007,0,0,1,6982,7h116a6.008,6.008,0,0,1,6,6v7.6a2.988,2.988,0,0,1-1.938,2.7v.014a6,6,0,0,0-.046,11.341v.014A3.023,3.023,0,0,1,7104,37.4v.2l0,.034,0,.039v.007L7104,49v2a6,6,0,0,1-6,6h-41.1a3,3,0,0,1-2.9-3l0-2a3,3,0,0,0-6,0v2.15A3,3,0,0,1,7045.013,57ZM7054,43a6.006,6.006,0,0,1,6,6v.5h0a1.5,1.5,0,0,0,1.5,1.5H7095a3,3,0,0,0,3-3V39.4a12,12,0,0,1-2.483-18.882A12.16,12.16,0,0,1,7098,18.6V16a3,3,0,0,0-3-3H6985a3,3,0,0,0-3,3V19.6a12.106,12.106,0,0,1,2.483,1.911A12.016,12.016,0,0,1,6982,40.4V48a3.006,3.006,0,0,0,3,3h55.51A1.49,1.49,0,0,0,7042,49.576V49a6,6,0,0,1,6-6Zm20-6a6.006,6.006,0,0,1-6-6V23a6.006,6.006,0,0,1,6-6h6a6.005,6.005,0,0,1,6,6v8a6.005,6.005,0,0,1-6,6Zm0-11v2a3,3,0,0,0,6,0V26a3,3,0,0,0-6,0Zm-24,11a6.005,6.005,0,0,1-6-6V23a6.005,6.005,0,0,1,6-6h6a6.006,6.006,0,0,1,6,6v8a6.006,6.006,0,0,1-6,6Zm0-11v2a3,3,0,0,0,6,0V26a3,3,0,0,0-6,0Zm-24,11a6.007,6.007,0,0,1-6-6V23a6.007,6.007,0,0,1,6-6h6a6.005,6.005,0,0,1,6,6v8a6.005,6.005,0,0,1-6,6Zm0-11v2a3,3,0,0,0,6,0V26a3,3,0,0,0-6,0Zm-24,11a6.007,6.007,0,0,1-6-6V23a6.007,6.007,0,0,1,6-6h6a6.006,6.006,0,0,1,6,6v8a6.006,6.006,0,0,1-6,6Zm0-11v2a3,3,0,0,0,6,0V26a3,3,0,0,0-6,0Z" transform="translate(-6976 -7)"/>
</svg>
