<svg xmlns="http://www.w3.org/2000/svg" width="128" height="100"><defs/><path d="M6 100a6.007 6.007 0 01-6-6V66a6.007 6.007 0 016-6h82V43a3 3 0 116 0v17h28a6.006 6.006 0 016 6v28a6.006 6.006 0 01-6 6zm0-31v22a3 3 0 003 3h110a3 3 0 003-3V69a3 3 0 00-3-3H9a3 3 0 00-3 3zm58 11a6 6 0 116 6 6 6 0 01-6-6zm-22 0a6 6 0 116 6 6 6 0 01-6-6zm-22 0a6 6 0 116 6 6 6 0 01-6-6zm81.554-51a14 14 0 00-21.181-.3 3.058 3.058 0 01-2.142.882 3 3 0 01-2.11-5.133c.188-.207.377-.4.561-.587a20 20 0 0128.284 0 11.735 11.735 0 01.842.892 3.283 3.283 0 01.953 2.219A3 3 0 01101.554 29zm12.021-12.022a29.016 29.016 0 00-44.943-.625c-.04.052-.224.27-.273.329a3.094 3.094 0 01-2.093.825 3 3 0 01-2.162-5.08 27.394 27.394 0 011.971-2.176 34.972 34.972 0 0149.5 0 36.004 36.004 0 012.252 2.475 3.053 3.053 0 01.905 2.164 3 3 0 01-5.156 2.086z"/></svg>