<svg xmlns="http://www.w3.org/2000/svg" width="90" height="128.001" viewBox="0 0 90 128.001">
  <path id="ssd-disk" d="M6982,135a6.006,6.006,0,0,1-6-6V13a6.006,6.006,0,0,1,6-6h78a6.008,6.008,0,0,1,6,6V129a6.008,6.008,0,0,1-6,6Zm0-119V126a3,3,0,0,0,3,3h72a3,3,0,0,0,3-3V16a3,3,0,0,0-3-3h-72A3,3,0,0,0,6982,16Zm66,104a3,3,0,1,1,3,3A3,3,0,0,1,7048,120Zm-60,0a3,3,0,1,1,3,3A3,3,0,0,1,6988,120Zm14-19a6.007,6.007,0,0,1-6-6V47a6.007,6.007,0,0,1,6-6h38a6.008,6.008,0,0,1,6,6V95a6.008,6.008,0,0,1-6,6Zm0-51V92a3,3,0,0,0,3,3h32a3,3,0,0,0,3-3V50a3,3,0,0,0-3-3h-32A3,3,0,0,0,7002,50Zm46-28a3,3,0,1,1,3,3A3,3,0,0,1,7048,22Zm-43,3a6.006,6.006,0,0,1-6-6V13h6v3a3,3,0,0,0,3,3h26a3,3,0,0,0,3-3V13l6,0v6a6.006,6.006,0,0,1-6,6Zm-17-3a3,3,0,1,1,3,3A3,3,0,0,1,6988,22Z" transform="translate(-6976 -6.999)"/>
</svg>
