<svg xmlns="http://www.w3.org/2000/svg" width="100%" height="100%" viewBox="0 0 363 363" fill-rule="evenodd" stroke-linejoin="round" stroke-miterlimit="2" xmlns:v="https://vecta.io/nano"><path d="M312.945 26.306C312.945 11.787 301.158 0 286.64 0H76.195C61.677 0 49.9 11.787 49.9 26.306V336.53c0 14.52 11.787 26.306 26.305 26.306H286.64c14.52 0 26.306-11.787 26.306-26.306V26.306zM296.33 45.9c0-12.684-10.298-22.983-22.982-22.983H89.487c-12.685 0-22.983 10.3-22.983 22.983v271.037c0 12.684 10.298 22.982 22.983 22.982h183.86c12.684 0 22.982-10.298 22.982-22.982V45.9zM96.224 303.394h171.708v36.524h-9.385v-27.14h-32.212v27.14h-9.385v-27.14h-30.7v27.14h-9.385v-27.14h-29.67v27.14h-9.384v-27.14H105.61v27.14h-9.385v-36.524zm191.653-145.628c0-13.053-10.598-23.65-23.65-23.65H98.61c-13.054 0-23.65 10.598-23.65 23.65v47.302c0 13.054 10.597 23.65 23.65 23.65h165.617c13.053 0 23.65-10.597 23.65-23.65v-47.302zM81.753 194.44l9.097-.796c.43 3.646 1.433 6.636 3.007 8.973s4.018 4.225 7.332 5.666 7.042 2.163 11.184 2.163c3.678 0 6.926-.547 9.743-1.64s4.913-2.593 6.288-4.498 2.063-3.985 2.063-6.24c0-2.286-.663-4.283-1.99-5.99s-3.512-3.14-6.56-4.3c-1.955-.762-6.28-1.947-12.974-3.554s-11.383-3.123-14.067-4.548c-3.48-1.823-6.073-4.085-7.78-6.786s-2.56-5.724-2.56-9.07c0-3.68 1.044-7.117 3.13-10.315s5.137-5.625 9.147-7.282 8.466-2.485 13.37-2.485c5.402 0 10.165.87 14.29 2.61s7.3 4.3 9.52 7.68 3.413 7.208 3.58 11.483l-9.246.696c-.497-4.607-2.18-8.086-5.045-10.44s-7.1-3.53-12.7-3.53c-5.833 0-10.083 1.07-12.75 3.206s-4.002 4.714-4.002 7.73c0 2.617.944 4.77 2.833 6.462 1.856 1.7 6.703 3.42 14.54 5.194s13.214 3.322 16.13 4.648c4.242 1.955 7.373 4.432 9.395 7.43s3.032 6.454 3.032 10.364c0 3.877-1.1 7.53-3.33 10.96s-5.4 6.097-9.57 8.003-8.84 2.858-14.043 2.858c-6.594 0-12.12-.96-16.577-2.883S88.3 211.4 85.755 207.54s-3.87-8.227-4.002-13.098zm67.9 0l9.097-.796c.43 3.646 1.433 6.636 3.007 8.973s4.018 4.225 7.332 5.666 7.042 2.163 11.184 2.163c3.678 0 6.926-.547 9.743-1.64s4.913-2.593 6.288-4.498 2.063-3.985 2.063-6.24c0-2.286-.663-4.283-1.99-5.99s-3.512-3.14-6.56-4.3c-1.955-.762-6.28-1.947-12.974-3.554s-11.383-3.123-14.067-4.548c-3.48-1.823-6.073-4.085-7.78-6.786s-2.56-5.724-2.56-9.07c0-3.68 1.043-7.117 3.13-10.315s5.137-5.625 9.146-7.282 8.467-2.485 13.372-2.485c5.4 0 10.165.87 14.29 2.61s7.3 4.3 9.52 7.68 3.413 7.208 3.58 11.483l-9.246.696c-.497-4.607-2.18-8.086-5.045-10.44s-7.1-3.53-12.7-3.53c-5.833 0-10.083 1.07-12.75 3.206s-4 4.714-4 7.73c0 2.617.944 4.77 2.833 6.462 1.856 1.7 6.703 3.42 14.54 5.194s13.214 3.322 16.13 4.648c4.242 1.955 7.373 4.432 9.395 7.43s3.032 6.454 3.032 10.364c0 3.877-1.1 7.53-3.33 10.96s-5.4 6.097-9.57 8.003-8.84 2.858-14.043 2.858c-6.594 0-12.12-.96-16.577-2.883s-7.953-4.814-10.49-8.674-3.868-8.227-4-13.098zm71.182 23.412V144.98h25.102c5.667 0 9.99.348 12.974 1.044 4.175.96 7.738 2.7 10.687 5.22 3.844 3.247 6.72 7.398 8.624 12.45s2.86 10.828 2.86 17.324c0 5.534-.647 10.438-1.94 14.713s-2.95 7.813-4.97 10.613-4.233 5.004-6.636 6.61-5.302 2.825-8.7 3.654-7.298 1.242-11.706 1.242h-26.295zm9.643-8.6h15.56c4.805 0 8.574-.448 11.308-1.342s4.913-2.154 6.537-3.778c2.286-2.287 4.067-5.36 5.343-9.22s1.914-8.54 1.914-14.042c0-7.622-1.25-13.48-3.753-17.572s-5.542-6.835-9.12-8.227c-2.585-.994-6.744-1.49-12.477-1.49h-15.3v55.673z"/></svg>