<svg xmlns="http://www.w3.org/2000/svg" xmlns:xlink="http://www.w3.org/1999/xlink" width="146" height="146" viewBox="0 0 146 146">
  <defs>
    <filter id="Rechteck_86" x="0" y="0" width="146" height="146" filterUnits="userSpaceOnUse">
      <feOffset dy="3" input="SourceAlpha"/>
      <feGaussianBlur stdDeviation="3" result="blur"/>
      <feFlood flood-opacity="0.161"/>
      <feComposite operator="in" in2="blur"/>
      <feComposite in="SourceGraphic"/>
    </filter>
  </defs>
  <g id="code-editor-dark" transform="translate(-931 -44)">
    <g transform="matrix(1, 0, 0, 1, 931, 44)" filter="url(#Rechteck_86)">
      <rect id="Rechteck_86-2" data-name="Rechteck 86" width="128" height="128" rx="6" transform="translate(9 6)" fill="#4f4f4f"/>
    </g>
    <path id="Pfad_147" data-name="Pfad 147" d="M7115.561,110a6.126,6.126,0,0,1-6.124-6.12v-3.06H7066.56v3.06a6.13,6.13,0,0,1-6.124,6.12h-15.315a6.126,6.126,0,0,1-6.12-6.12V88.565a6.13,6.13,0,0,1,6.12-6.125h3.065V39.565h-3.065A6.13,6.13,0,0,1,7039,33.44V18.125a6.13,6.13,0,0,1,6.12-6.125h15.315a6.134,6.134,0,0,1,6.124,6.125V21.19h42.877V18.125A6.131,6.131,0,0,1,7115.561,12h15.311A6.136,6.136,0,0,1,7137,18.125V33.44a6.136,6.136,0,0,1-6.129,6.125h-3.056V82.44h3.056A6.136,6.136,0,0,1,7137,88.565v15.315a6.131,6.131,0,0,1-6.129,6.12Zm0-18.375v9.19a3.069,3.069,0,0,0,3.066,3.065h9.186a3.064,3.064,0,0,0,3.06-3.065v-9.19a3.063,3.063,0,0,0-3.06-3.06h-9.186A3.068,3.068,0,0,0,7115.561,91.625Zm-70.439,0v9.19a3.068,3.068,0,0,0,3.065,3.065h9.184a3.069,3.069,0,0,0,3.066-3.065v-9.19a3.068,3.068,0,0,0-3.066-3.06h-9.184A3.067,3.067,0,0,0,7045.121,91.625Zm64.316,3.071v-6.13a6.131,6.131,0,0,1,6.124-6.125h6.12V39.565h-6.12a6.131,6.131,0,0,1-6.124-6.125V27.315H7066.56V33.44a6.134,6.134,0,0,1-6.124,6.125h-6.124V82.44h6.124a6.134,6.134,0,0,1,6.124,6.125V94.7Zm18.375-61.256a3.064,3.064,0,0,0,3.06-3.065V21.19a3.064,3.064,0,0,0-3.06-3.065h-9.186a3.069,3.069,0,0,0-3.066,3.065v6.12l.012.005h-.012v3.06a3.069,3.069,0,0,0,3.066,3.065h9.186Zm-70.442,0a3.069,3.069,0,0,0,3.066-3.065V21.19a3.069,3.069,0,0,0-3.066-3.065h-9.184a3.068,3.068,0,0,0-3.065,3.065v9.185a3.068,3.068,0,0,0,3.065,3.065h9.184Z" transform="translate(-6084.001 53)" fill="#4daf30"/>
    <path id="Pfad_148" data-name="Pfad 148" d="M8.4-8.04l8.85,3.6V.03L1.95-6.39V-9.42l15.3-6.42v4.44ZM32.64-21h4.35L24.18,4.5H19.65ZM48.24-7.8l-8.85-3.6v-4.44l15.3,6.42v3.03L39.39.03V-4.44Z" transform="translate(976 124)" fill="#c2c2c2"/>
  </g>
</svg>
