<?xml version="1.0" encoding="UTF-8" standalone="no"?>
<!-- Created with Inkscape (http://www.inkscape.org/) -->

<svg
   xmlns:dc="http://purl.org/dc/elements/1.1/"
   xmlns:cc="http://creativecommons.org/ns#"
   xmlns:rdf="http://www.w3.org/1999/02/22-rdf-syntax-ns#"
   xmlns:svg="http://www.w3.org/2000/svg"
   xmlns="http://www.w3.org/2000/svg"
   xmlns:sodipodi="http://sodipodi.sourceforge.net/DTD/sodipodi-0.dtd"
   xmlns:inkscape="http://www.inkscape.org/namespaces/inkscape"
   version="1.1"
   id="svg638"
   width="614.40002"
   height="345.60001"
   viewBox="0 0 614.40002 345.60001"
   sodipodi:docname="task_manager_icon_original.svg"
   inkscape:version="0.92.4 (5da689c313, 2019-01-14)">
  <metadata
     id="metadata644">
    <rdf:RDF>
      <cc:Work
         rdf:about="">
        <dc:format>image/svg+xml</dc:format>
        <dc:type
           rdf:resource="http://purl.org/dc/dcmitype/StillImage" />
        <dc:title></dc:title>
      </cc:Work>
    </rdf:RDF>
  </metadata>
  <defs
     id="defs642" />
  <sodipodi:namedview
     pagecolor="#ffffff"
     bordercolor="#666666"
     borderopacity="1"
     objecttolerance="10"
     gridtolerance="10"
     guidetolerance="10"
     inkscape:pageopacity="0"
     inkscape:pageshadow="2"
     inkscape:window-width="1920"
     inkscape:window-height="1017"
     id="namedview640"
     showgrid="false"
     inkscape:zoom="1.8489583"
     inkscape:cx="324.70156"
     inkscape:cy="183.45407"
     inkscape:window-x="-8"
     inkscape:window-y="-8"
     inkscape:window-maximized="1"
     inkscape:current-layer="svg638" />
  <path
     inkscape:connector-curvature="0"
     id="path956"
     d="M 7.5718315,174.42255 V 9.7352166 H 306.92959 606.28735 V 174.42255 339.10988 H 306.92959 7.5718315 Z"
     style="fill:#fefefe;stroke-width:0.30838472" />
  <path
     inkscape:connector-curvature="0"
     id="path954"
     d="m 280.26804,275.18717 c -29.92086,-3.33495 -57.40052,-19.38417 -74.4486,-43.48097 -6.99024,-9.88042 -12.25363,-21.09527 -15.36238,-32.73304 -2.42654,-9.08387 -3.26457,-15.8559 -3.26457,-26.38047 0,-10.52458 0.83803,-17.29661 3.26457,-26.38047 6.34294,-23.74512 21.23836,-44.64072 41.68619,-58.478226 14.40295,-9.746803 31.21623,-15.893328 48.59253,-17.764243 5.56548,-0.599236 18.13368,-0.599236 23.69916,0 29.75713,3.203967 56.65143,18.579439 74.05986,42.340039 7.38276,10.07667 12.97941,21.77539 16.21886,33.90243 2.42655,9.08386 3.26456,15.85589 3.26456,26.38047 0,10.52457 -0.83801,17.2966 -3.26456,26.38047 -6.34295,23.74512 -21.23837,44.64072 -41.68619,58.47822 -14.40294,9.7468 -31.21622,15.89333 -48.59253,17.76424 -5.30643,0.57135 -18.92944,0.55531 -24.1669,-0.0285 z"
     style="fill:#f0f0f0;stroke-width:0.30838472" />
  <path
     inkscape:connector-curvature="0"
     id="path952"
     d="m 283.54226,274.55599 c -21.14789,-1.99324 -40.30413,-9.524 -56.74121,-22.30629 -3.82869,-2.97738 -12.61873,-11.5742 -15.66303,-15.31873 -11.95808,-14.70862 -19.18424,-31.04537 -22.15566,-50.08903 -0.58964,-3.77899 -0.67679,-5.61381 -0.67679,-14.24925 0,-8.63545 0.0872,-10.47027 0.67679,-14.24926 2.97142,-19.04366 10.19758,-35.38041 22.15566,-50.08902 3.0443,-3.74454 11.83434,-12.34136 15.66303,-15.31874 15.0392,-11.695225 31.74312,-18.762547 51.2148,-21.66865 3.86393,-0.576683 5.73998,-0.661915 14.56951,-0.661915 8.82953,0 10.70559,0.08523 14.56952,0.661915 19.47167,2.906103 36.17558,9.973425 51.21479,21.66865 3.82869,2.97738 12.61874,11.5742 15.66302,15.31874 11.95809,14.70861 19.18425,31.04536 22.15568,50.08902 0.58964,3.77899 0.67677,5.61381 0.67677,14.24926 0,8.63544 -0.0871,10.47026 -0.67677,14.24925 -2.97143,19.04366 -10.19759,35.38041 -22.15568,50.08903 -3.04428,3.74453 -11.83433,12.34135 -15.66302,15.31873 -14.99586,11.66154 -31.87755,18.81512 -51.05813,21.6358 -3.40782,0.50115 -6.12238,0.64705 -13.32294,0.71607 -4.9737,0.0477 -9.67456,0.0272 -10.44634,-0.0456 z m 16.37672,-60.14162 c 2.83318,-1.25875 3.79054,-2.76104 12.46765,-19.56428 l 8.10761,-15.70041 23.76857,-0.15249 23.76856,-0.15248 0.70309,-0.68774 c 0.96799,-0.94687 0.96134,-2.8212 -0.0134,-3.83614 -1.38194,-1.43866 -1.78005,-1.45838 -27.33398,-1.35362 -27.10184,0.11111 -26.52417,0.0652 -28.4847,2.26613 -0.57397,0.64435 -3.6843,6.11153 -6.91186,12.14929 -3.22755,6.03775 -6.08677,11.11252 -6.35383,11.27727 -0.31997,0.1974 -0.59308,0.19438 -0.80089,-0.009 -0.25283,-0.24712 -11.4356,-44.55564 -16.85254,-66.77271 -1.90021,-7.79355 -2.09172,-8.08188 -5.36805,-8.08188 -2.23643,0 -3.94093,0.5903 -4.96993,1.72116 -0.28334,0.31139 -4.68297,10.24155 -9.77697,22.06701 -5.09399,11.82547 -9.32895,21.56947 -9.41101,21.65334 -0.0821,0.0839 -6.44273,0.23731 -14.1348,0.34099 -12.92718,0.17425 -14.06142,0.23195 -14.9877,0.76244 -2.35743,1.35014 -2.68681,3.13729 -0.91929,4.98784 l 0.88177,0.92319 16.32397,-0.002 c 10.40568,-0.001 16.75007,-0.11743 17.49924,-0.32091 1.33467,-0.36249 2.93301,-1.79796 3.73179,-3.35152 0.29778,-0.57915 3.3602,-7.36602 6.80537,-15.08193 3.44518,-7.71591 6.47772,-14.19104 6.73897,-14.38919 0.26125,-0.19815 0.66118,-0.2904 0.88873,-0.205 0.26099,0.0979 3.54769,12.50364 8.90255,33.60271 9.19467,36.22866 9.57075,37.46884 11.54968,38.08697 1.57968,0.49342 2.78669,0.44219 4.18141,-0.17747 z"
     style="fill:#eaeef0;stroke-width:0.30838472" />
  <path
     inkscape:connector-curvature="0"
     id="path950"
     d="m 284.9455,274.57417 c -15.34454,-1.51232 -26.57782,-4.5562 -38.81608,-10.51797 -10.70436,-5.21455 -19.15845,-11.14006 -27.41563,-19.21574 -14.31616,-14.00147 -24.3105,-32.05721 -28.37301,-51.2586 -1.68928,-7.98435 -2.06109,-11.77072 -2.06109,-20.98917 0,-9.21846 0.37181,-13.00482 2.06109,-20.98918 2.86882,-13.55944 9.0191,-27.22628 17.40778,-38.68273 15.01643,-20.507983 38.13287,-35.21665 63.37588,-40.3252 8.16381,-1.652146 12.03528,-2.015788 21.46092,-2.015788 9.42564,0 13.29711,0.363642 21.46092,2.015788 13.8642,2.805763 27.83819,8.820846 39.55212,17.025133 20.96892,14.686357 36.00819,37.294657 41.23154,61.982797 1.68929,7.98436 2.06108,11.77072 2.06108,20.98918 0,9.21845 -0.37179,13.00482 -2.06108,20.98917 -2.86881,13.55944 -9.01908,27.22629 -17.40777,38.68273 -13.37709,18.26912 -32.66505,31.64111 -55.33226,38.36082 -4.17623,1.23805 -11.25419,2.70043 -16.40765,3.39 -3.41696,0.45721 -17.82732,0.84551 -20.73676,0.55876 z m 14.89995,-60.02574 c 0.55189,-0.23981 1.66122,-1.02893 2.46517,-1.75362 1.73122,-1.56052 3.17039,-4.12382 11.7841,-20.9886 3.29837,-6.45788 6.22283,-11.99069 6.49883,-12.29513 0.47729,-0.52654 1.63038,-0.55016 23.64428,-0.48439 21.40492,0.064 23.20378,0.0299 23.9585,-0.45377 1.08761,-0.69696 1.53337,-1.74097 1.28846,-3.01775 -0.23232,-1.21115 -0.84874,-1.8194 -2.34039,-2.30934 -1.60861,-0.52836 -47.78323,-0.46548 -50.60537,0.0689 -3.74694,0.70951 -3.21962,-0.0608 -14.48231,21.15687 -1.4611,2.75255 -2.31117,4.0388 -2.67063,4.04094 -0.29002,0.002 -0.59829,-0.1092 -0.68505,-0.2465 -0.13021,-0.20606 -7.26607,-28.72061 -16.0795,-64.2529 -2.62809,-10.59545 -2.40566,-10.21672 -6.00031,-10.21672 -2.70331,0 -4.54225,0.65431 -5.36817,1.91003 -0.24682,0.37525 -4.54315,10.22041 -9.54742,21.87814 -5.00426,11.65773 -9.2053,21.30739 -9.33564,21.4437 -0.13035,0.13631 -6.54782,0.35069 -14.26105,0.4764 -13.19654,0.2151 -14.08669,0.26436 -15.08549,0.83486 -0.58379,0.33346 -1.25895,0.95045 -1.50036,1.3711 -0.57254,0.99762 -0.2507,2.70038 0.70002,3.70367 l 0.72122,0.7611 16.03269,0.20553 c 17.87409,0.22914 18.46327,0.18086 20.41925,-1.67328 1.21,-1.147 0.79591,-0.29755 8.53185,-17.50196 3.39047,-7.54027 6.39243,-13.8502 6.67101,-14.02206 0.32934,-0.20318 0.60342,-0.2082 0.78354,-0.0144 0.15236,0.16397 4.1068,15.32584 8.78764,33.69305 5.39583,21.17274 8.84458,34.13475 9.42308,35.41635 0.75291,1.66797 1.08533,2.0758 1.90115,2.33243 1.45482,0.45765 3.21159,0.43233 4.3509,-0.0627 z"
     style="fill:#e7ecee;stroke-width:0.30838472" />
  <path
     inkscape:connector-curvature="0"
     id="path948"
     d="m 286.66057,274.58165 c -8.31074,-0.69424 -13.51371,-1.50308 -19.80127,-3.07825 -14.56046,-3.6477 -28.13785,-10.27932 -39.91436,-19.49542 -4.3998,-3.4432 -12.03918,-10.91465 -15.55976,-15.21773 -9.42929,-11.52506 -16.23753,-24.86269 -19.92656,-39.037 -2.40588,-9.24409 -3.1322,-15.07851 -3.1322,-25.16056 0,-10.08205 0.72632,-15.91647 3.1322,-25.16057 3.68903,-14.17431 10.49727,-27.51194 19.92656,-39.03699 3.52058,-4.30308 11.15996,-11.774538 15.55976,-15.217738 11.78408,-9.222021 25.42148,-15.880601 39.91436,-19.488541 9.45186,-2.353001 15.41741,-3.063352 25.72606,-3.063352 10.30865,0 16.2742,0.710351 25.72606,3.063352 14.49287,3.60794 28.13027,10.26652 39.91437,19.488541 4.39978,3.4432 12.03917,10.914658 15.55977,15.217738 9.42927,11.52505 16.23751,24.86268 19.92653,39.03699 2.4059,9.2441 3.13222,15.07852 3.13222,25.16057 0,10.08205 -0.72632,15.91647 -3.13222,25.16056 -3.68902,14.17431 -10.49726,27.51194 -19.92653,39.037 -3.5206,4.30308 -11.15999,11.77453 -15.55977,15.21773 -15.46087,12.09941 -33.61033,19.5624 -53.47902,21.99036 -3.7463,0.4578 -15.17592,0.82642 -18.0862,0.58331 z m 13.27008,-59.90862 c 1.45054,-0.53937 3.66925,-2.71198 4.92429,-4.82197 0.66528,-1.11847 4.41923,-8.30786 8.34213,-15.97644 5.10689,-9.98308 7.35919,-14.08809 7.93059,-14.45425 0.73589,-0.47158 2.45704,-0.49398 22.10149,-0.28762 11.71692,0.12308 22.12029,0.12397 23.11865,0.002 2.23623,-0.27326 3.25982,-1.12157 3.25982,-2.70162 0,-1.62158 -0.57224,-2.53416 -1.91963,-3.06144 -1.05889,-0.41421 -4.2386,-0.47386 -25.26839,-0.47386 -16.33339,0 -24.71605,0.10972 -26.10954,0.34172 -3.26897,0.54426 -3.82753,1.28514 -10.6278,14.09668 -5.52384,10.4068 -6.33561,11.64668 -6.96903,10.64431 -0.15577,-0.24649 -14.54889,-57.93948 -16.30079,-65.33961 -1.20249,-5.07939 -1.82765,-7.10082 -2.51191,-8.12218 -0.44953,-0.67098 -0.68259,-0.72214 -3.28992,-0.72214 -3.44011,0 -4.89473,0.64165 -5.83121,2.5722 -0.33083,0.682 -4.55201,10.43505 -9.38041,21.67344 -4.8284,11.23838 -8.94285,20.59561 -9.14324,20.79385 -0.26118,0.25838 -4.34419,0.4365 -14.42142,0.62912 -13.71092,0.26209 -14.08451,0.28528 -15.17082,0.9419 -1.25966,0.7614 -1.48745,1.17448 -1.48745,2.69734 0,1.54177 0.86506,2.7951 2.17485,3.15098 1.56695,0.42576 31.76923,0.3989 33.51,-0.0298 1.60832,-0.39608 3.24705,-1.65587 3.98829,-3.06606 0.29609,-0.5633 2.44359,-5.27861 4.77222,-10.47846 2.32864,-5.19985 5.23614,-11.69042 6.46112,-14.42351 1.90718,-4.25518 2.3182,-4.95635 2.86033,-4.87962 0.57017,0.0807 1.48728,3.44001 9.22465,33.78952 9.01747,35.37065 9.54068,37.12125 11.22432,37.55531 1.2308,0.31731 3.62234,0.29116 4.53881,-0.0496 z"
     style="fill:#d7eaf1;stroke-width:0.30838472" />
  <path
     inkscape:connector-curvature="0"
     id="path946"
     d="m 281.20353,273.95721 c -35.30664,-3.74345 -66.77446,-25.41464 -82.31057,-56.68546 -7.0278,-14.14545 -10.45915,-28.80339 -10.45915,-44.67906 0,-15.87567 3.43135,-30.53362 10.45915,-44.67907 12.5914,-25.34376 35.78368,-44.674124 63.48191,-52.911082 5.41787,-1.611182 13.591,-3.216954 19.3655,-3.804735 5.87784,-0.598303 15.81215,-0.598303 21.68999,0 41.60666,4.235118 76.74212,32.619097 88.93852,71.848457 1.6474,5.29879 3.28926,13.29226 3.89025,18.93982 0.61175,5.74864 0.61175,15.46458 0,21.21322 -4.33031,40.69208 -33.35223,75.05522 -73.46327,86.98354 -5.41788,1.61118 -13.59101,3.21695 -19.3655,3.80473 -5.67234,0.57739 -16.63607,0.56241 -22.22683,-0.0304 z m 18.28961,-59.02273 c 0.66987,-0.19629 1.97771,-1.04824 2.92605,-1.90611 1.88899,-1.70874 3.16059,-3.98222 13.2549,-23.69828 2.7154,-5.30368 5.16784,-9.72965 5.44983,-9.83549 0.28202,-0.10584 10.72396,-0.19243 23.20437,-0.19243 16.12665,0 22.98544,-0.10017 23.70717,-0.34624 1.82957,-0.62377 2.40684,-3.70008 0.93827,-4.99991 -1.49314,-1.32157 -1.7853,-1.33642 -26.33949,-1.33931 -25.92023,-0.003 -27.33045,0.0795 -29.40516,1.72183 -1.1892,0.94134 -2.20716,2.69846 -9.03526,15.5959 -3.87046,7.31083 -4.74985,8.68128 -5.25411,8.1881 -0.15932,-0.15582 -13.74415,-54.45204 -16.34529,-65.32929 -2.15185,-8.99848 -2.34682,-9.30179 -5.97922,-9.30179 -2.56463,0 -4.20917,0.53641 -5.27678,1.72117 -0.2806,0.31139 -4.67086,10.23512 -9.75611,22.05273 -5.08527,11.81762 -9.32245,21.56162 -9.41597,21.65334 -0.0935,0.0917 -6.36913,0.24754 -13.9458,0.34628 -12.34847,0.16092 -13.89751,0.23603 -14.95085,0.72488 -1.44921,0.67258 -2.40546,1.81646 -2.40546,2.87745 0,1.10656 1.00496,2.85044 1.90422,3.30436 1.04168,0.52579 33.05886,0.55186 34.61143,0.0282 2.79788,-0.94373 2.59544,-0.58702 11.04773,-19.46595 3.19165,-7.12882 5.93359,-13.09188 6.09319,-13.25123 0.183,-0.1827 0.41663,-0.16607 0.63248,0.045 0.18825,0.18411 4.17963,15.34221 8.86971,33.68466 5.75823,22.5198 8.83292,34.00765 9.46814,35.37536 0.84477,1.81889 1.06121,2.05672 2.12233,2.33204 1.63419,0.42401 2.47199,0.42719 3.87968,0.0147 z"
     style="fill:#c8e7f2;stroke-width:0.30838472" />
  <path
     inkscape:connector-curvature="0"
     id="path944"
     d="m 285.56916,274.27869 c -0.51452,-0.069 -2.47905,-0.27643 -4.36563,-0.46101 -16.06426,-1.57166 -32.1992,-7.3169 -46.30248,-16.48712 -6.23179,-4.05203 -10.59364,-7.54693 -15.91759,-12.75384 -16.86697,-16.49622 -26.98391,-37.07493 -29.99129,-61.00488 -0.52655,-4.18973 -0.52655,-17.76857 0,-21.95831 2.14991,-17.10702 7.57132,-31.63927 16.9508,-45.43717 4.1431,-6.09481 7.71655,-10.36079 13.04049,-15.5677 16.86698,-16.496217 37.9082,-26.390769 62.37598,-29.332051 4.28391,-0.514971 18.16793,-0.514971 22.45184,0 17.4915,2.102661 32.35037,7.404897 46.45839,16.578201 6.23178,4.052031 10.59365,7.546934 15.9176,12.75385 16.86697,16.49621 26.98389,37.07492 29.99128,61.00487 0.2326,1.85066 0.40245,6.48471 0.40245,10.97916 0,4.49444 -0.16985,9.1285 -0.40245,10.97915 -2.14992,17.10702 -7.57132,31.63927 -16.95079,45.43718 -4.14311,6.09481 -7.71657,10.36078 -13.04049,15.5677 -16.504,16.14119 -37.2097,26.05837 -60.83914,29.13941 -3.35482,0.43744 -17.67441,0.84472 -19.77897,0.56256 z m 14.27462,-59.43796 c 0.60389,-0.24677 1.81531,-1.10452 2.69205,-1.90611 1.74152,-1.59222 3.40341,-4.57477 12.87745,-23.11076 2.572,-5.03211 4.97375,-9.46484 5.33722,-9.85049 l 0.66086,-0.7012 22.94967,0.0517 c 20.67281,0.0466 23.04721,0.002 23.93297,-0.44561 1.16759,-0.59052 1.62545,-1.32878 1.62545,-2.62093 0,-1.55196 -0.75513,-2.59946 -2.28622,-3.17133 -1.26922,-0.47407 -3.47296,-0.50923 -26.28907,-0.41949 -18.23772,0.0717 -25.18738,0.1952 -25.96343,0.46123 -2.92586,1.00298 -3.02533,1.15073 -10.92022,16.21998 -2.41128,4.60248 -4.52606,8.50694 -4.69951,8.67658 -0.21259,0.20792 -0.42997,0.19633 -0.66707,-0.0356 -0.19345,-0.18919 -1.16636,-3.61332 -2.16202,-7.60916 -9.76626,-39.1945 -13.59142,-54.62206 -14.50499,-58.50124 -1.21262,-5.14898 -2.13021,-7.65882 -2.95854,-8.09239 -0.30942,-0.16196 -1.71715,-0.29447 -3.12829,-0.29447 -2.16892,0 -2.76988,0.11702 -3.88589,0.75668 -1.49573,0.85728 -0.0285,-2.28652 -13.36766,28.64231 -3.68206,8.53741 -6.81749,15.64269 -6.96762,15.78952 -0.15013,0.14683 -6.50715,0.37662 -14.12671,0.51065 -12.37745,0.21772 -13.97006,0.30173 -14.94516,0.78838 -1.46294,0.73012 -2.16751,1.64717 -2.17588,2.83207 -0.01,1.39006 0.88616,3.05021 1.83558,3.40108 0.46747,0.17276 7.43143,0.36087 16.52246,0.44629 16.91049,0.1589 17.97089,0.085 20.03471,-1.39619 1.17414,-0.84268 2.3747,-3.27429 9.63281,-19.51028 2.97838,-6.66246 5.60195,-12.18364 5.83015,-12.26929 0.23253,-0.0873 0.54598,0.14327 0.71309,0.52447 0.16399,0.3741 4.01376,15.40072 8.55503,33.39248 5.1733,20.49573 8.59743,33.47976 9.1688,34.76733 0.70361,1.58555 1.15133,2.17684 1.95978,2.58826 1.27972,0.65124 3.24851,0.6869 4.7202,0.0855 z"
     style="fill:#b7e3f3;stroke-width:0.30838472" />
  <path
     inkscape:connector-curvature="0"
     id="path942"
     d="m 286.9724,274.27553 c -17.22244,-1.4543 -28.49319,-4.48181 -42.21977,-11.34091 -28.68479,-14.33364 -49.3452,-41.98028 -54.74981,-73.26325 -1.07227,-6.20647 -1.38572,-10.06971 -1.38572,-17.07868 0,-16.90514 3.62212,-31.5179 11.59585,-46.7813 14.6558,-28.054266 42.92382,-48.260536 74.90987,-53.546346 6.34597,-1.048692 10.29604,-1.355255 17.46254,-1.355255 17.28509,0 32.22627,3.542498 47.83272,11.340961 28.68481,14.333641 49.3452,41.98029 54.74983,73.26325 1.07226,6.20648 1.38571,10.06972 1.38571,17.07869 0,7.00897 -0.31345,10.87221 -1.38571,17.07868 -5.95816,34.48701 -29.96363,63.76827 -63.22711,77.12284 -8.90898,3.57675 -18.49979,5.9503 -28.44135,7.0387 -3.15345,0.34524 -14.18236,0.64061 -16.52705,0.44262 z m 12.87138,-59.4348 c 0.60389,-0.24677 1.81531,-1.10452 2.69205,-1.90611 1.74207,-1.59272 3.29938,-4.38794 12.99791,-23.32996 3.18002,-6.21084 5.05046,-9.53107 5.54945,-9.85083 0.67087,-0.4299 3.22436,-0.47664 23.48933,-0.42992 20.48411,0.0472 22.8341,0.003 23.7207,-0.44528 0.54124,-0.27374 1.12858,-0.76174 1.30517,-1.08445 0.47885,-0.8751 0.38785,-2.83767 -0.16755,-3.61318 -1.15359,-1.61079 -0.77758,-1.58882 -27.06855,-1.58196 -26.29218,0.007 -27.21599,0.0569 -29.26647,1.58654 -0.79529,0.59327 -2.00656,2.54581 -4.81274,7.75808 -2.06249,3.8309 -4.67174,8.818 -5.79834,11.08246 -2.41079,4.84563 -2.84311,5.48549 -3.36592,4.98167 -0.20285,-0.19549 -2.22927,-7.81228 -4.50317,-16.9262 -7.50631,-30.08578 -12.29461,-49.49279 -12.47855,-50.57566 -0.4698,-2.76559 -1.46189,-5.61635 -2.25538,-6.48076 -0.39691,-0.43238 -1.01652,-0.53371 -3.26356,-0.53371 -2.76422,0 -4.00818,0.33674 -5.28662,1.43109 -0.28439,0.24343 -4.70459,10.18261 -9.82268,22.08706 -7.42173,17.2626 -9.43187,21.67227 -9.92928,21.78191 -0.34301,0.0756 -6.72775,0.25063 -14.18831,0.38892 -14.61838,0.27098 -14.85614,0.29993 -16.04036,1.95348 -1.05833,1.47777 -0.15517,4.7931 1.44069,5.28847 0.35699,0.11082 7.75211,0.23262 16.4336,0.27068 16.79927,0.0736 18.07366,-0.0151 19.97594,-1.39058 1.2682,-0.91701 1.73358,-1.84705 8.75731,-17.50116 3.462,-7.71591 6.45517,-14.12929 6.6515,-14.25197 0.19633,-0.12267 0.5007,-0.0359 0.67638,0.1929 0.17568,0.22877 1.20719,4.03461 2.29224,8.45741 1.08506,4.42281 4.82857,19.31346 8.31892,33.09035 6.68269,26.3775 7.51352,29.0733 9.13997,29.65646 1.24813,0.44751 3.57786,0.39625 4.80632,-0.10575 z"
     style="fill:#c4dde6;stroke-width:0.30838472" />
  <path
     inkscape:connector-curvature="0"
     id="path940"
     d="m 286.9724,274.27553 c -17.22244,-1.4543 -28.49319,-4.48181 -42.21977,-11.34091 -28.68479,-14.33364 -49.3452,-41.98028 -54.74981,-73.26325 -1.07227,-6.20647 -1.38572,-10.06971 -1.38572,-17.07868 0,-16.90514 3.62212,-31.5179 11.59585,-46.7813 14.6558,-28.054266 42.92382,-48.260536 74.90987,-53.546346 6.34597,-1.048692 10.29604,-1.355255 17.46254,-1.355255 17.28509,0 32.22627,3.542498 47.83272,11.340961 28.68481,14.333641 49.3452,41.98029 54.74983,73.26325 1.07226,6.20648 1.38571,10.06972 1.38571,17.07869 0,7.00897 -0.31345,10.87221 -1.38571,17.07868 -5.95816,34.48701 -29.96363,63.76827 -63.22711,77.12284 -8.90898,3.57675 -18.49979,5.9503 -28.44135,7.0387 -3.15345,0.34524 -14.18236,0.64061 -16.52705,0.44262 z m 12.95527,-59.29641 c 0.45894,-0.17066 1.56998,-0.92486 2.46896,-1.676 1.48361,-1.23962 2.03915,-2.13313 6.01716,-9.67769 2.41046,-4.5716 6.1471,-11.77108 8.30365,-15.99885 2.63743,-5.17052 4.1509,-7.8072 4.62329,-8.05446 0.53804,-0.28162 5.77237,-0.32642 22.37974,-0.19157 11.92258,0.0968 22.37063,0.068 23.21791,-0.0641 2.00529,-0.31259 2.98107,-1.34879 2.98107,-3.16566 0,-0.70814 -0.21987,-1.59454 -0.48861,-1.96977 -1.15359,-1.61079 -0.77758,-1.58882 -27.06855,-1.58196 -26.31033,0.007 -27.21481,0.0561 -29.27402,1.59217 -1.03347,0.77094 -2.95356,4.15971 -11.36309,20.05475 -1.02054,1.92895 -2.07745,3.54898 -2.34869,3.60006 -0.39623,0.0746 -0.74955,-0.94439 -1.7976,-5.18454 -0.71744,-2.90259 -4.03887,-16.25659 -7.38097,-29.67555 -3.3421,-13.41897 -6.69984,-27.00568 -7.46166,-30.19268 -0.76181,-3.18701 -1.60551,-6.34351 -1.87487,-7.01446 -0.85874,-2.13901 -1.13388,-2.28733 -4.24323,-2.28733 -2.76422,0 -4.00818,0.33674 -5.28662,1.43109 -0.28439,0.24343 -4.70459,10.18261 -9.82268,22.08706 -7.42173,17.2626 -9.43187,21.67227 -9.92928,21.78191 -0.34301,0.0756 -6.72775,0.25063 -14.18831,0.38892 -14.61838,0.27098 -14.85614,0.29993 -16.04036,1.95348 -1.16167,1.62205 -0.1469,4.7494 1.75106,5.39649 1.43969,0.49084 31.47188,0.45481 33.66546,-0.0404 2.71973,-0.61399 3.82935,-1.95126 6.3762,-7.68437 7.93518,-17.86255 11.28371,-25.03324 11.68991,-25.03324 0.33105,0 2.64403,8.602 9.02055,33.54742 5.64193,22.07164 8.88114,34.19482 9.46925,35.43997 0.63557,1.34561 1.13121,1.97764 1.71507,2.187 1.10644,0.39675 3.86025,0.41496 4.88926,0.0323 z"
     style="fill:#a7e1f4;stroke-width:0.30838472" />
  <path
     inkscape:connector-curvature="0"
     id="path938"
     d="m 286.19283,274.14097 c -21.39325,-1.36001 -41.7025,-9.03518 -58.62423,-22.155 -4.40447,-3.41488 -12.66928,-11.49802 -16.16092,-15.80567 -6.81921,-8.41291 -12.57084,-18.31289 -16.21227,-27.90536 -12.80834,-33.74053 -6.7286,-70.96758 16.21227,-99.26986 3.49164,-4.30765 11.75645,-12.390795 16.16092,-15.805678 8.60198,-6.669319 18.72447,-12.294519 28.53253,-15.855901 C 290.6,64.816703 328.66374,70.7628 357.60212,93.199402 c 4.40446,3.414883 12.66929,11.498028 16.16093,15.805678 6.81921,8.4129 12.57084,18.31289 16.21225,27.90535 12.80836,33.74053 6.72862,70.96759 -16.21225,99.26987 -3.32306,4.09967 -11.67308,12.31516 -15.69318,15.44036 -13.9849,10.87175 -29.34788,17.80541 -46.46282,20.96974 -7.57386,1.4003 -17.88345,2.02931 -25.41422,1.55057 z m 13.73484,-59.16185 c 0.45894,-0.17066 1.56998,-0.92486 2.46896,-1.676 1.48361,-1.23962 2.03915,-2.13313 6.01716,-9.67769 2.41046,-4.5716 6.1471,-11.77108 8.30365,-15.99885 2.55815,-5.0151 4.1572,-7.8105 4.60059,-8.04258 0.50567,-0.26468 6.51534,-0.32674 23.48371,-0.24252 21.67226,0.10756 22.84736,0.0855 23.67515,-0.44425 0.47903,-0.30659 1.06855,-1.01987 1.31003,-1.58508 0.56728,-1.32787 0.0461,-3.01194 -1.21549,-3.92789 -0.87353,-0.63418 -1.0697,-0.63982 -25.57014,-0.73544 -17.61,-0.0687 -25.2905,0.004 -26.78447,0.25464 -3.72774,0.62465 -3.22933,-0.10672 -14.33624,21.0367 -1.11529,2.12309 -2.22136,3.85261 -2.49705,3.90454 -0.39591,0.0746 -0.71881,-0.80982 -1.61422,-4.42128 -0.61561,-2.48297 -4.14447,-16.66018 -7.84191,-31.50491 -3.69743,-14.84473 -7.06856,-28.56868 -7.49139,-30.49766 -0.94351,-4.30432 -1.549,-6.13421 -2.36572,-7.14969 -0.59556,-0.74048 -0.77886,-0.77964 -3.64482,-0.77855 -3.27311,0.001 -4.50221,0.4306 -5.50122,1.92177 -0.26977,0.40267 -4.55611,10.18148 -9.52518,21.7307 -4.96908,11.54921 -9.21127,21.16701 -9.42709,21.3729 -0.28936,0.27605 -4.03608,0.44363 -14.26888,0.63822 -14.5298,0.2763 -14.54293,0.27768 -16.13725,1.6979 -1.44459,1.28684 -0.56995,4.99855 1.34573,5.71089 1.20546,0.44823 31.78658,0.39216 33.79824,-0.062 2.20872,-0.49862 3.73493,-1.86818 4.925,-4.41945 0.53445,-1.14575 3.58784,-7.91585 6.78532,-15.04468 3.19748,-7.12882 5.94348,-13.09188 6.10223,-13.25123 0.18226,-0.18295 0.39912,-0.18166 0.58845,0.004 0.1649,0.16128 4.01387,14.99293 8.55326,32.95923 4.90799,19.42513 8.6659,33.68682 9.27101,35.18443 0.84042,2.08002 1.18353,2.58913 1.97103,2.92457 1.14214,0.48651 3.86084,0.55133 5.02155,0.11973 z"
     style="fill:#9be1f4;stroke-width:0.30838472" />
  <path
     inkscape:connector-curvature="0"
     id="path936"
     d="m 282.29494,273.80053 c -20.15709,-2.04036 -39.02051,-9.61723 -55.03817,-22.1072 -4.39991,-3.43087 -12.04188,-10.90487 -15.54987,-15.20806 -12.93822,-15.87108 -20.57972,-34.23141 -22.63874,-54.39438 -0.41536,-4.06743 -0.41536,-14.92898 0,-18.99641 2.05902,-20.16296 9.70052,-38.52329 22.63874,-54.39438 3.50799,-4.30319 11.14996,-11.777182 15.54987,-15.208058 16.22779,-12.653821 35.00077,-20.12735 55.61691,-22.141107 4.15885,-0.406229 15.26451,-0.406229 19.42336,0 20.61613,2.013757 39.38911,9.487286 55.61692,22.141107 4.3999,3.430876 12.04188,10.904868 15.54985,15.208058 12.93825,15.87109 20.57973,34.23142 22.63875,54.39438 0.1774,1.73708 0.32252,6.01127 0.32252,9.49821 0,3.48693 -0.14512,7.76112 -0.32252,9.4982 -2.05902,20.16297 -9.7005,38.5233 -22.63875,54.39438 -3.50797,4.30319 -11.14995,11.77719 -15.54985,15.20806 -16.22781,12.65382 -35.00079,20.12735 -55.61692,22.14111 -3.802,0.37137 -16.20595,0.35034 -20.0021,-0.0339 z m 16.93365,-58.63036 c 0.8059,-0.23721 2.1821,-1.04325 3.12189,-1.82848 1.5414,-1.28792 2.04382,-2.09304 6.06331,-9.71626 2.41046,-4.5716 6.1471,-11.77108 8.30365,-15.99885 2.49276,-4.8869 4.16213,-7.81307 4.58294,-8.03334 0.48215,-0.25236 6.86081,-0.31824 23.4839,-0.24253 21.36105,0.0973 22.87564,0.0696 23.66027,-0.43263 2.83376,-1.81392 1.89522,-5.39348 -1.65966,-6.32967 -0.84126,-0.22155 -8.96645,-0.29252 -25.47799,-0.22253 -26.87389,0.11391 -26.53276,0.0891 -28.63962,2.08622 -0.94234,0.89328 -5.13693,8.45671 -10.8066,19.48579 -1.13684,2.21146 -2.17074,3.8491 -2.46508,3.90453 -0.41159,0.0775 -0.71759,-0.75396 -1.62629,-4.419 -0.61561,-2.48297 -4.14447,-16.66018 -7.84191,-31.50491 -3.69743,-14.84473 -7.06739,-28.56868 -7.48879,-30.49766 -1.63618,-7.4897 -2.16951,-8.23871 -5.85851,-8.22766 -2.46476,0.007 -4.26819,0.62842 -5.39885,1.85917 -0.36704,0.39954 -4.7647,10.26457 -9.77259,21.9223 -5.00788,11.65773 -9.30217,21.34751 -9.54285,21.53285 -0.29663,0.22841 -4.78339,0.38779 -13.92657,0.49469 -14.62197,0.17097 -14.84618,0.19684 -16.45135,1.89851 -1.46192,1.54982 -0.77602,4.54384 1.27739,5.57593 1.06512,0.53536 31.6367,0.54738 34.00215,0.0134 2.71973,-0.61399 3.82935,-1.95126 6.3762,-7.68436 7.93518,-17.86255 11.28371,-25.03324 11.68991,-25.03324 0.32085,0 0.98661,2.08694 2.38364,7.47193 1.06614,4.10956 2.00587,7.81502 2.08828,8.23437 0.0824,0.41934 0.23624,1.17416 0.34184,1.67737 0.1056,0.50321 2.98653,11.84607 6.40207,25.20636 7.03901,27.53388 7.26874,28.21982 9.6543,28.82618 1.85555,0.47165 1.85995,0.47163 3.52492,-0.0185 z"
     style="fill:#aed9e8;stroke-width:0.30838472" />
  <path
     inkscape:connector-curvature="0"
     id="path934"
     d="m 282.29494,273.80053 c -20.15709,-2.04036 -39.02051,-9.61723 -55.03817,-22.1072 -4.39991,-3.43087 -12.04188,-10.90487 -15.54987,-15.20806 -12.93822,-15.87108 -20.57972,-34.23141 -22.63874,-54.39438 -0.41536,-4.06743 -0.41536,-14.92898 0,-18.99641 2.05902,-20.16296 9.70052,-38.52329 22.63874,-54.39438 3.50799,-4.30319 11.14996,-11.777182 15.54987,-15.208058 16.22779,-12.653821 35.00077,-20.12735 55.61691,-22.141107 4.15885,-0.406229 15.26451,-0.406229 19.42336,0 20.61613,2.013757 39.38911,9.487286 55.61692,22.141107 4.3999,3.430876 12.04188,10.904868 15.54985,15.208058 12.93825,15.87109 20.57973,34.23142 22.63875,54.39438 0.1774,1.73708 0.32252,6.01127 0.32252,9.49821 0,3.48693 -0.14512,7.76112 -0.32252,9.4982 -2.05902,20.16297 -9.7005,38.5233 -22.63875,54.39438 -3.50797,4.30319 -11.14995,11.77719 -15.54985,15.20806 -16.22781,12.65382 -35.00079,20.12735 -55.61692,22.14111 -3.802,0.37137 -16.20595,0.35034 -20.0021,-0.0339 z m 16.81698,-58.53503 c 1.9459,-0.40815 4.2099,-2.30041 5.74059,-4.79801 0.58485,-0.95429 4.38243,-8.13735 8.43907,-15.96235 4.05665,-7.825 7.57788,-14.39137 7.82501,-14.59194 0.33996,-0.27594 5.97156,-0.36003 23.14487,-0.3456 17.05975,0.0143 22.96661,-0.073 23.787,-0.35191 1.39267,-0.47339 2.28173,-2.04319 2.02376,-3.57324 -0.22515,-1.33521 -1.58476,-2.60566 -3.26092,-3.04709 -0.87543,-0.23054 -8.68227,-0.30079 -25.5044,-0.22948 -26.87316,0.1139 -26.53282,0.0891 -28.63924,2.08586 -0.91909,0.87124 -6.60212,11.06897 -11.20099,20.09926 -1.45322,2.85353 -1.97588,3.53913 -2.3734,3.11331 -0.11092,-0.11882 -1.06945,-3.71564 -2.13008,-7.99294 -12.00401,-48.40983 -15.68575,-63.13441 -16.00356,-64.00396 -0.20631,-0.56446 -0.77282,-1.35359 -1.2589,-1.75361 -0.75387,-0.6204 -1.2126,-0.72633 -3.12063,-0.72061 -2.46476,0.007 -4.26819,0.62842 -5.39885,1.85917 -0.36704,0.39954 -4.7647,10.26457 -9.77259,21.9223 -5.00788,11.65773 -9.30217,21.34751 -9.54285,21.53285 -0.29663,0.22841 -4.78339,0.38779 -13.92657,0.49469 -14.62197,0.17097 -14.84618,0.19684 -16.45135,1.89851 -1.46192,1.54982 -0.77602,4.54384 1.27739,5.57593 1.01523,0.51028 32.38984,0.55068 34.44583,0.0444 2.25632,-0.55566 3.49083,-2.01555 5.5243,-6.5328 0.97858,-2.17388 3.99901,-8.89313 6.71206,-14.93166 3.19992,-7.12217 5.09063,-10.97916 5.38205,-10.97916 0.33634,0 2.60576,8.42982 9.03141,33.54742 6.28337,24.56138 8.83095,34.03757 9.51085,35.37728 0.8526,1.68 1.04357,1.85907 2.33189,2.18653 1.81488,0.46131 1.59872,0.45644 3.40825,0.0769 z"
     style="fill:#96ddf5;stroke-width:0.30838472" />
  <path
     inkscape:connector-curvature="0"
     id="path932"
     d="m 282.9186,273.81915 c -41.29245,-3.85744 -76.43932,-31.41078 -89.15588,-69.89363 -3.46823,-10.49558 -5.01656,-20.16624 -5.01656,-31.33283 0,-16.35777 3.7005,-31.53316 11.22237,-46.02182 16.19749,-31.199678 47.54061,-51.948565 83.41782,-55.221902 4.4066,-0.402048 13.99142,-0.402048 18.39803,0 44.60246,4.069408 81.20403,34.930272 91.81053,77.410702 1.93463,7.74852 2.82964,15.28691 2.82964,23.83302 0,16.35776 -3.70049,31.53315 -11.22236,46.02182 -16.1975,31.19967 -47.5406,51.94856 -83.41781,55.2219 -3.93374,0.3589 -14.94696,0.34883 -18.86578,-0.0173 z m 16.60058,-58.58733 c 1.6287,-0.47724 4.00921,-2.60378 5.33333,-4.76433 0.58485,-0.95429 4.38243,-8.13735 8.43907,-15.96235 4.05665,-7.825 7.55743,-14.37476 7.77951,-14.55503 0.27791,-0.22555 7.65848,-0.35391 23.66791,-0.41161 23.06402,-0.0831 23.27164,-0.0893 24.1443,-0.72302 1.9863,-1.44235 1.61665,-4.55781 -0.68057,-5.73627 -1.23439,-0.63322 -1.47172,-0.63901 -26.19216,-0.63901 -28.12321,0 -27.31082,-0.0605 -29.50203,2.19785 -1.03788,1.0697 -5.69754,9.44356 -10.57149,18.99802 -1.89612,3.71699 -2.42855,4.4706 -2.84596,4.02824 -0.19831,-0.21017 -14.21703,-56.33491 -16.35571,-65.48101 -1.34443,-5.74952 -1.84103,-7.21553 -2.77977,-8.20618 -0.68485,-0.72272 -0.96149,-0.79063 -3.22066,-0.79063 -2.70529,0 -4.16058,0.43978 -5.3662,1.62163 -0.4872,0.4776 -4.11453,8.53271 -9.93274,22.05738 -5.04089,11.71776 -9.28775,21.43742 -9.43746,21.59923 -0.16176,0.17483 -5.81579,0.37006 -13.93466,0.48116 -13.37931,0.18308 -13.69283,0.20133 -15.12774,0.88069 -1.50286,0.71153 -2.38375,1.86159 -2.38375,3.11214 0,1.10714 1.19451,3.19224 2.04618,3.57176 1.09158,0.48643 32.64111,0.49601 34.61253,0.0105 2.25632,-0.55566 3.49083,-2.01554 5.5243,-6.5328 0.97858,-2.17388 3.99901,-8.89312 6.71206,-14.93166 3.19992,-7.12217 5.09063,-10.97915 5.38205,-10.97915 0.32434,0 0.86695,1.65319 1.95191,5.94704 16.40412,64.92083 16.24185,64.35272 18.61041,65.15423 1.42767,0.48311 2.60816,0.49832 4.12734,0.0532 z"
     style="fill:#87dbf6;stroke-width:0.30838472" />
  <path
     inkscape:connector-curvature="0"
     id="path930"
     d="m 285.56916,273.97372 c -0.51452,-0.069 -2.47905,-0.27644 -4.36563,-0.46102 -4.80041,-0.46965 -9.50459,-1.321 -15.0226,-2.71875 -36.01486,-9.12283 -64.67023,-37.14809 -74.00458,-72.37723 -2.49415,-9.41327 -3.2748,-15.56921 -3.2748,-25.82403 0,-10.25482 0.78065,-16.41077 3.2748,-25.82403 9.33441,-35.22939 37.98339,-63.248634 74.00458,-72.377863 9.62483,-2.439321 15.91913,-3.202808 26.40443,-3.202808 10.4853,0 16.77961,0.763487 26.40443,3.202808 36.02117,9.129229 64.67018,37.148473 74.00459,72.377863 2.49415,9.41326 3.27479,15.56921 3.27479,25.82403 0,10.25482 -0.78064,16.41076 -3.27479,25.82403 -9.334,35.22785 -38.02361,63.28528 -74.00459,72.37385 -9.27679,2.34326 -14.76635,3.04962 -24.84527,3.19692 -4.20193,0.0614 -8.06084,0.0552 -8.57536,-0.0138 z m 13.95002,-58.7419 c 1.629,-0.47733 4.00956,-2.60413 5.33278,-4.76433 0.58455,-0.95429 4.32911,-8.0481 8.32124,-15.764 3.99214,-7.71591 7.46965,-14.26909 7.72785,-14.56263 0.43903,-0.49915 1.93538,-0.53382 23.1068,-0.53541 14.55315,-10e-4 23.04989,-0.11376 23.79255,-0.31548 3.26222,-0.88611 3.27541,-5.0578 0.0203,-6.42242 -1.40168,-0.58763 -2.10027,-0.60095 -26.41003,-0.50375 -26.46008,0.1058 -26.30487,0.0973 -28.32552,1.55336 -1.22116,0.87996 -2.24583,2.63598 -8.12516,13.92435 -2.75192,5.28372 -5.15235,9.70398 -5.33428,9.8228 -0.18192,0.11882 -0.42231,0.11882 -0.53418,0 -0.20425,-0.21692 -15.48378,-61.60155 -16.91628,-67.96017 -0.82133,-3.64573 -1.704,-5.69826 -2.66731,-6.20248 -0.33115,-0.17334 -1.73952,-0.31517 -3.12968,-0.31517 -2.80458,0 -4.59431,0.63973 -5.47739,1.95786 -0.26903,0.40156 -4.61468,10.29761 -9.65701,21.99122 -5.04233,11.69361 -9.22438,21.31638 -9.29345,21.38393 -0.0691,0.0676 -6.35501,0.23284 -13.96875,0.3673 -13.32098,0.23526 -13.89239,0.26935 -15.14785,0.90368 -1.60429,0.81059 -2.28138,1.71126 -2.28138,3.0347 0,1.3839 1.10284,3.3886 2.05995,3.74449 1.15682,0.43015 32.83538,0.38559 34.59876,-0.0487 2.25632,-0.55566 3.49083,-2.01555 5.5243,-6.5328 0.97858,-2.17388 3.99901,-8.89313 6.71206,-14.93166 3.19992,-7.12217 5.09063,-10.97916 5.38205,-10.97916 0.50397,0 -0.0672,-2.16177 10.24286,38.77014 7.4636,29.6313 8.03262,31.46883 9.99141,32.26515 1.36551,0.55511 2.83358,0.59438 4.45539,0.11915 z"
     style="fill:#78d8f7;stroke-width:0.30838472" />
  <path
     inkscape:connector-curvature="0"
     id="path928"
     d="m 284.63367,273.81047 c -17.90387,-1.32284 -35.89686,-7.54337 -50.82845,-17.5724 -9.87458,-6.63241 -19.96372,-16.49979 -26.7452,-26.15731 -16.61176,-23.65685 -22.26719,-53.49824 -15.37428,-81.12375 3.10156,-12.4305 8.17276,-23.59669 15.37428,-33.8524 6.78148,-9.65752 16.87062,-19.524891 26.7452,-26.157301 24.18855,-16.246612 54.70063,-21.777731 82.94704,-15.036337 12.70989,3.033385 24.12702,7.993111 34.61324,15.036337 9.87457,6.63241 19.96374,16.499781 26.74519,26.157301 16.61177,23.65685 22.26719,53.49824 15.3743,81.12376 -3.10157,12.43049 -8.17275,23.59668 -15.3743,33.85239 -6.78145,9.65752 -16.87062,19.5249 -26.74519,26.15731 -19.471,13.078 -43.15414,19.31445 -66.73183,17.5724 z m 14.88551,-58.57865 c 1.629,-0.47733 4.00956,-2.60413 5.33278,-4.76433 0.58455,-0.95429 4.32911,-8.0481 8.32124,-15.764 3.99214,-7.71591 7.46965,-14.26909 7.72785,-14.56263 0.43903,-0.49915 1.93538,-0.53382 23.1068,-0.53541 14.02183,-9.2e-4 23.06156,-0.11695 23.75195,-0.30452 0.613,-0.16654 1.43832,-0.63987 1.83407,-1.05185 0.61193,-0.63707 0.69675,-0.98054 0.56734,-2.29773 -0.18042,-1.83644 -0.97176,-2.80555 -2.70576,-3.31365 -1.65389,-0.48462 -48.24997,-0.49356 -51.09041,-0.01 -3.36365,0.57288 -4.07783,1.32273 -7.8225,8.21321 -1.77337,3.26314 -4.42305,8.36095 -5.88817,11.32846 -2.48765,5.03861 -3.3366,6.27022 -3.68757,5.3498 -0.38017,-0.99699 -15.87153,-63.67748 -16.53368,-66.8979 -0.83496,-4.06082 -1.42189,-5.70768 -2.40524,-6.7488 -0.57848,-0.61245 -0.94556,-0.68619 -3.41574,-0.68619 -2.85997,0 -4.04403,0.34395 -5.42353,1.57546 -0.38161,0.34068 -4.51093,9.55537 -9.78989,21.8464 -5.02144,11.69146 -9.28498,21.41998 -9.47452,21.61894 -0.24799,0.26031 -4.23521,0.43792 -14.2211,0.63347 -11.93607,0.23374 -14.01434,0.34223 -14.86239,0.77583 -2.17402,1.11157 -2.83986,3.09955 -1.77395,5.29641 1.05852,2.18163 0.23388,2.09323 18.49363,1.98232 9.95142,-0.0605 16.90548,-0.22442 17.71085,-0.41761 2.18636,-0.52446 3.44486,-2.02372 5.46417,-6.50951 0.97858,-2.17388 3.99901,-8.89313 6.71206,-14.93166 3.19992,-7.12217 5.09063,-10.97916 5.38205,-10.97916 0.32588,0 0.93574,1.90193 2.22121,6.92711 0.97459,3.80992 1.85009,7.40777 1.94555,7.99523 0.0955,0.58746 3.05318,12.36074 6.5727,26.16284 6.99038,27.4134 7.5964,29.32407 9.51586,30.00178 1.4077,0.49701 2.89141,0.51959 4.43434,0.0675 z"
     style="fill:#67d5f8;stroke-width:0.30838472" />
  <path
     inkscape:connector-curvature="0"
     id="path926"
     d="m 287.75198,273.96594 c -26.65153,-1.56878 -50.09801,-11.73907 -68.45669,-29.6942 -17.03908,-16.66455 -27.1445,-37.44947 -29.9565,-61.61483 -0.20494,-1.76124 -0.37263,-6.29014 -0.37263,-10.06422 0,-3.77409 0.16769,-8.30299 0.37263,-10.06423 2.812,-24.16535 12.91742,-44.95028 29.9565,-61.61483 17.03909,-16.664539 38.29117,-26.547828 62.99965,-29.298012 1.80082,-0.200443 6.43151,-0.364438 10.29042,-0.364438 3.85891,0 8.4896,0.163995 10.29042,0.364438 24.70849,2.750184 45.96056,12.633473 62.99966,29.298012 17.03907,16.66455 27.14448,37.44948 29.95648,61.61483 0.48031,4.12745 0.48031,16.001 0,20.12845 -2.812,24.16536 -12.91741,44.95028 -29.95648,61.61483 -16.93963,16.56726 -38.81654,26.77086 -62.68783,29.23821 -3.36404,0.34771 -12.62659,0.62134 -15.43563,0.45599 z m 11.7672,-58.73412 c 1.629,-0.47733 4.00956,-2.60413 5.33278,-4.76433 0.58455,-0.95429 4.32911,-8.0481 8.32124,-15.764 3.99214,-7.71591 7.46965,-14.26909 7.72785,-14.56263 0.43903,-0.49915 1.93538,-0.53382 23.1068,-0.53541 13.93451,-9.2e-4 23.0634,-0.11745 23.74553,-0.30279 1.79851,-0.48865 2.4779,-1.31694 2.4779,-3.02101 0,-1.04807 -0.19464,-1.71388 -0.67602,-2.3124 -1.38905,-1.72709 -0.65444,-1.68154 -27.11935,-1.68154 -16.41643,0 -25.03257,0.11025 -26.36615,0.33738 -3.07674,0.52401 -4.0844,1.63631 -7.84478,8.65943 -1.70642,3.187 -4.25712,8.15385 -5.66822,11.03744 -2.39484,4.89385 -3.2402,6.11804 -3.58907,5.19742 -0.13976,-0.36878 -7.13017,-28.41322 -13.24505,-53.13702 -1.70093,-6.87722 -3.18386,-13.19024 -3.2954,-14.02892 -0.31557,-2.3728 -1.31626,-5.21664 -2.19504,-6.23806 -0.78695,-0.91467 -0.84434,-0.92889 -3.74934,-0.92889 -3.16032,0 -4.084,0.28086 -5.37752,1.63515 -0.4265,0.44654 -4.64429,9.84136 -9.89691,22.04464 -5.03451,11.69656 -9.26057,21.36905 -9.39125,21.49444 -0.13067,0.12539 -6.48201,0.34647 -14.11408,0.49131 -14.75033,0.27992 -14.54324,0.25637 -16.29316,1.85263 -1.43695,1.31077 -1.09156,4.11332 0.70258,5.70095 0.67316,0.59567 1.05736,0.60698 17.26059,0.50791 10.00589,-0.0612 17.0975,-0.22665 17.89813,-0.41761 2.18566,-0.52132 3.44398,-2.01995 5.46417,-6.50771 0.97858,-2.17388 3.99901,-8.89313 6.71206,-14.93166 3.19992,-7.12217 5.09063,-10.97916 5.38205,-10.97916 0.326,0 0.9395,1.9168 2.23662,6.98811 0.98308,3.84347 1.8495,7.48031 1.92539,8.08188 0.30201,2.39393 13.04759,51.46954 13.85783,53.35819 0.68526,1.59732 1.09199,2.13327 1.93871,2.55464 1.24777,0.62094 2.9829,0.68389 4.73111,0.17162 z"
     style="fill:#8dc7da;stroke-width:0.30838472" />
  <path
     inkscape:connector-curvature="0"
     id="path924"
     d="m 287.75198,273.96594 c -26.65153,-1.56878 -50.09801,-11.73907 -68.45669,-29.6942 -17.03908,-16.66455 -27.1445,-37.44947 -29.9565,-61.61483 -0.20494,-1.76124 -0.37263,-6.29014 -0.37263,-10.06422 0,-3.77409 0.16769,-8.30299 0.37263,-10.06423 2.812,-24.16535 12.91742,-44.95028 29.9565,-61.61483 17.03909,-16.664539 38.29117,-26.547828 62.99965,-29.298012 1.80082,-0.200443 6.43151,-0.364438 10.29042,-0.364438 3.85891,0 8.4896,0.163995 10.29042,0.364438 24.70849,2.750184 45.96056,12.633473 62.99966,29.298012 17.03907,16.66455 27.14448,37.44948 29.95648,61.61483 0.48031,4.12745 0.48031,16.001 0,20.12845 -2.812,24.16536 -12.91741,44.95028 -29.95648,61.61483 -16.93963,16.56726 -38.81654,26.77086 -62.68783,29.23821 -3.36404,0.34771 -12.62659,0.62134 -15.43563,0.45599 z m 12.16453,-58.6777 c 1.33192,-0.49526 3.83578,-2.7349 4.83736,-4.32689 0.51091,-0.81209 4.37514,-8.12374 8.58717,-16.24811 5.66076,-10.91875 7.82834,-14.82439 8.3104,-14.97403 0.35867,-0.11133 10.8395,-0.15229 23.29072,-0.091 21.14938,0.1041 22.7046,0.0761 23.64278,-0.42544 1.27529,-0.6818 1.64634,-1.37183 1.64634,-3.06167 0,-0.92441 -0.21357,-1.61686 -0.67602,-2.19185 -1.38905,-1.72709 -0.65444,-1.68154 -27.11935,-1.68154 -16.41643,0 -25.03257,0.11025 -26.36615,0.33738 -3.63647,0.61934 -4.46761,1.81212 -13.31259,19.10487 -1.65155,3.22894 -3.13703,5.8708 -3.30107,5.8708 -0.16404,0 -0.45904,-0.58326 -0.65557,-1.29615 -0.81976,-2.97364 -15.36007,-61.70541 -16.18444,-65.37283 -0.99148,-4.4108 -1.57801,-6.01887 -2.57321,-7.05493 -0.59743,-0.62196 -0.95282,-0.69036 -3.58666,-0.69036 -3.132,0 -4.05994,0.28357 -5.35088,1.63515 -0.4265,0.44654 -4.64429,9.84136 -9.89691,22.04464 -5.03451,11.69656 -9.26057,21.36905 -9.39125,21.49444 -0.13067,0.12539 -6.48201,0.34647 -14.11408,0.49131 -14.75033,0.27992 -14.54324,0.25637 -16.29316,1.85263 -1.62575,1.48299 -0.85523,4.98878 1.33464,6.07252 1.07358,0.53129 31.63824,0.55614 33.97939,0.0276 2.3962,-0.54095 4.01845,-2.09051 5.43621,-5.19259 0.63514,-1.38971 3.65195,-8.08495 6.70402,-14.8783 3.30619,-7.35898 5.71695,-12.35155 5.96419,-12.35155 0.27944,0 0.86132,1.79303 1.7815,5.48958 6.70293,26.92689 15.55473,61.067 16.2497,62.67268 0.67257,1.55392 1.08947,2.09759 1.929,2.51558 1.18701,0.591 3.83513,0.70876 5.12792,0.22805 z"
     style="fill:#56d4f8;stroke-width:0.30838472" />
  <path
     inkscape:connector-curvature="0"
     id="path922"
     d="m 284.01001,273.6644 c -0.51452,-0.0683 -2.26857,-0.27015 -3.89789,-0.44851 -10.4937,-1.14876 -22.22242,-4.52175 -32.41759,-9.32277 -29.23182,-13.76559 -49.95017,-39.66411 -56.57032,-70.71452 -1.67577,-7.8598 -1.9026,-10.31414 -1.9026,-20.58591 0,-10.27177 0.22683,-12.72612 1.9026,-20.58592 5.9007,-27.67599 23.45202,-51.89644 48.01594,-66.260992 12.06105,-7.053088 25.08546,-11.525981 39.88056,-13.695944 5.38864,-0.790337 21.74067,-0.790337 27.1293,0 11.76029,1.724853 21.40492,4.570385 31.32617,9.242418 29.23185,13.765592 49.95018,39.664108 56.57035,70.714518 1.67575,7.8598 1.90258,10.31415 1.90258,20.58592 0,10.27177 -0.22683,12.72611 -1.90258,20.58591 -4.13039,19.37263 -13.93994,37.15321 -28.18213,51.08235 -14.05949,13.75045 -32.13116,23.36215 -51.60678,27.44787 -7.46164,1.56535 -10.80826,1.89373 -20.26902,1.98886 -4.9737,0.05 -9.46407,0.035 -9.97859,-0.0333 z m 15.0094,-58.16605 c 1.93744,-0.49152 4.43001,-2.46359 5.73446,-4.537 0.51091,-0.81209 4.37876,-8.13071 8.59521,-16.26361 6.69843,-12.92024 7.76932,-14.81239 8.48238,-14.98742 0.44885,-0.11018 10.36476,-0.12369 22.03535,-0.03 11.67059,0.0937 21.95958,0.0711 22.86442,-0.0502 2.99956,-0.40212 4.29513,-2.19384 3.43672,-4.75288 -0.31146,-0.92844 -0.72701,-1.38219 -1.80766,-1.97377 l -1.40324,-0.76818 -23.67318,-0.0837 c -26.42073,-0.0934 -27.80246,-0.0154 -30.2478,1.70861 -1.42813,1.00685 -4.02002,5.50564 -10.00156,17.35988 -1.79856,3.56441 -3.40659,6.48075 -3.57339,6.48075 -0.1668,0 -0.46406,-0.58327 -0.66059,-1.29615 -1.10204,-3.99761 -15.43718,-62.04732 -16.178,-65.51229 -0.98447,-4.60463 -1.96458,-6.95765 -3.13407,-7.52418 -0.42877,-0.20771 -1.76185,-0.37833 -2.9624,-0.37916 -2.48731,-0.002 -5.0731,0.95683 -5.87741,2.17878 -0.25741,0.39106 -4.56544,10.24916 -9.57341,21.90689 -5.00797,11.65773 -9.23743,21.27811 -9.39878,21.37862 -0.16136,0.10052 -6.38382,0.25768 -13.82768,0.34925 -13.16446,0.16196 -13.57336,0.185 -14.96376,0.84329 -0.7862,0.37222 -1.66775,1.03252 -1.959,1.46732 -1.12778,1.68368 -0.18526,4.97445 1.66029,5.79685 1.1406,0.50827 31.88395,0.50359 34.13766,-0.005 2.3962,-0.54095 4.01845,-2.09051 5.43621,-5.19259 0.63514,-1.38971 3.65195,-8.08495 6.70402,-14.8783 3.41814,-7.60816 5.71317,-12.35155 5.97614,-12.35155 0.30021,0 0.96703,2.2177 2.24666,7.47192 5.75546,23.63227 14.95654,59.03411 15.85257,60.99399 0.92729,2.02827 1.05599,2.16537 2.41747,2.57546 1.83,0.5512 1.78723,0.55033 3.66237,0.0746 z"
     style="fill:#47d1f9;stroke-width:0.30838472" />
  <path
     inkscape:connector-curvature="0"
     id="path920"
     d="m 283.38635,273.50758 c -20.2182,-1.83621 -39.62131,-9.46084 -55.50592,-21.81156 -4.40444,-3.42456 -12.67475,-11.51308 -16.17628,-15.8207 -14.70208,-18.08663 -22.64455,-40.28271 -22.64455,-63.28263 0,-22.99993 7.94247,-45.196 22.64455,-63.28263 3.50153,-4.30762 11.77184,-12.396145 16.17628,-15.820708 18.49313,-14.378912 41.18807,-22.146792 64.70493,-22.146792 23.51686,0 46.2118,7.76788 64.70493,22.146792 4.40443,3.424563 12.67475,11.513088 16.1763,15.820708 14.70205,18.08663 22.64454,40.2827 22.64454,63.28263 0,22.99992 -7.94249,45.196 -22.64454,63.28263 -3.50155,4.30762 -11.77187,12.39614 -16.1763,15.8207 -16.05639,12.48429 -35.41751,20.03637 -55.97366,21.83331 -4.13987,0.3619 -13.83556,0.35013 -17.93028,-0.0217 z m 15.63306,-58.00923 c 1.93744,-0.49152 4.43001,-2.46359 5.73446,-4.537 0.51091,-0.81209 4.37514,-8.12374 8.58717,-16.24811 5.66076,-10.91875 7.82834,-14.82439 8.3104,-14.97403 0.35867,-0.11133 10.8395,-0.15229 23.29072,-0.091 21.19921,0.10434 22.70279,0.0771 23.64908,-0.42863 1.49585,-0.79944 2.06585,-1.81999 1.85898,-3.32843 -0.23132,-1.68655 -1.0863,-2.73226 -2.74574,-3.35812 -1.24445,-0.46936 -3.56457,-0.51866 -25.12076,-0.53371 -26.35528,-0.0184 -27.54624,0.0524 -29.71531,1.76641 -1.46489,1.15758 -2.54237,3.01598 -8.29358,14.30452 -2.67055,5.24178 -4.98187,9.53051 -5.13627,9.53051 -0.15439,0 -0.44157,-0.58326 -0.63819,-1.29615 -1.37316,-4.97883 -15.96037,-64.29742 -16.33836,-66.4396 -0.54962,-3.11486 -1.65336,-5.77045 -2.69491,-6.48395 -0.52919,-0.36251 -1.41921,-0.49955 -3.24435,-0.49955 -2.80253,0 -4.78208,0.72537 -5.826,2.13484 -0.31059,0.41934 -4.64105,10.23196 -9.62326,21.80582 -4.9822,11.57386 -9.17119,21.15381 -9.30886,21.28878 -0.13767,0.13496 -6.40988,0.35204 -13.93824,0.48239 -13.12399,0.22723 -13.74132,0.26388 -14.98374,0.88975 -1.72792,0.87044 -2.60333,2.00963 -2.59695,3.37946 0.006,1.35795 1.14578,3.39937 2.18429,3.91328 1.07643,0.53268 31.94722,0.55876 34.29398,0.029 2.3962,-0.54095 4.01845,-2.0905 5.43621,-5.19258 0.63514,-1.38972 3.65195,-8.08495 6.70402,-14.8783 3.41814,-7.60817 5.71317,-12.35155 5.97614,-12.35155 0.30071,0 0.9594,2.20887 2.22812,7.47192 5.00287,20.75347 14.75281,58.60797 15.59235,60.53784 1.11054,2.55288 1.08886,2.5275 2.61403,3.05919 1.52783,0.53263 1.81622,0.53625 3.74457,0.047 z"
     style="fill:#37cdfa;stroke-width:0.30838472" />
  <path
     inkscape:connector-curvature="0"
     id="path918"
     d="m 286.66057,273.66672 c -10.59588,-0.88514 -17.88543,-2.24217 -26.25853,-4.88832 -31.00084,-9.79723 -56.14678,-34.39042 -66.1642,-64.70983 -3.57313,-10.8147 -4.97593,-19.68823 -4.97593,-31.47588 0,-11.78765 1.4028,-20.66119 4.97593,-31.47589 10.01742,-30.3194 35.16336,-54.912596 66.1642,-64.709821 11.05777,-3.494595 20.13074,-4.86655 32.18332,-4.86655 10.0506,0 16.10715,0.698963 25.1024,2.896978 31.92893,7.801922 58.09882,29.943733 70.62987,59.758513 3.52977,8.39826 5.73024,16.70514 7.06095,26.65517 0.73386,5.4874 0.73386,17.99579 0,23.48319 -3.15944,23.62415 -13.03301,43.52909 -29.65666,59.78733 -16.58058,16.21613 -37.33206,26.0726 -60.97515,28.9618 -3.7463,0.4578 -15.17592,0.82642 -18.0862,0.58331 z m 12.35884,-58.16837 c 1.93744,-0.49152 4.43001,-2.46359 5.73446,-4.537 0.51091,-0.81209 4.37514,-8.12374 8.58717,-16.24811 5.66076,-10.91875 7.82834,-14.82439 8.3104,-14.97403 0.35867,-0.11133 10.8395,-0.15229 23.29072,-0.091 24.18187,0.11902 23.18707,0.17305 24.89933,-1.35224 0.52547,-0.46808 0.70162,-0.96357 0.70162,-1.97343 0,-1.6968 -0.74883,-2.95643 -2.16913,-3.64868 -1.02913,-0.50162 -2.85175,-0.53864 -26.51932,-0.53864 -19.99616,0 -25.70053,0.0848 -26.75718,0.39763 -2.49725,0.7394 -3.45708,1.96543 -7.64187,9.76126 -2.13303,3.97363 -3.98457,7.56787 -4.11454,7.98722 -0.42648,1.37609 -3.5819,7.31943 -3.88601,7.31943 -0.38912,0 0.12075,1.96527 -8.78281,-33.85239 -4.27386,-17.19305 -7.90246,-32.24545 -8.06355,-33.44978 -0.38147,-2.8518 -1.34275,-5.48344 -2.39553,-6.55816 -0.79739,-0.814 -0.98434,-0.85892 -3.57486,-0.85892 -1.5034,0 -3.12596,0.16288 -3.60567,0.36196 -2.33521,0.96908 -2.39346,1.08289 -11.96762,23.38804 -5.01293,11.67872 -9.19789,21.32832 -9.29992,21.44354 -0.10204,0.11523 -6.42993,0.33021 -14.062,0.47774 -15.22912,0.29439 -14.95553,0.25786 -16.64581,2.22248 -1.41158,1.64069 -0.85926,4.46783 1.15517,5.91292 0.86752,0.62234 1.11526,0.6303 16.83887,0.54083 10.26033,-0.0584 16.54891,-0.21314 17.61223,-0.43341 2.44051,-0.50558 4.05416,-2.02728 5.49662,-5.1834 0.63514,-1.38971 3.65195,-8.08495 6.70402,-14.8783 3.40283,-7.5741 5.7137,-12.35155 5.97447,-12.35155 0.29612,0 0.97025,2.17614 2.22017,7.16695 0.98721,3.94182 1.8015,7.51004 1.80954,7.92939 0.008,0.41934 2.94257,12.19725 6.52118,26.17313 7.14635,27.90928 7.54365,29.13309 9.69045,29.84909 1.43403,0.47828 2.04557,0.47788 3.9394,-0.002 z"
     style="fill:#6db8d0;stroke-width:0.30838472" />
  <path
     inkscape:connector-curvature="0"
     id="path916"
     d="m 286.66057,273.66672 c -10.59588,-0.88514 -17.88543,-2.24217 -26.25853,-4.88832 -31.00084,-9.79723 -56.14678,-34.39042 -66.1642,-64.70983 -3.57313,-10.8147 -4.97593,-19.68823 -4.97593,-31.47588 0,-11.78765 1.4028,-20.66119 4.97593,-31.47589 10.01742,-30.3194 35.16336,-54.912596 66.1642,-64.709821 11.05777,-3.494595 20.13074,-4.86655 32.18332,-4.86655 10.0506,0 16.10715,0.698963 25.1024,2.896978 31.92893,7.801922 58.09882,29.943733 70.62987,59.758513 3.52977,8.39826 5.73024,16.70514 7.06095,26.65517 0.73386,5.4874 0.73386,17.99579 0,23.48319 -3.15944,23.62415 -13.03301,43.52909 -29.65666,59.78733 -16.58058,16.21613 -37.33206,26.0726 -60.97515,28.9618 -3.7463,0.4578 -15.17592,0.82642 -18.0862,0.58331 z m 13.70028,-58.42402 c 1.10401,-0.40539 3.32264,-2.54559 4.53578,-4.37546 0.55602,-0.83868 4.41077,-8.07982 8.56612,-16.09142 4.15534,-8.0116 7.80383,-14.69668 8.10771,-14.85575 0.34286,-0.17945 8.52811,-0.21828 21.56632,-0.1023 11.55758,0.1028 21.9699,0.0856 23.13849,-0.0382 1.73212,-0.18352 2.3227,-0.39513 3.19626,-1.14529 0.92221,-0.79191 1.07158,-1.11112 1.07158,-2.29016 0,-1.71727 -0.74356,-2.97543 -2.16913,-3.67025 -1.02913,-0.50162 -2.85175,-0.53864 -26.51932,-0.53864 -27.92265,0 -27.14406,-0.0495 -29.30942,1.86376 -1.2483,1.10297 -5.72357,9.09376 -10.52812,18.7984 -1.22488,2.47413 -2.36525,4.49841 -2.53417,4.49841 -0.39158,0 0.26416,2.50191 -6.43464,-24.55061 -3.19823,-12.91576 -6.77884,-27.3259 -7.95691,-32.02254 -1.17807,-4.69664 -2.29518,-9.48573 -2.48246,-10.64243 -0.46452,-2.86906 -1.38691,-5.3099 -2.39577,-6.33978 -0.79739,-0.814 -0.98434,-0.85892 -3.57486,-0.85892 -1.5034,0 -3.12596,0.16288 -3.60567,0.36196 -2.33521,0.96908 -2.39346,1.08289 -11.96762,23.38804 -5.01293,11.67872 -9.19789,21.32832 -9.29992,21.44354 -0.10204,0.11523 -6.42993,0.33021 -14.062,0.47774 -15.22912,0.29439 -14.95553,0.25786 -16.64581,2.22248 -1.41156,1.64068 -0.85927,4.46778 1.15513,5.91292 0.86854,0.6231 1.1024,0.63028 17.30662,0.53145 10.23587,-0.0624 16.93883,-0.22298 17.78653,-0.42606 1.91262,-0.45818 3.56239,-2.11107 4.8274,-4.83652 0.57736,-1.24391 3.61926,-7.9914 6.75977,-14.99442 3.14051,-7.00302 5.81117,-12.73277 5.9348,-12.73277 0.12362,0 1.0988,3.53391 2.16706,7.85315 1.06826,4.31923 4.81992,19.24401 8.33701,33.16619 7.06989,27.98569 7.56046,29.50872 9.7484,30.26491 1.1437,0.39529 3.84295,0.25655 5.28084,-0.27142 z"
     style="fill:#26cbfb;stroke-width:0.30838472" />
  <path
     inkscape:connector-curvature="0"
     id="path914"
     d="m 286.34874,273.53982 c -21.56561,-1.3708 -41.59021,-8.95681 -58.62423,-22.20888 -3.85697,-3.00064 -11.22605,-10.08085 -14.44958,-13.88316 -13.0804,-15.42895 -20.9875,-33.54053 -23.45441,-53.72345 -0.69961,-5.7238 -0.70176,-16.5092 -0.004,-22.26329 2.36176,-19.48882 9.81533,-37.0011 22.26137,-52.30347 3.06807,-3.77219 10.30741,-10.979292 14.19519,-14.131969 13.54359,-10.982793 29.59573,-18.44628 46.63141,-21.681398 12.75702,-2.422593 26.60562,-2.422593 39.36265,0 17.03568,3.235118 33.0878,10.698605 46.6314,21.681398 3.88779,3.152677 11.12713,10.359779 14.19521,14.131969 12.44601,15.30237 19.89959,32.81465 22.26136,52.30347 0.69467,5.73225 0.69467,16.53105 0,22.26329 -2.36177,19.48883 -9.81535,37.00111 -22.26136,52.30348 -3.06808,3.77219 -10.30742,10.97929 -14.19521,14.13196 -15.74263,12.76604 -34.76254,20.71273 -54.77498,22.8855 -5.50688,0.59789 -12.90868,0.80384 -17.77437,0.49455 z m 13.98352,-58.2865 c 1.12967,-0.41497 3.33945,-2.53844 4.56437,-4.38608 0.55602,-0.83868 4.40907,-8.07654 8.56234,-16.08413 4.15326,-8.00759 7.7159,-14.6637 7.917,-14.79137 0.20107,-0.12766 10.75483,-0.2321 23.45278,-0.2321 21.30728,0 23.14637,-0.0403 23.85507,-0.52334 1.85776,-1.26614 1.93126,-1.37901 1.93126,-2.96683 0,-1.92332 -0.64571,-2.93571 -2.35707,-3.69564 -1.24168,-0.55138 -2.43041,-0.57779 -26.09152,-0.57963 -27.11739,-0.002 -27.38732,0.0137 -29.55767,1.73169 -0.85085,0.67351 -2.12648,2.71881 -5.10976,8.1928 -2.18672,4.01237 -3.98119,7.46888 -3.98773,7.68113 -0.0195,0.63238 -3.734,7.69597 -4.04708,7.69597 -0.36985,0 0.26247,2.41955 -6.41594,-24.55061 -3.19823,-12.91576 -6.78277,-27.33596 -7.96565,-32.0449 -1.18288,-4.70893 -2.294,-9.55001 -2.46917,-10.75794 -0.39657,-2.73476 -1.34188,-5.41593 -2.23868,-6.34954 -0.62622,-0.65194 -0.94019,-0.71129 -3.76267,-0.71129 -3.19103,0 -4.31706,0.30932 -5.73536,1.57547 -0.38161,0.34067 -4.51093,9.55536 -9.78989,21.84639 -5.02145,11.69146 -9.28498,21.41976 -9.47452,21.61845 -0.24801,0.25997 -4.23906,0.43477 -14.23651,0.62352 -13.70094,0.25867 -13.90776,0.27186 -15.04608,0.95992 -0.6348,0.3837 -1.36456,0.9914 -1.6217,1.35044 -0.61814,0.86313 -0.59466,3.06013 0.0469,4.38228 1.05914,2.18293 0.21609,2.09337 18.64965,1.98111 10.29512,-0.0627 17.05429,-0.22357 17.90099,-0.42606 1.91249,-0.45737 3.56211,-2.10993 4.8274,-4.83597 0.57736,-1.24391 3.61926,-7.9914 6.75977,-14.99442 3.14051,-7.00302 5.80956,-12.73277 5.93121,-12.73277 0.2736,0 4.04085,14.64143 4.04085,15.70477 0,0.42331 2.87306,12.00672 6.38457,25.7409 7.0006,27.38063 7.61922,29.31248 9.57204,29.89195 1.14155,0.33874 4.20964,0.16383 5.51085,-0.31417 z"
     style="fill:#17cafc;stroke-width:0.30838472" />
  <path
     inkscape:connector-curvature="0"
     id="path912"
     d="m 286.19283,273.36209 c -6.59485,-0.63043 -8.66934,-0.88903 -12.31733,-1.53544 -41.8589,-7.41723 -75.19176,-40.01815 -82.75249,-80.93537 -1.28026,-6.92855 -1.58425,-10.43964 -1.58425,-18.29859 0,-7.85896 0.30399,-11.37004 1.58425,-18.29859 7.56044,-40.91563 40.91727,-73.539232 82.75249,-80.933483 7.08427,-1.252124 10.67427,-1.549424 18.70986,-1.549424 8.03559,0 11.62559,0.2973 18.70986,1.549424 41.83522,7.394251 75.19206,40.017853 82.7525,80.933483 1.28025,6.92855 1.58425,10.43963 1.58425,18.29859 0,7.85895 -0.304,11.37004 -1.58425,18.29859 -7.05041,38.15532 -36.61345,69.36435 -75.11264,79.29462 -8.17292,2.10808 -15.42174,3.0465 -24.63465,3.18918 -3.77315,0.0584 -7.42158,0.0526 -8.1076,-0.013 z m 14.09106,-58.09078 c 1.17314,-0.43124 3.36849,-2.52728 4.61274,-4.40407 0.55602,-0.83868 4.40907,-8.07654 8.56234,-16.08413 4.15326,-8.00759 7.7159,-14.6637 7.917,-14.79137 0.20107,-0.12766 10.75483,-0.2321 23.45278,-0.2321 25.0351,0 23.11509,0.11617 25.24661,-1.52764 0.89614,-0.6911 0.87709,-3.43197 -0.0322,-4.62578 -1.47277,-1.93374 -0.90705,-1.89474 -27.56489,-1.90067 -26.38748,-0.006 -27.25301,0.0426 -29.6408,1.661 -0.70937,0.48079 -1.66231,1.51394 -2.11765,2.29588 -1.00002,1.71731 -6.43506,12.35976 -9.06223,17.74491 -1.04335,2.13864 -2.02858,3.88845 -2.1894,3.88845 -0.37448,0 0.26301,2.43783 -6.41993,-24.55061 -3.19823,-12.91576 -6.7906,-27.3671 -7.98305,-32.11409 -1.19244,-4.747 -2.30917,-9.73138 -2.48162,-11.07641 -0.39032,-3.04448 -1.32826,-5.55413 -2.37741,-6.36125 -0.67405,-0.51855 -1.25499,-0.61553 -3.64426,-0.6083 -3.14057,0.009 -5.07521,0.68136 -6.15733,2.13836 -0.3065,0.41268 -4.65329,10.28846 -9.65953,21.94619 -5.00625,11.65773 -9.11887,21.22106 -9.13916,21.25185 -0.0203,0.0308 -6.29246,0.17694 -13.93816,0.32478 l -13.90127,0.26881 -1.44941,0.83074 c -2.39993,1.37554 -2.98643,3.37088 -1.73433,5.9005 0.35972,0.72675 0.95609,1.48909 1.32528,1.69408 0.86949,0.48281 33.315,0.34602 35.39751,-0.14923 1.91206,-0.45472 3.56121,-2.10617 4.8274,-4.83415 0.57736,-1.24391 3.61926,-7.9914 6.75977,-14.99442 3.14051,-7.00302 5.81011,-12.73277 5.93245,-12.73277 0.28716,0 3.94784,14.59136 4.18967,16.69991 0.10115,0.88196 2.91573,12.34145 6.25462,25.46554 6.47068,25.43414 7.4407,28.53005 9.14265,29.1797 0.94595,0.36107 4.57376,0.17343 5.87176,-0.30371 z"
     style="fill:#4db0cd;stroke-width:0.30838472" />
  <path
     inkscape:connector-curvature="0"
     id="path910"
     d="m 286.19283,273.36209 c -6.59485,-0.63043 -8.66934,-0.88903 -12.31733,-1.53544 -41.8589,-7.41723 -75.19176,-40.01815 -82.75249,-80.93537 -1.28026,-6.92855 -1.58425,-10.43964 -1.58425,-18.29859 0,-7.85896 0.30399,-11.37004 1.58425,-18.29859 7.56044,-40.91563 40.91727,-73.539232 82.75249,-80.933483 7.08427,-1.252124 10.67427,-1.549424 18.70986,-1.549424 8.03559,0 11.62559,0.2973 18.70986,1.549424 41.83522,7.394251 75.19206,40.017853 82.7525,80.933483 1.28025,6.92855 1.58425,10.43963 1.58425,18.29859 0,7.85895 -0.304,11.37004 -1.58425,18.29859 -7.05041,38.15532 -36.61345,69.36435 -75.11264,79.29462 -8.17292,2.10808 -15.42174,3.0465 -24.63465,3.18918 -3.77315,0.0584 -7.42158,0.0526 -8.1076,-0.013 z m 13.61868,-57.81958 c 0.84158,-0.2466 1.81611,-0.98056 3.15449,-2.37578 2.10489,-2.19429 3.0577,-3.87894 13.02994,-23.03789 2.79383,-5.36759 5.22954,-9.86729 5.41265,-9.99933 0.18313,-0.13204 10.64678,-0.20671 23.25255,-0.16593 25.00479,0.0809 23.84799,0.15503 25.41422,-1.62856 0.87943,-1.00148 0.86206,-3.55472 -0.0322,-4.7288 -1.47078,-1.93112 -0.93393,-1.89359 -27.34891,-1.91188 -26.44199,-0.0183 -27.38263,0.0343 -29.8044,1.6657 -1.26116,0.84958 -1.77384,1.58674 -4.1532,5.97174 -1.49294,2.75137 -4.08893,7.84686 -5.76887,11.32329 -1.67994,3.47643 -3.21028,6.32415 -3.40075,6.32826 -0.19603,0.004 -1.19266,-3.40044 -2.2966,-7.84567 -1.07266,-4.31923 -4.11701,-16.49923 -6.76523,-27.06666 -6.22005,-24.82052 -7.49271,-30.092 -7.92494,-32.82583 -0.46746,-2.95672 -1.38231,-5.28877 -2.37408,-6.05174 -0.67405,-0.51855 -1.25499,-0.61553 -3.64426,-0.6083 -3.14057,0.009 -5.07521,0.68136 -6.15733,2.13836 -0.3065,0.41268 -4.65329,10.28846 -9.65953,21.94619 -5.00625,11.65773 -9.11887,21.22106 -9.13916,21.25185 -0.0203,0.0308 -6.29246,0.17694 -13.93816,0.32478 l -13.90127,0.26881 -1.44941,0.83074 c -2.40102,1.37616 -2.98646,3.37079 -1.73278,5.90365 0.36058,0.72848 1.02712,1.50371 1.4812,1.72274 0.65048,0.31376 4.39735,0.39286 17.66448,0.3729 16.37764,-0.0246 16.87731,-0.0427 18.24211,-0.66066 1.77634,-0.80425 3.29945,-2.49461 4.36562,-4.84499 0.45883,-1.01151 3.40345,-7.56886 6.5436,-14.57188 3.14015,-7.00303 5.81372,-12.73277 5.94126,-12.73277 0.40162,0 3.17354,10.97367 4.19987,16.62671 0.24417,1.34492 3.11592,12.94165 6.38165,25.77052 6.33892,24.90133 7.31996,28.01867 9.00801,28.62381 1.16026,0.41593 3.95794,0.409 5.39938,-0.0134 z"
     style="fill:#00c8fd;stroke-width:0.30838472" />
  <path
     inkscape:connector-curvature="0"
     id="path908"
     d="m 300.97038,228.5651 c -4.30614,-1.5501 -8.10955,-6.18566 -10.05308,-12.25258 -0.43768,-1.36626 -2.20959,-8.09099 -3.93759,-14.94385 -3.33552,-13.22793 -5.59588,-21.46823 -6.63214,-24.17795 -0.59291,-1.55037 -0.66077,-1.61723 -1.08335,-1.06741 -0.24795,0.32261 -0.98628,1.61937 -1.64074,2.88169 -2.4837,4.79058 -7.34538,9.57053 -11.16104,10.97341 -3.22689,1.18641 -5.43638,1.30872 -20.18398,1.11729 -14.95388,-0.19411 -15.60309,-0.25671 -18.70986,-1.80412 -2.51196,-1.25115 -4.36827,-3.06461 -5.59811,-5.46887 -1.12543,-2.20015 -1.38709,-3.98594 -0.91925,-6.27373 0.17731,-0.86706 0.22989,-0.89504 1.01345,-0.53931 0.62481,0.28366 4.93476,0.36726 17.66532,0.34268 16.36952,-0.0316 16.87798,-0.0502 18.24211,-0.66786 1.77634,-0.80425 3.29945,-2.49461 4.36562,-4.84499 0.45883,-1.01151 3.40345,-7.56886 6.5436,-14.57188 3.14015,-7.00303 5.81372,-12.73277 5.94126,-12.73277 0.40162,0 3.17354,10.97367 4.19987,16.62671 0.24417,1.34492 3.11592,12.94165 6.38165,25.77052 6.46177,25.3839 7.30202,28.01988 9.13039,28.64325 1.2539,0.4275 3.75923,0.41192 5.277,-0.0328 0.84158,-0.2466 1.81611,-0.98056 3.15449,-2.37578 2.10489,-2.19429 3.0577,-3.87894 13.02994,-23.03789 2.79383,-5.36759 5.22954,-9.86729 5.41265,-9.99933 0.18313,-0.13204 10.64678,-0.20671 23.25255,-0.16593 20.66934,0.0669 23.01141,0.0254 23.85507,-0.4221 3.13761,-1.66441 3.05869,-5.59799 -0.14404,-7.17753 l -1.39135,-0.68619 1.54727,0.006 c 6.59042,0.0257 12.22777,2.94578 14.36886,7.44284 1.02455,2.15192 1.02455,5.2136 0,7.36552 -0.91631,1.92456 -3.4772,4.46722 -5.51779,5.47855 -3.47152,1.72048 -3.88578,1.7524 -23.51901,1.81192 -12.7687,0.0387 -18.41228,0.15916 -19.19532,0.40967 -0.61003,0.19516 -1.47602,0.73311 -1.9244,1.19545 -1.07563,1.10912 -3.95957,6.1973 -8.6007,15.17451 -2.08123,4.02569 -4.33813,8.14288 -5.01533,9.1493 -2.78914,4.14514 -6.9618,7.67597 -10.41268,8.81101 -1.81325,0.59641 -6.1367,0.62016 -7.74134,0.0425 z m -3.6999,-39.42744 c -1.07266,-4.31923 -4.11701,-16.49923 -6.76523,-27.06666 -6.15497,-24.56081 -7.47167,-30.00653 -7.89011,-32.63249 -0.43076,-2.70335 -1.12061,-4.7819 -1.91477,-5.76932 l -0.62067,-0.77171 3.07355,0.0683 c 2.81213,0.0624 3.25268,0.15721 5.17954,1.11406 3.87351,1.92351 6.67841,5.69176 8.4211,11.31332 0.44069,1.4216 2.28712,8.62327 4.10317,16.0037 3.92941,15.96918 5.51547,22.22569 6.57162,25.923 l 0.78407,2.74479 -3.87006,7.7769 c -2.12852,4.2773 -3.97025,8.08569 -4.09273,8.4631 -0.56668,1.74623 -1.0616,0.55573 -2.97948,-7.16695 z M 249.3231,167.79919 c 0.474,-0.0701 1.17562,-0.0682 1.55915,0.004 0.38354,0.0724 -0.004,0.12974 -0.86182,0.12746 -0.85754,-0.002 -1.17133,-0.0615 -0.69733,-0.13162 z"
     style="fill:#00c6fb;stroke-width:0.30838472" />
  <path
     inkscape:connector-curvature="0"
     id="path906"
     d="m 302.25212,226.30647 c -3.10611,-0.99963 -5.73675,-3.46854 -7.36246,-6.90984 -0.58853,-1.24579 -1.15952,-2.70259 -1.26888,-3.23734 -0.17819,-0.87136 -0.13706,-0.94672 0.39633,-0.72619 1.1037,0.45634 4.18734,0.54385 5.59372,0.15874 1.07134,-0.29336 1.84748,-0.85351 3.34354,-2.41306 2.11846,-2.20836 3.0561,-3.86558 13.04157,-23.04994 2.79383,-5.36759 5.22954,-9.86729 5.41265,-9.99933 0.18313,-0.13204 10.64678,-0.20671 23.25255,-0.16593 20.66934,0.0669 23.01141,0.0254 23.85507,-0.4221 1.6464,-0.87336 2.18282,-1.7464 2.18282,-3.5526 v -1.63593 l 1.63804,0.16534 c 4.44241,0.44842 8.24716,3.69506 8.69691,7.42118 0.48543,4.02164 -2.32339,7.46626 -7.21664,8.85013 -1.68249,0.47584 -3.803,0.53066 -21.0486,0.54415 -21.74868,0.017 -20.99368,-0.0632 -22.73503,2.41617 -0.48615,0.6922 -3.57062,6.42133 -6.85442,12.7314 -3.28377,6.31007 -6.67267,12.45072 -7.53086,13.64587 -2.81481,3.92004 -6.50943,6.16706 -10.41686,6.33539 -1.20993,0.0521 -2.55068,-0.0181 -2.97945,-0.15611 z m -4.98164,-37.16881 c -1.07266,-4.31923 -4.11701,-16.49923 -6.76523,-27.06666 -7.5569,-30.1551 -8.82715,-35.71531 -8.3366,-36.49159 0.30014,-0.47495 3.18228,0.005 5.11558,0.85223 3.06823,1.34428 4.94343,3.63411 6.36098,7.76751 0.42512,1.2396 3.16592,11.86058 6.09066,23.60218 2.92474,11.74159 5.57629,22.30903 5.89233,23.48319 0.31604,1.17416 0.51803,2.34069 0.44885,2.5923 -0.36202,1.31676 -6.21479,13.10013 -6.50997,13.10651 -0.19603,0.004 -1.19266,-3.40044 -2.2966,-7.84567 z m -62.57127,-0.68287 c -3.02604,-0.1847 -4.12136,-0.38223 -5.47127,-0.98665 -3.55631,-1.59235 -5.63027,-4.38367 -5.68034,-7.6451 -0.0193,-1.25582 0.10728,-1.84956 0.43778,-2.05392 0.59717,-0.36925 2.02008,-0.40179 18.70702,-0.42773 13.37963,-0.0208 13.92672,-0.0443 15.27972,-0.6569 1.77634,-0.80425 3.29945,-2.49461 4.36562,-4.84499 0.45883,-1.01151 3.40345,-7.56886 6.5436,-14.57188 3.14015,-7.00303 5.81372,-12.73277 5.94126,-12.73277 0.38209,0 3.2818,11.36612 4.06847,15.94733 0.16678,0.97125 0.58352,2.96123 0.92611,4.42216 0.34258,1.46093 0.69209,2.96502 0.77668,3.34243 0.11847,0.52853 0.014,0.6862 -0.45456,0.6862 -0.85685,0 -1.46155,0.95455 -4.46232,7.04394 -3.549,7.2019 -5.16031,9.19641 -8.97359,11.10763 -2.75721,1.38191 -3.63338,1.46483 -16.21521,1.53462 -6.60303,0.0366 -13.70806,-0.0373 -15.78897,-0.16437 z"
     style="fill:#00c1f5;stroke-width:0.30838472" />
  <path
     inkscape:connector-curvature="0"
     id="path904"
     d="m 302.30617,224.90103 c -2.97114,-0.90683 -4.81454,-2.76181 -6.4944,-6.5352 l -1.03016,-2.31399 2.40997,-0.18171 c 1.32549,-0.0999 2.76586,-0.32555 3.20082,-0.50136 0.43496,-0.17581 1.62772,-1.19895 2.65056,-2.27364 2.01375,-2.11582 3.13601,-4.10564 12.95298,-22.96629 2.79383,-5.36759 5.22954,-9.86729 5.41265,-9.99933 0.18313,-0.13204 10.64678,-0.20671 23.25255,-0.16593 20.66934,0.0669 23.01141,0.0254 23.85507,-0.4221 1.30532,-0.69244 2.04639,-1.64531 2.25435,-2.89874 l 0.17765,-1.07069 1.38487,0.18564 c 5.80471,0.77814 9.08804,5.9684 6.43277,10.16881 -1.17155,1.85328 -2.88151,2.99742 -5.41626,3.62407 -1.76284,0.4358 -4.54565,0.50612 -21.36042,0.53968 l -19.33353,0.0386 -1.30722,0.68338 c -0.71896,0.37586 -1.64566,1.13068 -2.05933,1.67737 -0.41365,0.5467 -3.41851,6.15042 -6.67743,12.45272 -3.25893,6.3023 -6.43757,12.24188 -7.06363,13.19907 -2.36316,3.613 -5.06488,5.80688 -8.28525,6.72787 -2.01792,0.5771 -3.14624,0.58433 -4.95661,0.0318 z m -5.03492,-35.76337 c -1.07223,-4.31923 -4.25376,-17.04818 -7.07007,-28.28657 -5.74373,-22.92012 -7.44867,-30.04724 -7.76246,-32.44928 l -0.21511,-1.64664 1.85127,0.16417 c 2.20023,0.19513 4.01328,1.03547 5.5305,2.56336 2.31848,2.33479 2.22604,2.02197 11.11755,37.62041 2.45092,9.81262 4.44417,18.11561 4.42944,18.45108 -0.0396,0.90179 -5.18073,11.42321 -5.58529,11.43044 -0.19577,0.004 -1.19379,-3.40765 -2.29583,-7.84697 z m -60.03589,-1.8923 c -4.68451,-0.17508 -5.89876,-0.31936 -7.34074,-0.87227 -1.95405,-0.74925 -3.77857,-2.40892 -4.49361,-4.0876 -0.65493,-1.53757 -0.63713,-4.00344 0.0328,-4.5471 0.42173,-0.34224 3.30769,-0.41857 15.82543,-0.41857 14.25716,0 15.40109,-0.0391 16.64001,-0.56881 1.80614,-0.77224 3.58404,-2.83918 4.70902,-5.4746 1.59154,-3.72839 11.88461,-26.53211 12.04818,-26.69209 0.085,-0.0831 0.22589,-0.0813 0.31309,0.004 0.35204,0.34429 3.06411,11.51563 4.36424,17.9768 l 0.52899,2.6289 -0.81318,1.2018 c -0.44726,0.66099 -1.84422,3.38931 -3.10437,6.06293 -3.24379,6.88229 -4.03482,8.34917 -5.43964,10.08734 -1.54241,1.90839 -3.63302,3.28422 -6.28362,4.13522 -1.8895,0.60664 -2.75389,0.6594 -11.70689,0.71444 -5.31672,0.0327 -12.19259,-0.035 -15.27972,-0.15034 z"
     style="fill:#00bdf1;stroke-width:0.30838472" />
  <path
     inkscape:connector-curvature="0"
     id="path902"
     d="m 302.06046,223.96412 c -2.01908,-0.72962 -3.70812,-2.35842 -4.93708,-4.76098 -1.4846,-2.90229 -1.46257,-3.30378 0.18123,-3.30378 2.39391,0 3.59726,-0.58084 5.66139,-2.73263 2.10489,-2.19429 3.0577,-3.87894 13.02994,-23.03789 2.79383,-5.36759 5.22954,-9.86729 5.41265,-9.99933 0.18313,-0.13204 10.64678,-0.20671 23.25255,-0.16593 20.66934,0.0669 23.01141,0.0254 23.85507,-0.4221 1.08449,-0.57528 1.87591,-1.42838 2.17225,-2.34154 0.27166,-0.83715 1.46513,-0.84343 3.71662,-0.0195 2.03856,0.74596 3.8044,2.50946 4.11046,4.10499 0.79988,4.17006 -1.75393,7.03546 -6.92156,7.76607 -1.21944,0.1724 -10.00045,0.30621 -20.38439,0.31062 -11.74805,0.005 -18.66143,0.12162 -19.41999,0.32765 -2.42184,0.65776 -2.99015,1.4924 -9.09474,13.35609 -3.16293,6.14689 -6.46679,12.34271 -7.34188,13.76848 -1.93895,3.15909 -4.29058,5.55884 -6.47277,6.60521 -2.0376,0.97704 -4.97418,1.21155 -6.81975,0.54462 z m -4.79029,-34.82646 c -1.07282,-4.31923 -4.58863,-18.42058 -7.81291,-31.33633 -5.35966,-21.46962 -6.48774,-26.16566 -6.97815,-29.04902 l -0.16858,-0.99117 1.4734,0.007 c 2.90484,0.0132 5.55704,1.89167 7.06113,5.00119 0.81014,1.67484 1.80685,5.49276 9.83498,37.67315 l 4.06656,16.30057 -1.3641,2.91295 c -2.99204,6.38935 -3.48246,7.33198 -3.81542,7.33351 -0.19475,9.2e-4 -1.20001,-3.43542 -2.29691,-7.85154 z m -63.80602,-2.82709 c -1.21663,-0.12552 -2.83036,-0.49571 -3.58606,-0.82265 -1.44354,-0.62452 -3.24124,-2.3806 -3.73362,-3.64718 -0.48658,-1.25166 -0.35609,-3.63094 0.22499,-4.10235 0.42136,-0.34184 3.23659,-0.41857 15.35768,-0.41857 14.38239,0 14.88517,-0.0197 16.24498,-0.63533 1.77634,-0.80425 3.29945,-2.49461 4.36562,-4.84499 0.45883,-1.01151 3.40345,-7.56886 6.5436,-14.57188 3.14015,-7.00303 5.81372,-12.73277 5.94126,-12.73277 0.4053,0 3.17703,10.99078 4.21635,16.71913 0.44807,2.46963 0.44259,2.56221 -0.2042,3.45058 -0.36554,0.50208 -2.03078,3.84173 -3.70053,7.42145 -1.66975,3.57972 -3.42911,7.16477 -3.90968,7.96679 -1.25533,2.09497 -3.01498,3.85427 -4.81153,4.81058 -2.92424,1.55659 -4.61193,1.71105 -18.26357,1.67152 -6.86028,-0.0199 -13.46866,-0.13881 -14.68529,-0.26433 z"
     style="fill:#50a1ba;stroke-width:0.30838472" />
  <path
     inkscape:connector-curvature="0"
     id="path900"
     d="m 302.06046,223.96412 c -2.01908,-0.72962 -3.70812,-2.35842 -4.93708,-4.76098 -1.4846,-2.90229 -1.46257,-3.30378 0.18123,-3.30378 2.17482,0 3.69968,-0.64169 5.58801,-2.35152 1.702,-1.54112 2.15384,-2.32899 9.9764,-17.39624 4.50652,-8.6801 8.34642,-15.89005 8.53311,-16.02209 0.18669,-0.13204 10.65324,-0.20671 23.25901,-0.16593 20.66934,0.0669 23.01141,0.0254 23.85507,-0.4221 1.08449,-0.57528 1.87591,-1.42838 2.17225,-2.34154 0.27166,-0.83715 1.46513,-0.84343 3.71662,-0.0195 2.03856,0.74596 3.8044,2.50946 4.11046,4.10499 0.79988,4.17006 -1.75393,7.03546 -6.92156,7.76607 -1.21944,0.1724 -10.00045,0.30621 -20.38439,0.31062 -11.74805,0.005 -18.66143,0.12162 -19.41999,0.32765 -2.42184,0.65776 -2.99015,1.4924 -9.09474,13.35609 -3.16293,6.14689 -6.46679,12.34271 -7.34188,13.76848 -1.93895,3.15909 -4.29058,5.55884 -6.47277,6.60521 -2.0376,0.97704 -4.97418,1.21155 -6.81975,0.54462 z m -2.92665,-27.14587 c 0,-0.17841 -4.22699,-17.25754 -11.09059,-44.81148 -4.27481,-17.1612 -5.27594,-21.33687 -5.53878,-23.10197 l -0.17029,-1.14366 1.46159,0.007 c 2.89297,0.0133 5.54761,1.8966 7.04932,5.00119 0.80997,1.67449 1.80813,5.49784 9.82689,37.64077 l 4.05846,16.2682 -0.80803,1.87791 c -1.38424,3.21704 -4.15517,8.43489 -4.47934,8.43489 -0.17008,0 -0.30923,-0.0777 -0.30923,-0.17256 z m -65.66966,-10.50768 c -1.21663,-0.12552 -2.83036,-0.49571 -3.58606,-0.82265 -1.44354,-0.62452 -3.24124,-2.3806 -3.73362,-3.64718 -0.48658,-1.25166 -0.35609,-3.63094 0.22499,-4.10235 0.42136,-0.34184 3.23659,-0.41857 15.35768,-0.41857 h 14.84174 l 1.75291,-0.84192 c 2.26042,-1.08567 2.83217,-1.92439 5.66307,-8.30737 5.91693,-13.34122 10.62014,-23.63568 10.79837,-23.63568 0.21614,0 3.83365,14.26722 4.38987,17.31338 0.32365,1.77247 0.29979,1.97986 -0.32691,2.84063 -0.37184,0.51071 -2.04222,3.85743 -3.71197,7.43715 -1.66975,3.57972 -3.42911,7.16477 -3.90968,7.96679 -1.25533,2.09497 -3.01498,3.85427 -4.81153,4.81058 -2.92424,1.55659 -4.61193,1.71105 -18.26357,1.67152 -6.86028,-0.0199 -13.46866,-0.13881 -14.68529,-0.26433 z"
     style="fill:#33a9cc;stroke-width:0.30838472" />
  <path
     inkscape:connector-curvature="0"
     id="path898"
     d="m 302.06046,223.96412 c -2.01908,-0.72962 -3.70812,-2.35842 -4.93708,-4.76098 -1.57339,-3.07587 -1.52496,-3.30378 0.70206,-3.30378 1.46374,0 2.07511,-0.16761 3.19627,-0.87627 3.15988,-1.99728 3.36644,-2.33721 14.7569,-24.2843 2.6987,-5.19985 5.11146,-9.72355 5.36168,-10.05267 0.44479,-0.58506 0.9745,-0.59866 23.75949,-0.60996 26.21797,-0.013 24.41974,0.15093 25.53796,-2.32787 0.642,-1.42315 1.35226,-1.52482 3.96734,-0.56791 2.03856,0.74596 3.8044,2.50946 4.11046,4.105 0.79988,4.17006 -1.75393,7.03545 -6.92156,7.76606 -1.21944,0.1724 -10.00045,0.30621 -20.38439,0.31062 -11.74805,0.005 -18.66143,0.12162 -19.41999,0.32765 -2.42184,0.65776 -2.99015,1.4924 -9.09474,13.35609 -3.16293,6.1469 -6.46679,12.34272 -7.34188,13.76849 -1.93895,3.15909 -4.29058,5.55884 -6.47277,6.60521 -2.0376,0.97704 -4.97418,1.21155 -6.81975,0.54462 z m -6.77693,-43.06102 c -5.99541,-24.07519 -11.60033,-46.88385 -12.19707,-49.63473 -0.29109,-1.3419 -0.59772,-2.67998 -0.6814,-2.97352 -0.12989,-0.45563 0.0676,-0.53273 1.35006,-0.52702 2.9338,0.0131 5.58007,1.87975 7.08994,5.00119 0.81018,1.67494 1.80651,5.49142 9.83713,37.68173 l 4.06869,16.30914 -2.4743,5.03191 c -1.36086,2.76755 -2.58962,5.06942 -2.73057,5.11526 -0.14096,0.0459 -2.05907,-7.15594 -4.26248,-16.00396 z m -61.81938,5.40747 c -1.21663,-0.12552 -2.83036,-0.49571 -3.58606,-0.82265 -1.44354,-0.62452 -3.24124,-2.3806 -3.73362,-3.64718 -0.4285,-1.10226 -0.35684,-3.6303 0.11373,-4.01225 0.27331,-0.22185 5.31175,-0.35771 15.52258,-0.41856 l 15.11791,-0.0901 1.53746,-0.77414 c 0.93729,-0.47195 1.92474,-1.3053 2.52959,-2.13484 0.54568,-0.74838 3.6599,-7.3306 6.92049,-14.62717 7.12774,-15.95046 6.65995,-14.94385 6.94467,-14.94385 0.22649,0 1.73555,5.88648 3.72884,14.54528 l 0.99645,4.32857 -0.69303,0.95188 c -0.38117,0.52353 -2.05919,3.88074 -3.72894,7.46046 -1.66975,3.57972 -3.42911,7.16477 -3.90968,7.96679 -1.25533,2.09497 -3.01498,3.85427 -4.81153,4.81058 -2.92424,1.55659 -4.61193,1.71105 -18.26357,1.67152 -6.86028,-0.0199 -13.46866,-0.13881 -14.68529,-0.26433 z"
     style="fill:#00baec;stroke-width:0.30838472" />
  <path
     inkscape:connector-curvature="0"
     id="path896"
     d="m 302.8022,223.23821 c -2.31335,-0.73035 -4.18461,-2.59737 -5.35941,-5.34725 -0.67303,-1.5754 -0.46478,-1.9916 0.99652,-1.9916 0.78768,0 1.66942,-0.2992 2.5824,-0.87627 3.15988,-1.99728 3.36644,-2.33721 14.7569,-24.2843 2.6987,-5.19985 5.11146,-9.72355 5.36168,-10.05267 0.44479,-0.58506 0.9745,-0.59866 23.75949,-0.60996 25.60441,-0.0127 24.08945,0.0996 25.34971,-1.87819 0.5903,-0.92638 0.64583,-0.94453 2.08715,-0.68193 3.16346,0.57638 5.37983,2.75612 5.37743,5.2886 -0.003,2.21175 -1.57294,4.05664 -4.20856,4.94289 -1.38987,0.46735 -3.75997,0.54231 -21.82817,0.69035 -22.64012,0.1855 -21.10884,0.027 -23.31346,2.41359 -0.70442,0.76257 -3.25155,5.36989 -6.79723,12.29505 -3.11885,6.0915 -6.24118,12.01913 -6.93851,13.1725 -1.66772,2.75836 -3.8455,5.05283 -5.76632,6.07529 -1.69368,0.90156 -4.59649,1.30582 -6.05962,0.8439 z m -11.22592,-57.27913 c -7.78877,-31.33403 -8.73663,-35.29032 -8.78624,-36.67306 -0.0248,-0.69147 0.0742,-0.75295 1.06405,-0.6605 1.5185,0.14184 3.42149,1.01801 4.47494,2.06033 1.1166,1.10481 1.82773,2.46527 2.64587,5.06183 1.09883,3.48741 12.9686,51.28799 12.93585,52.09383 -0.0332,0.8172 -4.04557,9.14955 -4.40558,9.14893 -0.11849,-2e-4 -3.68649,-13.96431 -7.92889,-31.03136 z m -58.36299,19.41936 c -3.70159,-0.54555 -6.04802,-2.37355 -6.33403,-4.93455 -0.0795,-0.71181 0.002,-1.66533 0.1813,-2.11892 l 0.32583,-0.82473 14.75617,-0.0902 14.75617,-0.0902 1.53744,-0.77414 c 0.93727,-0.47194 1.92473,-1.30531 2.52957,-2.13484 0.54568,-0.74838 3.6599,-7.3306 6.92049,-14.62717 7.11683,-15.92605 6.66081,-14.94385 6.93819,-14.94385 0.37667,0 4.04038,15.19818 4.04038,16.76073 0,0.41447 -0.54366,1.78779 -1.20814,3.05183 -0.66447,1.26403 -2.42324,4.97441 -3.90838,8.24528 -3.00708,6.62281 -4.36521,8.77771 -6.56125,10.4105 -2.97319,2.21061 -3.05688,2.22099 -18.41392,2.28456 -7.54631,0.0312 -14.54823,-0.0652 -15.55982,-0.21428 z"
     style="fill:#00b2e3;stroke-width:0.30838472" />
  <path
     inkscape:connector-curvature="0"
     id="path894"
     d="m 301.44956,221.31269 c -1.06114,-0.70272 -1.80423,-1.54355 -2.55338,-2.88923 -1.11416,-2.00134 -1.10607,-2.5241 0.0391,-2.5241 0.90345,0 3.15555,-1.42801 4.62856,-2.93486 1.18719,-1.21446 3.39491,-5.23158 12.2148,-22.22571 2.6987,-5.19985 5.11146,-9.72355 5.36168,-10.05267 0.44479,-0.58507 0.97466,-0.59866 23.78297,-0.60996 l 23.32805,-0.0115 1.17189,-0.8736 c 1.00188,-0.74686 1.35385,-0.84515 2.42595,-0.67747 3.75672,0.58751 5.72609,3.70864 3.94466,6.25167 -1.85595,2.64945 -3.5984,2.83033 -26.13072,2.71259 -17.64717,-0.0922 -17.96608,-0.0832 -19.34618,0.54358 -2.45807,1.11643 -3.43101,2.56932 -8.91652,13.31508 -6.51688,12.76611 -8.52565,16.24662 -10.49302,18.18087 -2.03475,2.00048 -3.76169,2.78653 -6.12196,2.78653 -1.56003,0 -2.06629,-0.15042 -3.33585,-0.99117 z m -9.77461,-54.89608 c -6.96031,-27.94584 -8.74411,-35.37286 -8.75314,-36.44439 -0.01,-1.17 3.47406,0.23547 5.05151,2.03785 1.53334,1.75198 1.99849,3.31523 7.08445,23.80891 2.39359,9.64488 5.202,20.94549 6.24092,25.11247 1.03891,4.16697 1.88892,7.88668 1.88892,8.26601 0,0.75852 -3.3177,7.79353 -3.67519,7.79305 -0.12248,-1.6e-4 -3.64934,-13.75842 -7.83747,-30.5739 z m -57.01111,18.06808 c -4.53721,-0.38712 -6.83612,-2.19091 -6.52708,-5.12134 0.0761,-0.72117 0.23638,-1.40737 0.35629,-1.52488 0.1199,-0.11752 6.56033,-0.28229 14.31205,-0.36616 l 14.09403,-0.15249 1.53724,-0.77414 c 0.93696,-0.47185 1.92464,-1.30547 2.52937,-2.13484 0.54568,-0.74838 3.6599,-7.3306 6.92049,-14.62717 7.12774,-15.95046 6.65995,-14.94385 6.94467,-14.94385 0.23838,0 2.34126,8.20412 3.2832,12.80902 l 0.53026,2.5923 -1.09863,2.13483 c -0.60425,1.17416 -2.17235,4.51299 -3.48466,7.41962 -4.435,9.82299 -5.64241,11.72624 -8.46555,13.34435 -2.52903,1.44953 -4.59564,1.64461 -16.97833,1.60269 -6.26001,-0.0212 -12.53901,-0.13727 -13.95335,-0.25794 z"
     style="fill:#00a9d7;stroke-width:0.30838472" />
  <path
     inkscape:connector-curvature="0"
     id="path892"
     d="m 302.19784,220.70117 c -1.33376,-0.79701 -2.2707,-1.89037 -2.91768,-3.40477 l -0.46071,-1.07841 1.29288,-0.64508 c 1.81712,-0.90664 4.16833,-3.14493 5.23034,-4.97914 0.49563,-0.85601 4.15035,-7.80078 8.12161,-15.43282 3.97125,-7.63204 7.48719,-14.1411 7.81321,-14.46459 0.57561,-0.57115 1.24012,-0.58648 22.98023,-0.52983 15.42974,0.0402 22.77517,-0.0455 23.63483,-0.27563 3.23983,-0.86744 4.61803,-0.71782 6.24329,0.67781 1.44743,1.24293 1.52807,2.92144 0.20263,4.21775 -1.7161,1.67836 -1.6721,1.67512 -22.97297,1.69446 -14.24063,0.0129 -19.93859,0.11683 -20.71125,0.37767 -1.77295,0.59849 -3.307,1.76552 -4.36467,3.32033 -0.55175,0.81114 -3.86227,7.03495 -7.35668,13.83069 -5.49463,10.68567 -6.59689,12.61897 -8.15416,14.30198 -0.99038,1.07035 -2.36684,2.19761 -3.0588,2.50502 -1.77056,0.7866 -4.09388,0.73803 -5.5221,-0.11544 z m -6.91415,-39.79805 c -2.20332,-8.84803 -5.73345,-23.02915 -7.84474,-31.5136 -2.11129,-8.48444 -3.94074,-16.225 -4.06546,-17.20123 l -0.22675,-1.77498 1.05403,0.20617 c 1.55195,0.30357 3.12621,1.67376 4.08952,3.55941 0.50087,0.98042 1.73598,5.1725 3.00625,10.20347 6.1678,24.4279 11.27063,45.22602 11.26912,45.93066 -0.002,0.85127 -2.65829,6.67791 -3.04444,6.67761 -0.12732,-1e-4 -2.03421,-7.23948 -4.23753,-16.08751 z m -60.85481,2.68132 c -3.63584,-0.44093 -5.14919,-1.56449 -5.14044,-3.81642 0.009,-2.27564 -0.90901,-2.12624 14.10318,-2.29571 l 13.50771,-0.15249 1.53713,-0.77414 c 0.93682,-0.47181 1.92461,-1.30555 2.52928,-2.13484 0.54568,-0.74838 3.6599,-7.3306 6.92049,-14.62717 7.12774,-15.95046 6.65995,-14.94385 6.94467,-14.94385 0.23309,0 2.43715,8.55548 3.12867,12.14454 0.345,1.79059 0.32283,2.01242 -0.31153,3.11629 -0.37563,0.65365 -2.35752,4.84761 -4.40419,9.31989 -4.04609,8.84128 -5.03432,10.57629 -6.92618,12.16005 -2.49694,2.09031 -2.66795,2.11208 -17.07682,2.1746 -7.11754,0.0309 -13.78293,-0.046 -14.81197,-0.17075 z"
     style="fill:#2a97b7;stroke-width:0.30838472" />
  <path
     inkscape:connector-curvature="0"
     id="path890"
     d="m 302.19784,220.70117 c -1.33686,-0.79886 -2.27083,-1.89068 -2.9228,-3.41677 -0.45734,-1.07049 -0.45112,-1.09589 0.34043,-1.39022 0.44344,-0.16489 0.92615,-0.2998 1.07267,-0.2998 0.14652,0 1.04427,-0.69531 1.99501,-1.54512 2.17526,-1.94438 3.05117,-3.45741 11.55255,-19.95573 3.71661,-7.21269 6.95591,-13.31004 7.19846,-13.54965 0.37516,-0.37061 3.78344,-0.42696 22.82603,-0.37734 15.42793,0.0402 22.7727,-0.0455 23.63236,-0.27564 3.23983,-0.86744 4.61803,-0.71782 6.24329,0.67781 1.44743,1.24293 1.52807,2.92144 0.20263,4.21775 -1.7161,1.67836 -1.6721,1.67512 -22.97297,1.69446 -14.24063,0.0129 -19.93859,0.11683 -20.71125,0.37767 -1.77295,0.59849 -3.307,1.76552 -4.36467,3.32033 -0.55175,0.81114 -3.86227,7.03495 -7.35668,13.83069 -5.49463,10.68567 -6.59689,12.61897 -8.15416,14.30198 -0.99038,1.07035 -2.36684,2.19761 -3.0588,2.50502 -1.77056,0.7866 -4.09388,0.73803 -5.5221,-0.11544 z m -2.87341,-24.32727 c -0.42185,-1.21817 -16.09473,-64.87845 -16.09439,-65.37239 3.1e-4,-0.4823 0.15887,-0.54083 1.01258,-0.37384 1.51229,0.29581 3.09314,1.68276 4.04767,3.55122 0.50087,0.98042 1.73598,5.1725 3.00625,10.20347 6.17783,24.46765 11.27063,45.22662 11.26912,45.93457 -0.002,1.01804 -3.02805,6.67257 -3.24123,6.05697 z m -64.89555,-12.78946 c -3.63584,-0.44093 -5.14919,-1.56449 -5.14044,-3.81642 0.009,-2.28212 -0.87666,-2.14234 13.62761,-2.15098 14.21362,-0.008 14.86846,-0.075 17.0016,-1.72736 1.39613,-1.08144 1.41804,-1.12534 8.99039,-18.015 3.14047,-7.00461 5.80525,-12.63143 5.92173,-12.50404 0.11649,0.12739 0.96165,3.20942 1.87815,6.84894 l 1.66636,6.61732 -0.7046,1.22611 c -0.38753,0.67435 -2.37916,4.88525 -4.42583,9.35753 -4.04609,8.84128 -5.03432,10.57629 -6.92618,12.16005 -2.49694,2.09031 -2.66795,2.11208 -17.07682,2.1746 -7.11754,0.0309 -13.78293,-0.046 -14.81197,-0.17075 z"
     style="fill:#00a1cd;stroke-width:0.30838472" />
  <path
     inkscape:connector-curvature="0"
     id="path888"
     d="m 303.19689,220.31199 c -1.43484,-0.6298 -2.13653,-1.28171 -2.84894,-2.64687 -0.76997,-1.47547 -0.74639,-1.72289 0.19771,-2.07394 1.47867,-0.54983 3.87459,-3.10111 5.40811,-5.75878 0.83303,-1.44368 4.41735,-8.25169 7.96515,-15.12891 3.54781,-6.87722 6.79659,-12.80813 7.21953,-13.17979 0.42293,-0.37167 1.29294,-0.81238 1.93335,-0.97937 0.71699,-0.18695 10.28235,-0.32027 24.89459,-0.34699 26.16309,-0.0478 25.17371,-0.11759 26,1.83344 0.33279,0.7857 0.3152,1.04338 -0.11491,1.6854 -0.27927,0.41685 -0.9625,1.00092 -1.51827,1.29795 -0.92879,0.49637 -2.65019,0.5524 -21.27954,0.69255 -18.88461,0.14207 -20.35969,0.19126 -21.59669,0.72026 -2.61764,1.11938 -3.67911,2.74251 -10.66907,16.3143 -4.03414,7.83275 -7.07808,13.36551 -7.94182,14.4353 -2.36583,2.93023 -5.33961,4.1492 -7.6492,3.13545 z m -3.86271,-23.93113 c -0.45283,-1.2444 -15.79547,-63.6821 -15.79383,-64.27381 0.004,-1.37458 2.22965,-0.44769 3.56069,1.48277 1.13303,1.64329 1.78877,3.95574 6.38991,22.53413 2.38866,9.64489 5.34554,21.53693 6.57084,26.42678 l 2.22783,8.89062 -1.39449,2.69848 c -0.85463,1.65382 -1.45893,2.52139 -1.56095,2.24103 z m -59.13643,-13.3874 c -5.80696,-0.15833 -7.1876,-0.28237 -8.01072,-0.71965 -1.94973,-1.0358 -2.56826,-2.95722 -1.30953,-4.06803 0.62349,-0.55023 1.30428,-0.5813 12.86302,-0.58697 13.32567,-0.007 14.05379,-0.0844 16.17713,-1.72913 1.39613,-1.08144 1.41804,-1.12534 8.99039,-18.015 3.14047,-7.00461 5.80539,-12.63143 5.92204,-12.50404 0.11666,0.12739 0.89133,2.93497 1.7215,6.23906 l 1.50941,6.00744 -1.20585,2.37942 c -0.66321,1.30867 -2.72,5.70741 -4.57063,9.77497 -4.57214,10.0492 -5.54769,11.38486 -9.32309,12.76449 -1.63615,0.59789 -10.83419,0.78273 -22.76367,0.45744 z"
     style="fill:#009ac5;stroke-width:0.30838472" />
  <path
     inkscape:connector-curvature="0"
     id="path886"
     d="m 302.6827,219.24427 c -0.53497,-0.33523 -1.30675,-1.23257 -1.71507,-1.99408 -0.73386,-1.36863 -0.73527,-1.38854 -0.12221,-1.72861 1.54283,-0.85583 3.71672,-3.27763 5.10678,-5.68918 0.83217,-1.44368 4.21185,-7.83645 7.51041,-14.20616 3.29856,-6.3697 6.28753,-11.97982 6.64218,-12.46693 0.35465,-0.48711 1.42931,-1.24545 2.38813,-1.6852 l 1.74329,-0.79954 h 23.23141 c 21.48141,0 23.30609,0.0399 24.22275,0.53036 1.85031,0.98989 1.64135,2.28787 -0.5236,3.25284 -0.96103,0.42835 -3.40095,0.48726 -20.42493,0.49313 -20.4863,0.007 -20.11213,-0.0177 -22.76503,1.50288 -1.98403,1.13716 -3.35583,3.38478 -10.24693,16.78905 -3.36309,6.54175 -6.61435,12.55314 -7.22503,13.35865 -2.25216,2.97073 -5.53099,4.07851 -7.82215,2.64279 z m -3.34946,-22.86341 c -0.57107,-1.57359 -15.87219,-64.06731 -15.72229,-64.21391 0.33229,-0.32499 2.06411,0.75484 2.83815,1.76964 1.14645,1.50306 1.72317,3.52213 6.42464,22.49234 2.39033,9.64488 5.338,21.50076 6.55039,26.34638 1.21238,4.84563 2.19752,9.10006 2.1892,9.45428 -0.0226,0.96137 -2.07899,4.70539 -2.28009,4.15127 z m -64.96781,-14.34899 c -1.66393,-0.32146 -2.48461,-0.75261 -2.90907,-1.5283 -0.45114,-0.82444 -0.119,-1.7146 0.87803,-2.35319 0.7377,-0.47249 1.97171,-0.52709 12.21571,-0.54053 12.43788,-0.0163 13.29122,-0.11183 15.36755,-1.72017 1.39613,-1.08144 1.41804,-1.12534 8.99039,-18.015 3.14047,-7.00461 5.80398,-12.63143 5.91892,-12.50404 0.29476,0.32671 2.79051,10.28699 2.79051,11.13665 0,0.38547 -0.20709,0.99003 -0.46021,1.34346 -0.25312,0.35343 -2.23358,4.53546 -4.40102,9.2934 -2.16743,4.75793 -4.21854,9.18493 -4.55801,9.83777 -1.05357,2.02615 -3.25406,4.06539 -5.126,4.75037 -1.60768,0.58829 -2.34363,0.61796 -14.54469,0.58623 -7.06824,-0.0184 -13.44118,-0.14737 -14.16211,-0.28665 z"
     style="fill:#0092bb;stroke-width:0.30838472" />
  <path
     inkscape:connector-curvature="0"
     id="path884"
     d="m 303.81144,218.91147 c -1.0692,-0.41697 -2.06043,-1.37652 -2.50408,-2.42405 -0.35649,-0.84172 -0.30247,-0.93804 1.35861,-2.42282 2.05106,-1.83334 2.97076,-3.3544 8.94055,-14.78647 7.90635,-15.14058 8.30478,-15.76438 10.83279,-16.96127 1.34418,-0.63641 1.60874,-0.64356 24.05109,-0.64961 23.16421,-0.006 24.05271,0.0355 24.05271,1.12923 0,1.03826 -1.8654,1.13552 -20.20091,1.05335 -19.1961,-0.086 -19.4707,-0.0684 -22.09931,1.41949 -2.57435,1.45717 -3.57439,3.03077 -10.57628,16.64223 -5.43691,10.56918 -7.01332,13.37696 -8.25846,14.7094 -2.20278,2.35721 -3.77538,3.00082 -5.59671,2.29052 z m -4.47878,-22.53061 c -0.39369,-1.08938 -15.47857,-62.36058 -15.47857,-62.87025 0,-1.51231 2.19793,0.61141 3.12664,3.02108 0.3712,0.96312 2.3516,8.54449 4.4009,16.84748 2.0493,8.30298 5.06193,20.38005 6.69474,26.83793 1.6328,6.45788 2.9737,12.1658 2.97976,12.68426 0.0134,1.14574 -1.47843,4.15758 -1.72347,3.4795 z m -58.37012,-14.92633 c -5.26442,-0.14317 -6.38447,-0.25539 -7.09416,-0.71075 -1.14325,-0.73356 -1.07761,-1.60612 0.17071,-2.26945 0.89195,-0.47396 2.30322,-0.56016 11.77162,-0.71902 7.02176,-0.1178 11.15774,-0.30742 11.90863,-0.54595 1.47226,-0.46769 3.63882,-2.5437 4.54383,-4.35396 0.38775,-0.77559 3.29162,-7.22227 6.45305,-14.32596 3.16143,-7.10369 5.86538,-12.95405 6.00878,-13.0008 0.27409,-0.0894 2.5987,8.76513 2.58727,9.85496 -0.004,0.34762 -0.4149,1.37692 -0.9139,2.28732 -0.499,0.91041 -2.62256,5.42937 -4.71903,10.04214 -2.09647,4.61277 -4.27989,9.10346 -4.85205,9.9793 -1.29335,1.97982 -3.11303,3.29662 -5.14434,3.72269 -1.59316,0.33416 -9.34217,0.34893 -20.72041,0.0395 z"
     style="fill:#008cb3;stroke-width:0.30838472" />
  <path
     inkscape:connector-curvature="0"
     id="path882"
     d="m 303.59254,217.75728 c -0.54907,-0.33607 -1.22545,-1.04064 -1.50308,-1.5657 l -0.50476,-0.95465 1.66562,-1.72738 c 0.98569,-1.02224 2.36302,-3.01233 3.37406,-4.87513 0.93965,-1.73127 2.83828,-5.02501 4.21918,-7.31944 1.3809,-2.29442 3.83153,-6.6173 5.44584,-9.60639 3.17442,-5.87784 4.39212,-7.52385 6.25282,-8.45224 1.48693,-0.7419 4.89022,-0.84813 5.1598,-0.16106 0.10256,0.26144 -0.66894,1.40001 -1.91158,2.82103 -1.85842,2.12514 -2.78447,3.7579 -8.56826,15.10687 -3.56656,6.99832 -7.00098,13.41212 -7.63204,14.2529 -2.08539,2.77843 -4.13003,3.62429 -5.9976,2.48119 z m -4.25131,-21.87943 c -0.0915,-0.31043 -1.16803,-4.61297 -2.39228,-9.56122 -1.22426,-4.94824 -4.45013,-17.84875 -7.16861,-28.66779 -5.13894,-20.45207 -5.77037,-23.12735 -5.5171,-23.37506 0.32102,-0.31396 1.48928,1.29998 2.11523,2.92218 0.36011,0.93325 1.63884,5.74538 2.84163,10.69363 1.20278,4.94824 4.2601,17.35886 6.79405,27.57914 3.92338,15.82441 4.55988,18.72127 4.2886,19.5185 -0.42993,1.26345 -0.76118,1.57028 -0.96152,0.89062 z M 249.39677,180.506 c -13.72924,-0.54649 -14.44274,-1.0212 -2.46915,-1.64277 9.8856,-0.51317 11.70806,-0.99049 14.14462,-3.70458 1.34584,-1.49913 2.31359,-3.51497 8.29408,-17.27678 2.95514,-6.80014 5.38451,-12.00297 5.53558,-11.85523 0.35962,0.35172 2.07643,6.97442 2.08509,8.04334 0.004,0.46382 -0.40492,1.56174 -0.90815,2.43982 -0.50324,0.87807 -2.69199,5.50783 -4.86389,10.28833 -5.07195,11.16372 -5.50482,11.86935 -8.09762,13.20008 -1.52713,0.78378 -4.25291,0.88466 -13.72056,0.50779 z"
     style="fill:#0084a9;stroke-width:0.30838472" />
  <path
     inkscape:connector-curvature="0"
     id="path880"
     d="m 303.51391,216.2654 c -1.19989,-1.17352 -1.19746,-1.851 0.0107,-2.97753 0.52835,-0.49266 2.02179,-2.73205 3.31874,-4.97643 1.40386,-2.42937 2.95989,-4.67235 3.84524,-5.54281 1.6182,-1.59098 2.57655,-3.12099 6.55767,-10.4693 1.44338,-2.66419 3.14867,-5.42795 3.78951,-6.14169 1.09453,-1.21903 2.42642,-1.892 3.02654,-1.52926 0.14581,0.0881 -1.58354,3.76349 -3.84303,8.16745 -2.25949,4.40395 -5.55052,10.92243 -7.31339,14.4855 -3.62147,7.31962 -5.19152,9.41752 -7.28711,9.73705 -0.99561,0.15181 -1.28592,0.048 -2.10486,-0.75298 z m -43.74876,-37.13738 c -0.41581,-0.41334 -0.2609,-0.6881 1.43752,-2.54972 0.91927,-1.0076 2.16675,-2.76259 2.77217,-3.89998 0.95189,-1.78828 8.74474,-20.02642 10.38734,-24.31019 l 0.57662,-1.5038 0.43501,1.04264 c 0.23925,0.57346 0.65285,2.02444 0.9191,3.22441 l 0.4841,2.18176 -0.98708,1.56895 c -0.54289,0.86292 -2.96518,5.8527 -5.38285,11.08841 -4.51614,9.78012 -5.44468,11.47081 -6.86434,12.49868 -0.85883,0.62182 -3.37362,1.06042 -3.77759,0.65884 z m 33.15666,-10.06798 c 0.015,-0.35528 0.0888,-0.42754 0.1884,-0.18425 0.0901,0.22015 0.079,0.48319 -0.0246,0.58454 -0.10361,0.10134 -0.17732,-0.0788 -0.16378,-0.40029 z m -0.93549,-3.65972 c 0.015,-0.35528 0.0889,-0.42754 0.18839,-0.18425 0.0901,0.22015 0.079,0.4832 -0.0246,0.58454 -0.10362,0.10134 -0.17732,-0.0788 -0.16378,-0.40029 z m -0.62366,-2.74478 c 0.015,-0.35529 0.0888,-0.42755 0.18839,-0.18426 0.0901,0.22015 0.079,0.4832 -0.0246,0.58454 -0.10362,0.10134 -0.17732,-0.0788 -0.16378,-0.40028 z m -0.49237,-1.65196 c -0.1184,-0.5272 -0.15026,-1.02212 -0.0708,-1.09982 0.0795,-0.0777 0.2341,0.29714 0.34367,0.83296 0.25996,1.27122 0.008,1.51761 -0.27285,0.26686 z m -0.44313,-2.00776 c 0.015,-0.35528 0.0889,-0.42755 0.1884,-0.18426 0.0901,0.22015 0.079,0.4832 -0.0246,0.58454 -0.10362,0.10134 -0.17732,-0.0788 -0.16378,-0.40028 z m -2.94394,-11.33067 c -1.48646,-5.83123 -2.695,-10.80809 -2.68566,-11.05969 0.0394,-1.06108 0.97403,1.40694 1.97655,5.21943 1.26369,4.80572 3.72141,16.13965 3.53859,16.31845 -0.0698,0.0682 -1.34302,-4.64696 -2.82948,-10.47819 z"
     style="fill:#007ea1;stroke-width:0.30838472" />
  <path
     inkscape:connector-curvature="0"
     id="path878"
     d="m 304.00383,215.08957 c -0.7657,-0.74886 -0.79231,-0.85786 -0.35366,-1.44864 0.26089,-0.35137 1.30448,-2.01125 2.3191,-3.68862 1.01461,-1.67737 2.07054,-3.355 2.34651,-3.72807 0.61183,-0.82714 3.64761,-2.29743 4.01059,-1.94243 0.77912,0.76199 -2.60242,7.94928 -4.77925,10.15807 -1.64211,1.66621 -2.36787,1.79928 -3.54329,0.64969 z m -29.50467,-62.77345 c 0,-0.78125 0.74204,-3.20663 0.98106,-3.20663 0.12543,0 0.32382,0.6246 0.44087,1.38799 0.17669,1.15232 0.11375,1.46137 -0.37068,1.82016 -0.75583,0.55981 -1.05125,0.55939 -1.05125,-0.002 z"
     style="fill:#00799b;stroke-width:0.30838472" />
</svg>
